<svg xmlns="http://www.w3.org/2000/svg" viewBox="0 0 346.61 523.38"><defs><style>.cls-1{fill:#e9eff5;}.cls-2{fill:#813f20;}.cls-3{fill:#5c2c17;}.cls-4{fill:#2b283d;}.cls-5{fill:#3a3652;}.cls-6{fill:#ffc999;}.cls-7{fill:#aee4f7;}.cls-8{fill:#3a3757;}.cls-9{fill:#444065;}.cls-10{fill:#fff;}.cls-11{fill:#ff731d;}.cls-12{fill:#99c8d9;}.cls-13{fill:#e6b58c;}.cls-14{fill:#bf5616;}.cls-15{fill:#dbb08a;}.cls-16{fill:#d1a57f;}.cls-17{fill:#633424;}.cls-18{fill:#fcffff;}.cls-19{fill:#783e2b;}</style></defs><title>to-work</title><g id="Слой_2" data-name="Слой 2"><g id="Слой_6" data-name="Слой 6"><path class="cls-1" d="M61.78,502.07c0,11.77,63.76,21.31,142.42,21.31s142.41-9.54,142.41-21.31-63.76-21.31-142.41-21.31S61.78,490.3,61.78,502.07Z"/><path class="cls-2" d="M249.73,450.05a11.24,11.24,0,0,0-3.75.13c-3.41.71-9.73,3-12.22,10.12-4.43,12.72-.81,24.47-1.94,33.2-1,7.39,1.63,10.77,7,12.38a3.94,3.94,0,0,0,4.43-1.5c2.66-3.95,8-13.59,11.56-31.49C258.9,452.27,254.4,450.65,249.73,450.05Z"/><path class="cls-3" d="M253.41,451.17c.4,4-.14,10.42-2.16,20.38-3.81,18.79-9.45,28.95-12.24,33.13a4.11,4.11,0,0,1-.9,1l.74.24a4.89,4.89,0,0,0,.64.14,4.15,4.15,0,0,0,1.27,0,3.87,3.87,0,0,0,1.16-.39,3.7,3.7,0,0,0,1.36-1.22c2.66-3.95,8-13.59,11.56-31.49C257.78,458,256.25,453,253.41,451.17Z"/><path class="cls-3" d="M231.68,469.05a4.85,4.85,0,0,1,1.48-1.94A5.74,5.74,0,0,1,235.4,466a6.7,6.7,0,0,1,1.26-.17,5.38,5.38,0,0,1,1.27.15,4.77,4.77,0,0,1,2.17,1.13c-.83-.06-1.56-.18-2.29-.16a7.71,7.71,0,0,0-2.1.27A14.25,14.25,0,0,0,231.68,469.05Z"/><path class="cls-3" d="M231.41,472.35a4.43,4.43,0,0,1,1.55-1.43,5.84,5.84,0,0,1,2-.73,5,5,0,0,1,2.15.12,4,4,0,0,1,1.85,1c-.73,0-1.35-.1-2-.07a10.12,10.12,0,0,0-1.83.16A29.41,29.41,0,0,0,231.41,472.35Z"/><path class="cls-3" d="M231.45,478.58a3.14,3.14,0,0,1,.94-1.62,4.11,4.11,0,0,1,1.64-1,4.19,4.19,0,0,1,1.89-.18,3.61,3.61,0,0,1,1.75.66c-.63.14-1.19.2-1.72.32a10.38,10.38,0,0,0-1.53.39,9.5,9.5,0,0,0-1.46.59C232.48,478,232,478.26,231.45,478.58Z"/><path class="cls-4" d="M234.74,471a120.61,120.61,0,0,1-24.49-11.27,182.27,182.27,0,0,1-21.48-15c-6.84-5.6-13.39-11.49-19.6-19.66a42.9,42.9,0,0,1-4.33-7.11L163,414.06a37.58,37.58,0,0,1-1.35-3.55A136.07,136.07,0,0,1,157.56,397c-4.06-17.25-6.21-33.81-8-50.44s-3-32.94-3.79-49.86l44.71.81c-1.18,15.45-1.91,31.56-2.21,47.26s0,31.53,1.56,46.18c.5,3.51,1,7.15,1.68,10.11a21.94,21.94,0,0,0,.51,2.22l.54,1.7a14.94,14.94,0,0,0,1.46,3.53c2.94,5.21,7.72,11,12.84,16.34,10.27,10.58,22.63,20.63,35,26.46Z"/><path class="cls-2" d="M196.46,493.23a11.5,11.5,0,0,0-1.16-3.57c-1.62-3.08-5.53-8.54-13.09-9-13.45-.76-23.75,6-32.45,7.27-7.38,1.11-9.91,4.53-10,10.16a4,4,0,0,0,2.65,3.85c4.54,1.47,15.28,4,33.46,2.45C196.84,502.66,197.16,497.89,196.46,493.23Z"/><path class="cls-3" d="M196.39,497.08c-3.76,1.49-10,2.73-20.19,3.52-19.11,1.5-30.43-1.12-35.22-2.66a3.88,3.88,0,0,1-1.16-.6c0,.26,0,.51,0,.78a3.66,3.66,0,0,0,0,.66,4.24,4.24,0,0,0,.37,1.21,3.91,3.91,0,0,0,.7,1,3.77,3.77,0,0,0,1.54,1c4.54,1.47,15.28,4,33.46,2.45C191.05,503.14,195.4,500.31,196.39,497.08Z"/><path class="cls-3" d="M173.22,481.1a4.9,4.9,0,0,1,2.28.89,5.8,5.8,0,0,1,1.71,1.84,6.1,6.1,0,0,1,.51,1.17,4.87,4.87,0,0,1,.2,1.25,4.69,4.69,0,0,1-.49,2.4,20.94,20.94,0,0,0-.47-2.24,7.72,7.72,0,0,0-.84-2A14,14,0,0,0,173.22,481.1Z"/><path class="cls-3" d="M170,481.75a4.5,4.5,0,0,1,1.8,1.09,5.85,5.85,0,0,1,1.25,1.73,5.12,5.12,0,0,1,.48,2.1,4,4,0,0,1-.49,2.07c-.19-.7-.28-1.33-.48-1.93a11.36,11.36,0,0,0-.65-1.71A30.94,30.94,0,0,0,170,481.75Z"/><path class="cls-3" d="M164,483.5a3.08,3.08,0,0,1,1.82.46,4.23,4.23,0,0,1,1.4,1.3,4.44,4.44,0,0,1,.7,1.77,3.78,3.78,0,0,1-.16,1.86c-.31-.56-.52-1.08-.78-1.56a11.44,11.44,0,0,0-.8-1.37,8.59,8.59,0,0,0-1-1.23C164.85,484.32,164.46,483.93,164,483.5Z"/><path class="cls-5" d="M172.24,484.57c.29-17.93,1.74-35.45,3.38-53s3.69-34.9,5.91-52.25c4.44-34.77,9.56-69.19,15.28-103.9l43.6,9.93c-9.41,33-18.41,66.51-26.64,100-4.14,16.74-8.09,33.52-11.64,50.31S195.23,469.31,193,486Z"/><path class="cls-5" d="M140.89,291.46c.43,23.28,22.31,41.86,48.86,41.86s48.44-18.58,48.87-41.86c.45-23.72-21.42-43.26-48.86-43.26S140.44,267.74,140.89,291.46Z"/><polygon class="cls-6" points="61.38 218.61 56.45 236.59 69.83 243.23 77.34 228.1 61.38 218.61"/><rect class="cls-7" x="60.09" y="228.08" width="21.73" height="12.8" transform="translate(-170.63 193.78) rotate(-63.6)"/><path class="cls-8" d="M106.08,258.72c-18.78,0-38.39-10.2-41.68-12l13.2-24.29c13.89,7.48,31.4,11.05,34,6.91,19.37-30.33,31-68.45,31.07-68.83l26.49,7.94c-.51,1.71-12.76,42.11-34.25,75.77C128,255.17,117.16,258.72,106.08,258.72Z"/><path class="cls-9" d="M173,302.65l-3.67,11.6c-34-.73-37.32-4.55-37.32-4.55-2-79.53,10.66-149.36,10.66-149.36,21.73-19.46,46.92-17.48,46.92-17.48s25.19-2,46.92,17.48a988.9,988.9,0,0,1,8.15,149.36s-20,9.13-68.32,4.55Z"/><path class="cls-10" d="M254.55,350.25l-64.08-15.08a6.12,6.12,0,0,1-4.56-7.37l9.86-41.93a6.14,6.14,0,0,1,7.38-4.57l64.07,15.08a6.14,6.14,0,0,1,4.57,7.38l-9.87,41.92A6.12,6.12,0,0,1,254.55,350.25Z"/><path class="cls-11" d="M258.15,356.88,184.29,339.5a6.7,6.7,0,0,1-5-8l10.15-43.14a6.7,6.7,0,0,1,8-5l73.86,17.38a6.68,6.68,0,0,1,5,8L266.19,351.9A6.69,6.69,0,0,1,258.15,356.88Z"/><rect class="cls-6" x="228.93" y="305.07" width="15.77" height="13.94" transform="translate(366.23 681.77) rotate(-162.09)"/><rect class="cls-7" x="228.09" y="302.03" width="20.27" height="11.94" transform="matrix(-0.95, -0.31, 0.31, -0.95, 370.24, 674.32)"/><path class="cls-9" d="M250.8,311.93l-25.13-5.8c.07-.32,7.35-32.18,8.77-62.55,1.46-31.44-6.79-57.44-15.63-64.41l16-20.25c20.94,16.53,26.77,56.59,25.41,85.86C258.68,277.54,251.12,310.54,250.8,311.93Z"/><path class="cls-6" d="M242.18,321.09s2.73,9.64-.88,18.14-9.83,3.88-16.52,3.54-11.09-3.36-8.71-11.48,6.69-14.22,10.79-15.12Z"/><path class="cls-6" d="M227.17,316.24s-9.58.29-15.76,5.12-9.55,4.94-6.68,8.3c1.41,1.64,7.46,1.26,10.7-1.85s8.48-1.86,8.48-1.86Z"/><path class="cls-6" d="M216.39,330.26s-1.73,3.42-4.44,8.75-3.37,8.44-.11,9.14c2.79.61,6.25-6.63,8-10.25Z"/><path class="cls-6" d="M220,336s-.09.32-1.48,6.14-1.36,9.58,2,9.5c2.86-.07,4.28-8.24,5.11-12.17Z"/><path class="cls-6" d="M227.19,336.48s-.28-1.2-.77,4.76-1.31,11.28,2,11.89c3,.55,4.65-10.06,4.87-14.07Z"/><path class="cls-6" d="M235.36,332.67s-.26,4.07-.68,10-1.19,12.49,2.09,11.87c2.81-.54,4.51-15.38,4.68-19.39Z"/><path class="cls-5" d="M211.89,146.27s9.85,26.57,8.86,42.47c0,0-9.16,2.21-13.56,4.61a53.64,53.64,0,0,0,6.72,11.82S195.19,228.73,183.7,246l-.13-37.85S186.31,161.54,211.89,146.27Z"/><path class="cls-5" d="M183.69,244s-18.84-31-22.59-39.75l3.37-12.55s-6.51-2.06-8.93-1.91c0,0,2.5-30.06,11.51-42.63L183.57,208Z"/><path class="cls-12" d="M209.06,151.35s-14.22,9.91-26.65,57.73c0,0-15.55-39.79-14.44-51S209.06,151.35,209.06,151.35Z"/><path class="cls-6" d="M204.22,145c.62,4.33-1.89,6.14-6,7.56a27.45,27.45,0,0,1-8.95,1.48A27.81,27.81,0,0,1,181.6,153c-4.44-1.28-7.3-3.19-6.65-7.77l1.66-11.66h26Z"/><path class="cls-13" d="M175,144.87l1.62-11.35h26l.89,6.26A85.54,85.54,0,0,1,175,144.87Z"/><path class="cls-11" d="M181.69,162l5.74,3.35a209.84,209.84,0,0,0,.75,24.41c-.28.83-.57,1.69-.85,2.55-.14.42-.28.84-.41,1.27-.3.91-.59,1.84-.89,2.79-.09.3-.19.62-.28.93-.27.89-.55,1.8-.82,2.72-.09.3-.17.6-.26.9-.33,1.14-.66,2.3-1,3.49-.08.28-.15.56-.23.84-.35,1.27-.69,2.56-1,3.88,0,0-4.33-11.07-8.25-23.18C178.12,175.57,181.69,162,181.69,162Z"/><path class="cls-14" d="M179.56,151.35h14s.95,10-10.56,17.54C183,168.89,176.71,159,179.56,151.35Z"/><path class="cls-7" d="M203.48,139.78l8.72,6.5s-2,5.49-10.69,16.63c0,0-8.29-10.57-17-11.56C184.47,151.35,198.49,148,203.48,139.78Z"/><path class="cls-7" d="M175.62,140.44,165.5,146.8s-1.89,4.88,1.94,16.11c0,0,8.28-10.57,17-11.56C184.47,151.35,176.7,148.26,175.62,140.44Z"/><path class="cls-5" d="M210.65,264.21c14.4-.41,28-1.67,28-1.67s1.42,8.33,0,13.27a213.21,213.21,0,0,1-27.43.84S209.26,273.45,210.65,264.21Z"/><path class="cls-5" d="M134.9,263c5.28.4,13.76,1,22.56,1.22,1.39,9.24-.55,12.44-.55,12.44a204,204,0,0,1-22.41-.42Q134.65,269.51,134.9,263Z"/><path class="cls-14" d="M32.31,207a12.15,12.15,0,1,0,12.15,12.15A12.15,12.15,0,0,0,32.31,207Zm0,19.94a7.79,7.79,0,1,1,7.78-7.79A7.79,7.79,0,0,1,32.31,226.93Z"/><rect class="cls-11" y="202.06" width="31.42" height="40.16"/><path class="cls-6" d="M60,235.8s-9.39,5.21-19.15,3.51-6.44-9.31-7.72-16.38.8-12.4,9.86-11.89,16.48,3.52,18.41,7.57Z"/><path class="cls-15" d="M53.72,234.81a4.81,4.81,0,0,1,1,2.46,1.82,1.82,0,0,1-.56,1.45,2.84,2.84,0,0,1-1.37.58,23.92,23.92,0,0,1-5.12.71,27,27,0,0,1-5.16-.31,19.07,19.07,0,0,1-5-1.42c3.42.21,6.73.35,10.06.26,1.66,0,3.32-.15,5-.31a2.3,2.3,0,0,0,1-.21,1.1,1.1,0,0,0,.46-.79A5.88,5.88,0,0,0,53.72,234.81Z"/><path class="cls-6" d="M61.38,219a34.1,34.1,0,0,0-9.46-12.87c-6.55-5.26-9.67,2.86-12.47,6.69-1.38,1.87,3.82-1.67,7.85,1s3.15,4.18,3.15,4.18Z"/><path class="cls-15" d="M52.29,215.76a3.34,3.34,0,0,1,1,2.78,3.1,3.1,0,0,1-.74,1.6l-.31.33-.45.28a4,4,0,0,1-.83.35,12.56,12.56,0,0,1-2.84.52c-.92.08-1.82.1-2.73.09a31.72,31.72,0,0,1-5.33-.58,22.48,22.48,0,0,1-5.2-1.61,30.33,30.33,0,0,1,5.36-.71c1.76-.1,3.51-.11,5.24-.06l2.57.07c.84,0,1.71.06,2.42,0a3.43,3.43,0,0,0,.44,0h.15l.2-.1a1.79,1.79,0,0,0,.67-.59A3.65,3.65,0,0,0,52.29,215.76Z"/><path class="cls-15" d="M53.91,222.13a3.34,3.34,0,0,1,1,2.78,3.1,3.1,0,0,1-.74,1.61l-.31.32c-.14.1-.3.19-.45.28a3.55,3.55,0,0,1-.83.35,13.19,13.19,0,0,1-2.84.53c-.92.08-1.82.09-2.73.08a31.72,31.72,0,0,1-5.33-.58,22.45,22.45,0,0,1-5.2-1.6,30.48,30.48,0,0,1,5.36-.72c1.76-.1,3.51-.1,5.24-.06l2.57.08c.84,0,1.71.05,2.42,0l.44,0a.74.74,0,0,1,.15,0l.2-.1a1.79,1.79,0,0,0,.67-.59A3.64,3.64,0,0,0,53.91,222.13Z"/><path class="cls-15" d="M53.5,228.66a3.31,3.31,0,0,1,1,2.78,3.23,3.23,0,0,1-.75,1.61l-.31.32a4.92,4.92,0,0,1-.45.28,3.34,3.34,0,0,1-.82.35,13.38,13.38,0,0,1-2.85.53c-.91.07-1.82.09-2.72.08a31.84,31.84,0,0,1-5.34-.58,22.6,22.6,0,0,1-5.2-1.6,29.69,29.69,0,0,1,5.36-.72c1.77-.1,3.51-.1,5.24-.06l2.58.07c.83,0,1.7.06,2.42,0l.43,0a.85.85,0,0,1,.16,0l.2-.1a1.84,1.84,0,0,0,.66-.59A3.64,3.64,0,0,0,53.5,228.66Z"/><path class="cls-6" d="M232.64,72.9s7.22-13.42,17-6.91c8.74,5.85-1.5,39.06-16.13,28.6Z"/><path class="cls-13" d="M235.52,74.43s5.18-10.84,12-5.65c6.16,4.66-1.34,28.89-11.65,20.55Z"/><path class="cls-6" d="M242.66,80.2c-.1,1.78-1.9,3.13-4,3s-3.77-1.66-3.68-3.44,1.9-3.12,4-3S242.76,78.42,242.66,80.2Z"/><path class="cls-16" d="M246.18,69.6c3.76,2.85,2.88,13.24-1,18.84,4.61-5.21,6.43-16.62,2.4-19.66a5.77,5.77,0,0,0-7.5,0A5.64,5.64,0,0,1,246.18,69.6Z"/><path class="cls-13" d="M132.2,66c9.73-6.51,17,6.91,17,6.91l-.82,21.69C133.7,105.05,123.46,71.84,132.2,66Z"/><path class="cls-6" d="M147.82,40.4c-3,8.74-4.93,20.72-7.12,32-2.12,11-8.49,47.34,25.8,60.67s65.72-6.25,72.31-29.92c7.43-26.7,3.81-43.19-2.43-60.5C228.16,19.93,209.2,12.24,189.27,12,170.08,11.83,154.26,21.21,147.82,40.4Z"/><path class="cls-17" d="M150.66,31s0,23.86-11.68,54.25C139,85.21,134.59,43.36,150.66,31Z"/><path class="cls-18" d="M216,100.12c-11.4,7.74-35,9.84-54.84,5.72,0,0,4.58,14.5,27.42,14.5S216,100.12,216,100.12Z"/><path class="cls-15" d="M184.73,79.22s-1.1,10.71-13.59,14.48c0,0,4.47,7.73,13.58,6.22,0,0-2.18-1-4.69-5.14C180,94.78,186.75,89.77,184.73,79.22Z"/><path class="cls-17" d="M196.72,50.44a20.42,20.42,0,0,1,6.37-2,24.91,24.91,0,0,1,6.74-.13,20,20,0,0,1,6.52,2,13.81,13.81,0,0,1,5.05,4.44,34.46,34.46,0,0,0-5.82-2.64,38,38,0,0,0-6.06-1.3c-2.07-.24-4.16-.37-6.29-.41S199,50.41,196.72,50.44Z"/><path class="cls-17" d="M172.84,52.67a57.22,57.22,0,0,0-11.3-.5,29.45,29.45,0,0,0-5.42.88,48,48,0,0,0-5.46,1.77,13.75,13.75,0,0,1,4.79-3.63,16.14,16.14,0,0,1,5.9-1.52,19.1,19.1,0,0,1,6,.52A15.59,15.59,0,0,1,172.84,52.67Z"/><path class="cls-17" d="M152.91,76.25a14.81,14.81,0,0,1,.16-4.25,13.61,13.61,0,0,1,1.4-4.14,9.6,9.6,0,0,1,3.05-3.5,9,9,0,0,1,4.6-1.4,8.61,8.61,0,0,1,4.65,1.27,9,9,0,0,1,3.08,3.53A13,13,0,0,1,171.1,72a14.75,14.75,0,0,1,0,4.25A24.22,24.22,0,0,0,168,68.86a8.29,8.29,0,0,0-2.57-2.39,6.9,6.9,0,0,0-3.25-.74,7.27,7.27,0,0,0-3.26.84A9.53,9.53,0,0,0,156.29,69a17.25,17.25,0,0,0-1.93,3.4A34.44,34.44,0,0,0,152.91,76.25Z"/><path class="cls-17" d="M198.34,76.25A14.81,14.81,0,0,1,198.5,72a13.61,13.61,0,0,1,1.4-4.14,9.6,9.6,0,0,1,3-3.5,9,9,0,0,1,4.6-1.4,8.61,8.61,0,0,1,4.65,1.27,8.89,8.89,0,0,1,3.08,3.53,13.26,13.26,0,0,1,1.26,4.2,15.12,15.12,0,0,1,0,4.25,24,24,0,0,0-3.09-7.35,8.29,8.29,0,0,0-2.57-2.39,6.87,6.87,0,0,0-3.25-.74,7.27,7.27,0,0,0-3.26.84A9.68,9.68,0,0,0,201.72,69a17.25,17.25,0,0,0-1.93,3.4A34.44,34.44,0,0,0,198.34,76.25Z"/><path class="cls-17" d="M242.22,86.72s-16.07-15.46-11.36-43.36c0,0-4-7.56-18.66-4-17,4.11-68.73,18.48-88.9-19.42,0,0,7.36-3.89,11.64-4.33A9.54,9.54,0,0,0,128.32,13a25.17,25.17,0,0,1,12.85-3.24A7.23,7.23,0,0,0,137.32,8s40-17,81.27-1.53a39.33,39.33,0,0,1,24,26.31C245.89,44.62,247.51,62.19,242.22,86.72Z"/><path class="cls-19" d="M128.32,13a25.17,25.17,0,0,1,12.85-3.24A7.23,7.23,0,0,0,137.32,8s43-18.35,86,.38a31.76,31.76,0,0,1,16.83,17.69c0,.09.17.45.2.55-7.44,5.68-16.59,9.41-25.31,12.12-.9.14-1.84.32-2.84.57a227.54,227.54,0,0,1-24.46,5l-10.91,1c-19.88.89-41.93-3.62-53.53-25.42,0,0,7.36-3.89,11.64-4.33A9.54,9.54,0,0,0,128.32,13Z"/></g></g></svg>