<svg xmlns="http://www.w3.org/2000/svg" viewBox="0 0 33.78 33.79"><defs><style>.cls-1{fill:#fff;}.cls-2{fill:#ffcd00;}</style></defs><title>incall_n</title><g id="Слой_2" data-name="Слой 2"><g id="Звонки"><path class="cls-1" d="M10.2,28.26a1.64,1.64,0,1,0,1.64,1.64,1.64,1.64,0,0,0-1.64-1.64Z"/><path class="cls-1" d="M7.91,4.44H12.5a.55.55,0,0,0,.55-.55.55.55,0,0,0-.55-.54H7.91a.54.54,0,0,0-.55.54.55.55,0,0,0,.55.55Z"/><path class="cls-1" d="M19.86,10.92a.55.55,0,0,0,.55-.54V3.52A3.53,3.53,0,0,0,16.89,0H3.52A3.53,3.53,0,0,0,0,3.52V30.27a3.53,3.53,0,0,0,3.52,3.52H16.89a3.53,3.53,0,0,0,3.52-3.52V23.41a.55.55,0,0,0-.55-.54.54.54,0,0,0-.54.54V26H1.09V7.78H19.32v2.6A.54.54,0,0,0,19.86,10.92ZM19.32,27.1v3.17a2.43,2.43,0,0,1-2.43,2.43H3.52a2.43,2.43,0,0,1-2.43-2.43V27.1ZM1.09,6.69V3.52A2.43,2.43,0,0,1,3.52,1.09H16.89a2.43,2.43,0,0,1,2.43,2.43V6.69Z"/><path class="cls-2" d="M33.24,20.69h-17a.54.54,0,0,0-.54.54v1l-4.74-5.3,4.74-5.3v1a.54.54,0,0,0,.54.54h17a.54.54,0,0,0,.54-.54.55.55,0,0,0-.54-.55H16.76V10.17a.55.55,0,0,0-1-.37l-6,6.73a.54.54,0,0,0,0,.73l6,6.72a.53.53,0,0,0,.4.19.71.71,0,0,0,.2,0,.54.54,0,0,0,.35-.51V21.78H33.24a.55.55,0,0,0,.54-.55.54.54,0,0,0-.54-.54Z"/></g></g></svg>