<svg width="90" height="102" viewBox="0 0 90 102" fill="none" xmlns="http://www.w3.org/2000/svg">
<g filter="url(#filter0_d_1554_1873)">
<path d="M63.4525 38.5605C61.3584 35.5329 59.657 33.1635 59.657 30.2675C59.657 28.9512 58.4791 27.8981 57.1702 27.8981C56.6467 27.8981 55.9923 28.0297 55.4688 28.4246C54.8144 28.9512 52.0659 31.5839 49.1865 35.5329C46.9615 32.3737 46.0453 28.4246 46.0453 22.3694C46.0453 21.0531 44.7365 20 43.4277 20C43.0351 20 42.2498 20.1316 41.8571 20.3949C39.5013 21.8429 34.266 26.0552 29.5543 31.8471C26.8058 35.4013 24.5808 39.087 22.8794 42.7728C20.9162 47.38 20 51.9873 20 56.7261C20 70.6794 31.2558 82 44.9983 82C51.2806 82 57.0394 79.7622 61.6202 75.6815C62.6672 74.7601 62.6673 73.3121 61.7511 72.259C60.8349 71.206 59.3952 71.2059 58.3482 72.1274C54.6835 75.4183 49.9718 77.2611 44.8674 77.2611C33.7425 77.2611 24.5808 68.1783 24.5808 56.8577C24.5808 49.4862 27.4602 42.1146 33.0881 35.0064C35.8366 31.5839 38.8469 28.6879 41.2027 26.845C41.5954 31.8471 43.166 37.1125 47.6159 41.3248C48.1394 41.8514 48.7938 42.1146 49.5791 41.983C50.2335 41.8514 50.8879 41.4565 51.2806 40.9299C52.7203 38.6921 54.2909 36.7176 55.5997 35.2696C56.5158 37.5074 57.9555 39.482 59.3952 41.5881C62.1437 45.5372 65.0231 49.8811 65.154 56.4628C65.154 58.3057 64.7613 60.5435 64.2378 62.5181C63.8452 63.8344 64.6305 65.1507 65.9393 65.5456C67.2481 65.9406 68.5569 65.1507 68.9495 63.8344C69.4731 61.7282 69.9966 58.9639 69.9966 56.7261C70.1275 48.0382 66.4628 42.7728 63.4525 38.5605Z" fill="url(#paint0_angular_1554_1873)"/>
</g>
<defs>
<filter id="filter0_d_1554_1873" x="0" y="0" width="90" height="102" filterUnits="userSpaceOnUse" color-interpolation-filters="sRGB">
<feFlood flood-opacity="0" result="BackgroundImageFix"/>
<feColorMatrix in="SourceAlpha" type="matrix" values="0 0 0 0 0 0 0 0 0 0 0 0 0 0 0 0 0 0 127 0" result="hardAlpha"/>
<feOffset/>
<feGaussianBlur stdDeviation="10"/>
<feColorMatrix type="matrix" values="0 0 0 0 1 0 0 0 0 0.498039 0 0 0 0 0.313726 0 0 0 0.5 0"/>
<feBlend mode="normal" in2="BackgroundImageFix" result="effect1_dropShadow_1554_1873"/>
<feBlend mode="normal" in="SourceGraphic" in2="effect1_dropShadow_1554_1873" result="shape"/>
</filter>
<radialGradient id="paint0_angular_1554_1873" cx="0" cy="0" r="1" gradientUnits="userSpaceOnUse" gradientTransform="translate(70 11.94) rotate(-92.6525) scale(116.685 101.646)">
<stop stop-color="#FFA502"/>
<stop offset="1" stop-color="#FF6348"/>
</radialGradient>
</defs>
</svg>
