<svg xmlns="http://www.w3.org/2000/svg" xmlns:xlink="http://www.w3.org/1999/xlink" viewBox="0 0 60.88 79.48"><defs><style>.b5895c82-1235-4b82-8151-859f50d91598{fill:url(#f9bb80d9-eac0-4d97-adae-baae3bde4861);}</style><linearGradient id="f9bb80d9-eac0-4d97-adae-baae3bde4861" y1="39.74" x2="60.88" y2="39.74" gradientUnits="userSpaceOnUse"><stop offset="0" stop-color="#d04f00"/><stop offset="0.59" stop-color="#ef6613"/><stop offset="1" stop-color="#ff731d"/></linearGradient></defs><title>Ресурс 4</title><g id="b8977486-77cc-4dac-af84-5efe59126f18" data-name="Слой 2"><g id="ac20f721-d2ea-418e-a1fe-8ce19036b10b" data-name="Имя менеджера"><path class="b5895c82-1235-4b82-8151-859f50d91598" d="M60.88,69.22A50.25,50.25,0,0,1,0,69.2c.18-.73.38-1.52.6-2.38h0c.34-1.26.71-2.59,1.11-3.81h0c.13-.39.26-.78.39-1.14a17,17,0,0,1,1-2.33,6.54,6.54,0,0,1,.5-.71,1.68,1.68,0,0,1,.18-.21c.06-.07.11-.14.17-.2,1.1-1.14,17.53-10.56,17.63-10.63l.09-.06a3.55,3.55,0,0,0,.31-.23h0l.26-.23.07-.06a2.84,2.84,0,0,0,.24-.26h0l.2-.27.05-.08a3.07,3.07,0,0,0,.17-.31h0a3.27,3.27,0,0,0,.14-.33l0-.09c0-.12.08-.25.11-.38h0c0-.13.05-.27.08-.42s0-.07,0-.11,0-.31,0-.48h0c0-.14,0-.29,0-.44-2.62-2.46-4.5-6.16-5.72-10-2.29-.18-3.37-3.12-3.63-5.17-.13-1.06-.32-2.83.45-3.73a.77.77,0,0,1,.88-.3c-.28-2.84-.65-13.5-.65-13.56,0-.21,0-.41,0-.6s.95.27.95.26C21.18,1.54,36.2,6.84,43,0c.76.3.12,3.89-.42,4.59a4.56,4.56,0,0,0,2.53-1.2h0s.11.18.14.44,0,.26,0,.41h0c0,.15,0,.31,0,.48h0a4.36,4.36,0,0,1,0,.51h0a2.51,2.51,0,0,1-.08.49,1.89,1.89,0,0,1-.23.61c-.64,1-.3,1.32-.3,1.32.59-.6,1.49-.43,1.32-.3-1.15.9-.6,10.73-.93,17.65.41-.31.85-.48,1.31.05.77.9.58,2.67.45,3.73-.26,2.06-1.35,5-3.66,5.17-1.23,3.82-3.1,7.5-5.7,10v.28a1.21,1.21,0,0,0,0,.19c0,.07,0,.13,0,.2a.86.86,0,0,1,0,.16l0,.2s0,.09,0,.13a1.18,1.18,0,0,0,0,.2s0,.08,0,.11a1.62,1.62,0,0,1,0,.19l0,.1.06.19,0,.07a.75.75,0,0,0,.08.18.12.12,0,0,0,0,.07l.09.18s0,0,0,.06l.11.16,0,0,.12.17,0,0,.14.16,0,0,.16.16,0,0,.17.16h0l.2.17c.61.46,4.78,2.85,9,5.28a99.66,99.66,0,0,1,9,5.56c.06.06.12.14.17.2s.13.14.18.21.18.23.26.36a3.64,3.64,0,0,1,.24.35A21.39,21.39,0,0,1,59.15,63h0c.4,1.22.78,2.55,1.12,3.82h0C60.49,67.69,60.7,68.49,60.88,69.22Z"/></g></g></svg>