<svg xmlns="http://www.w3.org/2000/svg" viewBox="0 0 33.78 33.79"><defs><style>.f4cd3c8b-db1f-43f2-af3f-7d64e2ddb1c3{fill:#fff;}.f7887b52-44b2-42b0-8a64-a126907975d5{fill:#51af63;}</style></defs><title>Ресурс 6</title><g id="bf304d1c-0b37-45ec-94ee-6a3caedc6ccf" data-name="Слой 2"><g id="a3b2f3aa-7e30-4e43-ba09-5dc219bce651" data-name="Звонки"><path class="f4cd3c8b-db1f-43f2-af3f-7d64e2ddb1c3" d="M10.2,28.26a1.64,1.64,0,1,0,1.64,1.64,1.64,1.64,0,0,0-1.64-1.64Z"/><path class="f4cd3c8b-db1f-43f2-af3f-7d64e2ddb1c3" d="M7.91,4.44H12.5a.55.55,0,0,0,.55-.55.55.55,0,0,0-.55-.54H7.91a.54.54,0,0,0-.55.54.55.55,0,0,0,.55.55Z"/><path class="f4cd3c8b-db1f-43f2-af3f-7d64e2ddb1c3" d="M19.86,10.92a.55.55,0,0,0,.55-.54V3.52A3.53,3.53,0,0,0,16.89,0H3.52A3.53,3.53,0,0,0,0,3.52V30.27a3.53,3.53,0,0,0,3.52,3.52H16.89a3.53,3.53,0,0,0,3.52-3.52V23.41a.55.55,0,0,0-.55-.54.54.54,0,0,0-.54.54V26H1.09V7.78H19.32v2.6A.54.54,0,0,0,19.86,10.92ZM19.32,27.1v3.17a2.43,2.43,0,0,1-2.43,2.43H3.52a2.43,2.43,0,0,1-2.43-2.43V27.1ZM1.09,6.69V3.52A2.43,2.43,0,0,1,3.52,1.09H16.89a2.43,2.43,0,0,1,2.43,2.43V6.69Z"/><path class="f7887b52-44b2-42b0-8a64-a126907975d5" d="M10.2,20.69a.54.54,0,0,0-.54.54.55.55,0,0,0,.54.55H26.69v1.84a.54.54,0,0,0,.35.51.65.65,0,0,0,.19,0,.56.56,0,0,0,.41-.19l6-6.72a.56.56,0,0,0,0-.73l-6-6.73a.55.55,0,0,0-.95.37V12H10.2a.55.55,0,0,0-.54.55.54.54,0,0,0,.54.54h17a.55.55,0,0,0,.55-.54v-1l4.73,5.3-4.73,5.3v-1a.55.55,0,0,0-.55-.54Z"/></g></g></svg>