<svg viewBox="0 0 81 40" fill="none" xmlns="http://www.w3.org/2000/svg" id="logo">
<g clip-path="url(#clip0_862_1215)">
<path d="M80.9937 22.5111C80.9937 22.4883 80.9937 22.4655 80.9937 22.4428C80.9937 20.5079 80.7028 18.9828 80.1317 17.8674C79.5607 16.7521 78.6449 15.9554 77.395 15.4774C76.1452 14.9993 74.4751 14.7603 72.3849 14.7603H58.6473C58.4534 14.7603 58.2918 14.5896 58.2918 14.3847V6.23564H58.3025C58.3456 6.0763 58.4857 5.96248 58.6473 5.96248H78.5479C78.7418 5.96248 78.9035 5.79176 78.9035 5.5869V3.70896C78.9035 3.5041 78.7418 3.33337 78.5479 3.33337H56.0938C55.8998 3.33337 55.7382 3.5041 55.7382 3.70896V27.3482H24.7937C24.3627 28.2359 23.921 29.1123 23.49 30H73.3007C74.7768 30 75.9943 29.8635 76.9748 29.5789C77.9553 29.2944 78.7418 28.8505 79.3344 28.2473C79.5715 28.0083 79.7762 27.7465 79.9594 27.462C79.9594 27.462 80.2287 27.0636 80.4334 26.6767C80.7459 26.0393 81.0476 24.5028 80.9937 22.5111ZM77.9337 25.5385C77.5997 26.2442 77.0718 26.7222 76.3499 26.984C75.6495 27.2457 74.6691 27.3709 73.43 27.3823C73.1498 27.3596 72.8805 27.3482 72.6219 27.3482H58.6473C58.4534 27.3482 58.2918 27.1775 58.2918 26.9726V17.674H58.3025C58.3349 17.5032 58.4749 17.378 58.6473 17.378H73.1175C74.4536 17.378 75.5095 17.5374 76.2852 17.8561C77.061 18.1747 77.6105 18.6983 77.9337 19.4381C78.2677 20.1779 78.4294 21.2022 78.4294 22.5111C78.4401 23.8199 78.2677 24.8329 77.9337 25.5385Z" fill="black"/>
<path d="M29.16 10.0513V10.484C29.16 10.6889 28.9979 10.8597 28.8035 10.8597H26.902C26.8479 10.8597 26.7399 10.8369 26.6643 10.7458C26.6211 10.6889 26.6103 10.632 26.5886 10.484C26.5778 10.3701 26.5562 10.2221 26.5562 10.0513C26.4806 9.35672 26.2969 8.75324 26.0052 8.22947C25.6055 7.51214 24.9356 6.9656 23.9741 6.57846C23.0125 6.19133 21.7485 5.99776 20.1603 5.99776H9.23742C7.50878 5.99776 6.16909 6.20272 5.21833 6.62401C4.26758 7.0453 3.58693 7.75125 3.18718 8.75324C2.78743 9.75524 2.58216 11.1557 2.58216 12.9662V20.6177C2.58216 21.9499 2.701 23.043 2.92788 23.897C3.15477 24.751 3.53291 25.4341 4.0515 25.9351C4.57009 26.4361 5.23994 26.8005 6.07185 27.0168C6.90376 27.2332 7.96255 27.347 9.23742 27.347H25.0977C24.6655 28.2352 24.2226 29.1119 23.7904 30H9.20501C6.95778 30 5.16431 29.6926 3.84623 29.0891C2.51733 28.4743 1.55578 27.4951 0.950752 26.1401C0.345728 24.7851 0.032412 22.9405 0 20.6064V12.9548C0.032412 10.6206 0.345728 8.76463 0.950752 7.36412C1.55578 5.9636 2.52814 4.95023 3.86783 4.30121C5.20753 3.65219 6.99019 3.33337 9.21581 3.33337H20.1495C25.8432 3.34476 28.8467 5.57647 29.16 10.0513Z" fill="black"/>
<path d="M56.6697 32.0585L56.5333 31.7826C56.1451 30.9881 55.7464 30.2046 55.3583 29.41C54.9386 28.5492 54.5085 27.6995 54.0889 26.8387C50.2491 19.0918 46.4094 11.3338 42.5697 3.58681C42.0452 2.41704 40.9226 1.66663 39.6847 1.66663C38.4572 1.66663 37.3347 2.41704 36.7997 3.58681C32.9599 11.3338 29.1307 19.0918 25.291 26.8387C24.8714 27.6995 24.4412 28.5492 24.0216 29.41C23.6754 30.1052 23.3397 30.8005 22.9935 31.4847L22.8571 31.7716L22.8466 31.7937L22.7102 32.0696C22.6682 32.1579 22.6682 32.2682 22.7207 32.3565C22.7731 32.4448 22.8571 32.5 22.962 32.5H25.7106C25.8155 32.5 25.91 32.4337 25.9624 32.3455L26.0988 32.0585L26.2247 31.7937C26.2247 31.7826 26.2352 31.7716 26.2352 31.7716C26.6234 30.9881 27.0115 30.2046 27.3997 29.421C27.8193 28.5603 28.2495 27.7105 28.6691 26.8498C28.9838 26.2097 29.3091 25.5586 29.6238 24.9185C36.3276 24.9185 43.0418 24.9185 49.7456 24.9185C50.0603 25.5586 50.3855 26.2097 50.7003 26.8498C51.1199 27.7105 51.55 28.5603 51.9697 29.421C52.3578 30.1935 52.7355 30.9771 53.1237 31.7495C53.1237 31.7495 53.1237 31.7606 53.1342 31.7606L53.2811 32.0475L53.4279 32.3344C53.4804 32.4337 53.5748 32.4889 53.6797 32.4889H56.4179C56.5123 32.4889 56.6067 32.4337 56.6592 32.3455C56.7116 32.2682 56.7116 32.1579 56.6697 32.0585ZM31.1345 21.8507C33.8727 16.3218 36.6003 10.8041 39.3385 5.27525C39.4014 5.13179 39.5378 5.03247 39.6847 5.03247C39.8316 5.03247 39.9679 5.13179 40.0309 5.27525C42.769 10.8041 45.5072 16.3218 48.2349 21.8507H31.1345Z" fill="#FF731D"/>
<path d="M6.00516 37.0215C5.89774 37.099 5.77957 37.1544 5.62918 37.1987C5.47879 37.243 5.32839 37.2652 5.178 37.2652C4.97389 37.2652 4.80202 37.2319 4.65162 37.1655C4.50123 37.099 4.39381 36.9994 4.30787 36.8775C4.22193 36.7557 4.15747 36.6117 4.1145 36.4345C4.07153 36.2573 4.05005 36.069 4.05005 35.8586C4.05005 35.4045 4.14673 35.0612 4.34009 34.8175C4.53346 34.5739 4.8235 34.452 5.19949 34.452C5.39285 34.452 5.54324 34.4631 5.65067 34.4963C5.76883 34.5296 5.86551 34.5739 5.96219 34.6182L5.80106 35.183C5.72586 35.1387 5.63992 35.1165 5.56473 35.0944C5.48953 35.0722 5.40359 35.0612 5.29617 35.0612C5.11355 35.0612 4.97389 35.1276 4.87721 35.2494C4.78053 35.3713 4.73756 35.5817 4.73756 35.8475C4.73756 35.9583 4.7483 36.069 4.76979 36.1576C4.79127 36.2573 4.83424 36.3348 4.87721 36.4124C4.92018 36.4788 4.98464 36.5342 5.07058 36.5785C5.14577 36.6228 5.24245 36.6449 5.33914 36.6449C5.4573 36.6449 5.55398 36.6339 5.62918 36.6006C5.70438 36.5674 5.77957 36.5342 5.84403 36.4899L6.00516 37.0215Z" fill="black"/>
<path d="M8.47612 36.955C8.36869 37.0436 8.22904 37.1101 8.05716 37.1655C7.88528 37.2208 7.69192 37.2541 7.48782 37.2541C7.06886 37.2541 6.76808 37.1322 6.57471 36.8775C6.38135 36.6228 6.28467 36.2794 6.28467 35.8475C6.28467 35.3823 6.39209 35.0279 6.60694 34.7953C6.82179 34.5627 7.12257 34.4409 7.52004 34.4409C7.64895 34.4409 7.77786 34.4631 7.90677 34.4963C8.03568 34.5295 8.1431 34.5849 8.23978 34.6735C8.33646 34.751 8.41166 34.8618 8.47612 35.0058C8.54057 35.1497 8.56205 35.3159 8.56205 35.5263C8.56205 35.6038 8.56205 35.6814 8.55131 35.77C8.54057 35.8586 8.52983 35.9472 8.50834 36.0358H6.96144C6.97218 36.2573 7.02589 36.4234 7.13332 36.5452C7.23 36.656 7.40188 36.7114 7.62747 36.7114C7.76712 36.7114 7.89603 36.6892 8.00345 36.6449C8.11087 36.6006 8.19681 36.5563 8.26127 36.512L8.47612 36.955ZM7.52004 35.0058C7.34816 35.0058 7.21926 35.0611 7.13332 35.1719C7.04738 35.2826 7.00441 35.4266 6.98292 35.6038H7.939C7.94974 35.4155 7.92825 35.2605 7.85306 35.1608C7.77786 35.0501 7.67044 35.0058 7.52004 35.0058Z" fill="black"/>
<path d="M9.03467 34.5184H9.52882L9.60402 34.8396H9.61476C9.7007 34.7067 9.80812 34.607 9.93703 34.5406C10.0552 34.4741 10.2056 34.4409 10.3882 34.4409C10.7105 34.4409 10.9576 34.5517 11.1187 34.7621C11.2798 34.9725 11.3658 35.3159 11.3658 35.781C11.3658 36.0025 11.3443 36.213 11.2906 36.3902C11.2369 36.5674 11.1617 36.7224 11.065 36.8553C10.9683 36.9882 10.8394 37.0769 10.689 37.1433C10.5386 37.2098 10.3775 37.243 10.1841 37.243C10.0767 37.243 9.99074 37.2319 9.92629 37.2208C9.86183 37.2098 9.78664 37.1765 9.72218 37.1433V38.2287H9.05615V34.5184H9.03467ZM10.1841 35.039C10.0552 35.039 9.94777 35.0722 9.87258 35.1387C9.79738 35.2051 9.74367 35.3048 9.7007 35.4377V36.5452C9.74367 36.5895 9.79738 36.6117 9.86183 36.6338C9.91554 36.656 9.99074 36.6671 10.0874 36.6671C10.2808 36.6671 10.4204 36.6006 10.5171 36.4566C10.6138 36.3127 10.6568 36.0801 10.6568 35.7589C10.6568 35.5263 10.6138 35.3491 10.5386 35.2162C10.4741 35.0944 10.3452 35.039 10.1841 35.039Z" fill="black"/>
<path d="M11.8162 34.5294C11.9343 34.5183 12.0847 34.5073 12.2566 34.4962C12.4285 34.4851 12.6111 34.4851 12.8045 34.4851C13.1804 34.4851 13.449 34.5405 13.6101 34.6512C13.7713 34.762 13.8465 34.9281 13.8465 35.1496C13.8465 35.2715 13.8142 35.3933 13.739 35.5151C13.6746 35.6369 13.5672 35.7145 13.4168 35.7698V35.792C13.5994 35.8363 13.739 35.9138 13.8142 36.0135C13.9002 36.1243 13.9432 36.2572 13.9432 36.4344C13.9432 36.7002 13.8465 36.8995 13.6424 37.0324C13.449 37.1653 13.1267 37.2318 12.6863 37.2318C12.5466 37.2318 12.3855 37.2318 12.2244 37.2207C12.0632 37.2096 11.9236 37.1986 11.8054 37.1875V34.5294H11.8162ZM12.8259 35.6037C12.9334 35.6037 13.0301 35.5816 13.0945 35.5262C13.1697 35.4708 13.2019 35.4044 13.2019 35.3158C13.2019 35.2272 13.1697 35.1496 13.116 35.1053C13.0623 35.061 12.9441 35.0389 12.7937 35.0389C12.7185 35.0389 12.6541 35.0389 12.6004 35.0389C12.5574 35.0389 12.5144 35.05 12.4714 35.05V35.6037H12.8259ZM12.4714 36.6448C12.5144 36.6559 12.5681 36.6559 12.6004 36.6559C12.6433 36.6559 12.697 36.6559 12.7507 36.6559C12.9334 36.6559 13.073 36.6337 13.1482 36.5783C13.2234 36.523 13.2664 36.4454 13.2664 36.3347C13.2664 36.2461 13.2342 36.1686 13.1697 36.1132C13.1052 36.0578 12.9871 36.0246 12.8152 36.0246H12.4714V36.6448Z" fill="black"/>
<path d="M15.9739 35.9693L15.9954 35.5927H15.9847L15.7591 35.9804L14.846 37.1765H14.427V34.5184H15.093V35.781L15.0608 36.1465H15.0823L15.2971 35.7699L16.221 34.5184H16.6399V37.1765H15.9739V35.9693Z" fill="black"/>
<path d="M19.0569 37.0215C18.9495 37.099 18.8313 37.1544 18.6809 37.1987C18.5305 37.243 18.3802 37.2652 18.2298 37.2652C18.0257 37.2652 17.8538 37.2319 17.7034 37.1655C17.553 37.099 17.4456 36.9994 17.3596 36.8775C17.2737 36.7557 17.2092 36.6117 17.1663 36.4345C17.1233 36.2573 17.1018 36.069 17.1018 35.8586C17.1018 35.4045 17.1985 35.0612 17.3919 34.8175C17.5852 34.5739 17.8753 34.452 18.2512 34.452C18.4446 34.452 18.595 34.4631 18.7024 34.4963C18.8206 34.5296 18.9173 34.5739 19.014 34.6182L18.8528 35.183C18.7776 35.1387 18.6917 35.1165 18.6165 35.0944C18.5413 35.0722 18.4553 35.0612 18.3479 35.0612C18.1653 35.0612 18.0257 35.1276 17.929 35.2494C17.8323 35.3713 17.7893 35.5817 17.7893 35.8475C17.7893 35.9583 17.8001 36.069 17.8215 36.1576C17.843 36.2573 17.886 36.3348 17.929 36.4124C17.9719 36.4788 18.0364 36.5342 18.1223 36.5785C18.1975 36.6228 18.2942 36.6449 18.3909 36.6449C18.5091 36.6449 18.6057 36.6339 18.6809 36.6006C18.7561 36.5674 18.8313 36.5342 18.8958 36.4899L19.0569 37.0215Z" fill="black"/>
<path d="M22.2478 35.9693L22.2693 35.5927H22.2586L22.033 35.9804L21.1199 37.1765H20.7009V34.5184H21.367V35.781L21.3347 36.1465H21.3562L21.5711 35.7699L22.4949 34.5184H22.9139V37.1765H22.2478V35.9693Z" fill="black"/>
<path d="M24.804 34.6734C24.9436 34.607 25.1047 34.5627 25.2981 34.5184C25.4915 34.4852 25.6848 34.463 25.8889 34.463C26.0716 34.463 26.222 34.4852 26.3401 34.5295C26.4583 34.5738 26.555 34.6402 26.6302 34.7177C26.7054 34.7953 26.7483 34.895 26.7806 35.0057C26.8128 35.1165 26.8235 35.2494 26.8235 35.3933C26.8235 35.5484 26.8235 35.7035 26.8128 35.8585C26.8021 36.0136 26.7913 36.1686 26.7913 36.3237C26.7913 36.4787 26.7913 36.6227 26.8021 36.7667C26.8128 36.9107 26.8343 37.0436 26.8772 37.1765H26.3294L26.222 36.811H26.2005C26.136 36.9217 26.0393 37.0103 25.9104 37.0989C25.7815 37.1876 25.6311 37.2208 25.4378 37.2208C25.3196 37.2208 25.2122 37.1986 25.1155 37.1654C25.0188 37.1322 24.9329 37.0768 24.8684 37.0103C24.804 36.9439 24.7502 36.8553 24.7073 36.7667C24.6643 36.6781 24.6536 36.5673 24.6536 36.4455C24.6536 36.2794 24.6858 36.1465 24.761 36.0357C24.8362 35.925 24.9329 35.8364 25.0618 35.7699C25.1907 35.7035 25.3518 35.6481 25.5344 35.6259C25.7171 35.6038 25.9212 35.5927 26.1468 35.6038C26.1682 35.4044 26.1575 35.2604 26.1038 35.1718C26.0501 35.0832 25.9319 35.0389 25.76 35.0389C25.6311 35.0389 25.4807 35.05 25.3303 35.0832C25.1799 35.1165 25.0618 35.1497 24.9651 35.194L24.804 34.6734ZM25.6526 36.6559C25.7815 36.6559 25.8889 36.6227 25.9749 36.5673C26.0501 36.5009 26.1145 36.4344 26.1468 36.368V36.0246C26.0393 36.0136 25.9427 36.0136 25.8352 36.0246C25.7385 36.0357 25.6526 36.0468 25.5774 36.0689C25.5022 36.0911 25.4378 36.1243 25.3948 36.1797C25.3518 36.224 25.3303 36.2794 25.3303 36.3569C25.3303 36.4566 25.3626 36.5341 25.4163 36.5895C25.47 36.6449 25.5559 36.6559 25.6526 36.6559Z" fill="black"/>
<path d="M27.3716 34.5294C27.4897 34.5183 27.6401 34.5073 27.812 34.4962C27.9839 34.4851 28.1665 34.4851 28.3599 34.4851C28.7359 34.4851 29.0044 34.5405 29.1656 34.6512C29.3267 34.762 29.4019 34.9281 29.4019 35.1496C29.4019 35.2715 29.3697 35.3933 29.2945 35.5151C29.23 35.6369 29.1226 35.7145 28.9722 35.7698V35.792C29.1548 35.8363 29.2945 35.9138 29.3697 36.0135C29.4556 36.1243 29.4986 36.2572 29.4986 36.4344C29.4986 36.7002 29.4019 36.8995 29.1978 37.0324C29.0044 37.1653 28.6821 37.2318 28.2417 37.2318C28.1021 37.2318 27.9409 37.2318 27.7798 37.2207C27.6187 37.2096 27.479 37.1986 27.3608 37.1875V34.5294H27.3716ZM28.3814 35.6037C28.4888 35.6037 28.5855 35.5816 28.6499 35.5262C28.7251 35.4708 28.7573 35.4044 28.7573 35.3158C28.7573 35.2272 28.7251 35.1496 28.6714 35.1053C28.6177 35.061 28.4995 35.0389 28.3491 35.0389C28.2739 35.0389 28.2095 35.0389 28.1558 35.0389C28.1128 35.0389 28.0698 35.05 28.0269 35.05V35.6037H28.3814ZM28.0269 36.6448C28.0698 36.6559 28.1235 36.6559 28.1558 36.6559C28.1987 36.6559 28.2525 36.6559 28.3062 36.6559C28.4888 36.6559 28.6284 36.6337 28.7036 36.5783C28.7788 36.523 28.8218 36.4454 28.8218 36.3347C28.8218 36.2461 28.7896 36.1686 28.7251 36.1132C28.6607 36.0578 28.5425 36.0246 28.3706 36.0246H28.0269V36.6448Z" fill="black"/>
<path d="M31.8294 35.1386H31.0989V37.1875H30.4114V35.1386H29.6809V34.5294H31.8294V35.1386Z" fill="black"/>
<path d="M31.9692 35.8475C31.9692 35.3934 32.0767 35.0501 32.2915 34.8064C32.5064 34.5627 32.8071 34.4409 33.1939 34.4409C33.398 34.4409 33.5806 34.4741 33.731 34.5406C33.8814 34.607 34.0103 34.7067 34.107 34.8286C34.2037 34.9504 34.2789 35.0944 34.3326 35.2716C34.3863 35.4488 34.4078 35.6371 34.4078 35.8475C34.4078 36.3016 34.3003 36.6449 34.0855 36.8886C33.8706 37.1322 33.5806 37.2541 33.1939 37.2541C32.9898 37.2541 32.8071 37.2208 32.6568 37.1544C32.5064 37.0879 32.3774 36.9882 32.2808 36.8664C32.1841 36.7446 32.1089 36.6006 32.0552 36.4234C31.9907 36.2573 31.9692 36.0579 31.9692 35.8475ZM32.6568 35.8475C32.6568 35.9693 32.6675 36.069 32.689 36.1687C32.7105 36.2684 32.7427 36.357 32.7857 36.4345C32.8286 36.512 32.8823 36.5674 32.9468 36.6117C33.0113 36.656 33.0972 36.6781 33.1831 36.6781C33.355 36.6781 33.4839 36.6117 33.5699 36.4788C33.6558 36.3459 33.6988 36.1354 33.6988 35.8586C33.6988 35.6149 33.6558 35.4155 33.5806 35.2605C33.5054 35.1054 33.3657 35.039 33.1831 35.039C33.022 35.039 32.8931 35.1054 32.7964 35.2273C32.6997 35.3491 32.6568 35.5595 32.6568 35.8475Z" fill="black"/>
<path d="M37.0616 35.9693L37.1045 35.4155H37.0831L36.8789 35.8696L36.3955 36.6892H36.1485L35.6221 35.8696L35.4287 35.4155H35.3965L35.461 35.9582V37.1765H34.8594V34.5184H35.5576L36.1485 35.5152L36.2881 35.8475H36.3096L36.46 35.5041L37.0079 34.5184H37.7061V37.1765H37.0616V35.9693Z" fill="black"/>
<path d="M38.2749 34.6734C38.4146 34.607 38.5757 34.5627 38.7691 34.5184C38.9624 34.4852 39.1558 34.463 39.3599 34.463C39.5425 34.463 39.6929 34.4852 39.8111 34.5295C39.9292 34.5738 40.0259 34.6402 40.1011 34.7177C40.1763 34.7953 40.2193 34.895 40.2515 35.0057C40.2837 35.1165 40.2945 35.2494 40.2945 35.3933C40.2945 35.5484 40.2945 35.7035 40.2837 35.8585C40.273 36.0136 40.2622 36.1686 40.2622 36.3237C40.2622 36.4787 40.2622 36.6227 40.273 36.7667C40.2837 36.9107 40.3052 37.0436 40.3482 37.1765H39.8003L39.6929 36.811H39.6714C39.607 36.9217 39.5103 37.0103 39.3814 37.0989C39.2525 37.1876 39.1021 37.2208 38.9087 37.2208C38.7905 37.2208 38.6831 37.1986 38.5864 37.1654C38.4898 37.1322 38.4038 37.0768 38.3394 37.0103C38.2749 36.9439 38.2212 36.8553 38.1782 36.7667C38.1353 36.6781 38.1245 36.5673 38.1245 36.4455C38.1245 36.2794 38.1567 36.1465 38.2319 36.0357C38.3071 35.925 38.4038 35.8364 38.5327 35.7699C38.6616 35.7035 38.8228 35.6481 39.0054 35.6259C39.188 35.6038 39.3921 35.5927 39.6177 35.6038C39.6392 35.4044 39.6284 35.2604 39.5747 35.1718C39.521 35.0832 39.4029 35.0389 39.231 35.0389C39.1021 35.0389 38.9517 35.05 38.8013 35.0832C38.6509 35.1165 38.5327 35.1497 38.436 35.194L38.2749 34.6734ZM39.1236 36.6559C39.2525 36.6559 39.3599 36.6227 39.4458 36.5673C39.521 36.5009 39.5855 36.4344 39.6177 36.368V36.0246C39.5103 36.0136 39.4136 36.0136 39.3062 36.0246C39.2095 36.0357 39.1236 36.0468 39.0484 36.0689C38.9732 36.0911 38.9087 36.1243 38.8657 36.1797C38.8228 36.224 38.8013 36.2794 38.8013 36.3569C38.8013 36.4566 38.8335 36.5341 38.8872 36.5895C38.9409 36.6449 39.0269 36.6559 39.1236 36.6559Z" fill="black"/>
<path d="M42.7117 35.1386H41.9812V37.1875H41.2937V35.1386H40.5632V34.5294H42.7117V35.1386Z" fill="black"/>
<path d="M44.5591 35.9693L44.5806 35.5927H44.5699L44.3443 35.9804L43.4312 37.1765H43.0122V34.5184H43.6782V35.781L43.646 36.1465H43.6675L43.8823 35.7699L44.8062 34.5184H45.2252V37.1765H44.5591V35.9693Z" fill="black"/>
<path d="M46.0847 36.08V35.5927H46.3963C46.5144 35.5927 46.6111 35.5705 46.697 35.5152C46.7722 35.4709 46.8152 35.4044 46.8152 35.3158C46.8152 35.2161 46.783 35.1497 46.7078 35.1165C46.6433 35.0722 46.5359 35.05 46.3963 35.05C46.2673 35.05 46.1384 35.0722 46.0418 35.1054C45.9451 35.1386 45.8591 35.1829 45.7947 35.2161L45.655 34.6845C45.7625 34.6291 45.8914 34.5738 46.0632 34.5295C46.2351 34.4852 46.4177 34.463 46.6111 34.463C46.9119 34.463 47.1267 34.5184 47.2771 34.6291C47.4275 34.7399 47.492 34.906 47.492 35.1275C47.492 35.1829 47.4812 35.2494 47.4705 35.3158C47.4597 35.3823 47.4275 35.4376 47.3953 35.493C47.3631 35.5484 47.3201 35.6038 47.2664 35.6481C47.2127 35.6924 47.159 35.7256 47.0838 35.7478V35.7699C47.2664 35.8142 47.3953 35.8917 47.4705 35.9914C47.5457 36.0911 47.5887 36.2461 47.5887 36.4234C47.5887 36.5341 47.5672 36.6449 47.5242 36.7445C47.4812 36.8442 47.4168 36.9217 47.3201 36.9993C47.2342 37.0657 47.116 37.1322 46.9763 37.1654C46.8367 37.2097 46.6756 37.2318 46.4822 37.2318C46.2888 37.2318 46.1277 37.2097 45.988 37.1654C45.8484 37.1211 45.7302 37.0768 45.6443 37.0214L45.7839 36.4898C45.8591 36.5341 45.9558 36.5784 46.074 36.6006C46.1814 36.6338 46.3103 36.6449 46.45 36.6449C46.7615 36.6449 46.9226 36.5452 46.9226 36.3347C46.9226 36.2461 46.8797 36.1797 46.8045 36.1354C46.7185 36.0911 46.5681 36.0689 46.3533 36.0689H46.0847V36.08Z" fill="black"/>
<path d="M48.0293 34.6734C48.1689 34.607 48.3301 34.5627 48.5234 34.5184C48.7168 34.4852 48.9102 34.463 49.1143 34.463C49.2969 34.463 49.4473 34.4852 49.5655 34.5295C49.6836 34.5738 49.7803 34.6402 49.8555 34.7177C49.9307 34.7953 49.9737 34.895 50.0059 35.0057C50.0381 35.1165 50.0489 35.2494 50.0489 35.3933C50.0489 35.5484 50.0489 35.7035 50.0381 35.8585C50.0274 36.0136 50.0166 36.1686 50.0166 36.3237C50.0166 36.4787 50.0166 36.6227 50.0274 36.7667C50.0381 36.9107 50.0596 37.0436 50.1026 37.1765H49.5547L49.4473 36.811H49.4258C49.3613 36.9217 49.2647 37.0103 49.1358 37.0989C49.0069 37.1876 48.8565 37.2208 48.6631 37.2208C48.5449 37.2208 48.4375 37.1986 48.3408 37.1654C48.2441 37.1322 48.1582 37.0768 48.0938 37.0103C48.0293 36.9439 47.9756 36.8553 47.9326 36.7667C47.8896 36.6781 47.8789 36.5673 47.8789 36.4455C47.8789 36.2794 47.9111 36.1465 47.9863 36.0357C48.0615 35.925 48.1582 35.8364 48.2871 35.7699C48.416 35.7035 48.5772 35.6481 48.7598 35.6259C48.9424 35.6038 49.1465 35.5927 49.3721 35.6038C49.3936 35.4044 49.3828 35.2604 49.3291 35.1718C49.2754 35.0832 49.1572 35.0389 48.9854 35.0389C48.8565 35.0389 48.7061 35.05 48.5557 35.0832C48.4053 35.1165 48.2871 35.1497 48.1904 35.194L48.0293 34.6734ZM48.8779 36.6559C49.0069 36.6559 49.1143 36.6227 49.2002 36.5673C49.2754 36.5009 49.3399 36.4344 49.3721 36.368V36.0246C49.2647 36.0136 49.168 36.0136 49.0606 36.0246C48.9639 36.0357 48.8779 36.0468 48.8027 36.0689C48.7275 36.0911 48.6631 36.1243 48.6201 36.1797C48.5772 36.224 48.5557 36.2794 48.5557 36.3569C48.5557 36.4566 48.5879 36.5341 48.6416 36.5895C48.6953 36.6449 48.7813 36.6559 48.8779 36.6559Z" fill="black"/>
<path d="M53.1214 37.7857H52.6272L52.552 37.1765H50.6077V34.5184H51.2737V36.5674H52.0686V34.5184H52.7347V36.5674H53.1106V37.7857H53.1214Z" fill="black"/>
<path d="M55.033 35.9693L55.0545 35.5927H55.0437L54.8181 35.9804L53.905 37.1765H53.4861V34.5184H54.1521V35.781L54.1199 36.1465H54.1414L54.3562 35.7699L55.2801 34.5184H55.699V37.1765H55.033V35.9693Z" fill="black"/>
<path d="M57.6543 36.1797L57.3428 36.2461L56.8487 37.1875H56.0537L56.5586 36.3569L56.8164 36.1575C56.6445 36.1243 56.5049 36.0468 56.3975 35.9139C56.29 35.781 56.2363 35.6038 56.2363 35.4044C56.2363 35.0832 56.3438 34.8396 56.5479 34.6956C56.752 34.5405 57.0742 34.463 57.5039 34.463C57.6651 34.463 57.8262 34.4741 57.9659 34.4852C58.1055 34.5073 58.2344 34.5184 58.3418 34.5405V37.1875H57.6758V36.1797H57.6543ZM57.6543 35.8142V35.0832C57.6114 35.0611 57.5791 35.05 57.5254 35.05C57.4717 35.05 57.4395 35.0389 57.3965 35.0389C57.2461 35.0389 57.1172 35.0722 57.0313 35.1386C56.9453 35.2051 56.9024 35.3047 56.9024 35.4376C56.9024 35.5705 56.9453 35.6702 57.042 35.7367C57.1387 35.8031 57.2783 35.8253 57.461 35.8253L57.6543 35.8142Z" fill="black"/>
<path d="M60.6299 35.0279C60.7266 34.8728 60.8447 34.7621 60.9844 34.6956C61.124 34.6292 61.2852 34.596 61.4785 34.596C61.7901 34.596 62.0371 34.6956 62.2198 34.895C62.4024 35.0944 62.4991 35.3934 62.4991 35.8143C62.4991 36.2905 62.3916 36.656 62.1875 36.8996C61.9727 37.1433 61.6826 37.2762 61.2959 37.2762C60.8985 37.2762 60.5977 37.1433 60.3828 36.8664C60.168 36.5895 60.0713 36.1687 60.0713 35.5927C60.0713 35.2826 60.0928 35.0279 60.125 34.8064C60.1572 34.5849 60.2109 34.4077 60.2754 34.2637C60.3398 34.1197 60.415 33.9979 60.501 33.9093C60.5869 33.8207 60.6836 33.7542 60.791 33.6989C60.8985 33.6435 61.0166 33.6103 61.1348 33.5881C61.2637 33.566 61.3926 33.5438 61.5215 33.5327C61.7041 33.5106 61.8545 33.4884 61.9834 33.4663C62.1123 33.4441 62.209 33.3998 62.2627 33.3334L62.2842 33.9425C62.2198 34.009 62.1123 34.0533 61.9942 34.0754C61.8653 34.0976 61.6934 34.1197 61.4785 34.1419C61.3496 34.1529 61.2315 34.164 61.1348 34.1862C61.0381 34.2083 60.9522 34.2526 60.877 34.3191C60.8018 34.3855 60.7481 34.4741 60.7051 34.5849C60.6621 34.6956 60.6299 34.8507 60.6084 35.039H60.6299V35.0279ZM60.7588 35.8807C60.7588 36.1022 60.8018 36.2905 60.8877 36.4455C60.9736 36.6006 61.1026 36.6671 61.2852 36.6671C61.4678 36.6671 61.6075 36.6006 61.6826 36.4677C61.7686 36.3348 61.8008 36.1354 61.8008 35.8807C61.8008 35.6481 61.7578 35.4709 61.6826 35.3491C61.6075 35.2273 61.4785 35.1608 61.3067 35.1608C61.1133 35.1608 60.9736 35.2273 60.8877 35.3491C60.8018 35.482 60.7588 35.6592 60.7588 35.8807Z" fill="black"/>
<path d="M64.5081 35.9693L64.5296 35.5927H64.5188L64.2932 35.9804L63.3801 37.1765H62.9612V34.5184H63.6272V35.781L63.595 36.1465H63.6165L63.8313 35.7699L64.7552 34.5184H65.1741V37.1765H64.5081V35.9693Z" fill="black"/>
<path d="M66.0442 36.08V35.5927H66.3557C66.4739 35.5927 66.5706 35.5705 66.6565 35.5152C66.7317 35.4709 66.7747 35.4044 66.7747 35.3158C66.7747 35.2161 66.7425 35.1497 66.6673 35.1165C66.6028 35.0722 66.4954 35.05 66.3557 35.05C66.2268 35.05 66.0979 35.0722 66.0012 35.1054C65.9045 35.1386 65.8186 35.1829 65.7541 35.2161L65.6145 34.6845C65.7219 34.6291 65.8508 34.5738 66.0227 34.5295C66.1946 34.4852 66.3772 34.463 66.5706 34.463C66.8714 34.463 67.0862 34.5184 67.2366 34.6291C67.387 34.7399 67.4515 34.906 67.4515 35.1275C67.4515 35.1829 67.4407 35.2494 67.43 35.3158C67.4192 35.3823 67.387 35.4376 67.3548 35.493C67.3225 35.5484 67.2796 35.6038 67.2259 35.6481C67.1721 35.6924 67.1184 35.7256 67.0432 35.7478V35.7699C67.2259 35.8142 67.3548 35.8917 67.43 35.9914C67.5052 36.0911 67.5481 36.2461 67.5481 36.4234C67.5481 36.5341 67.5267 36.6449 67.4837 36.7445C67.4407 36.8442 67.3763 36.9217 67.2796 36.9993C67.1936 37.0657 67.0755 37.1322 66.9358 37.1654C66.7962 37.2097 66.635 37.2318 66.4417 37.2318C66.2483 37.2318 66.0872 37.2097 65.9475 37.1654C65.8079 37.1211 65.6897 37.0768 65.6038 37.0214L65.7434 36.4898C65.8186 36.5341 65.9153 36.5784 66.0335 36.6006C66.1409 36.6338 66.2698 36.6449 66.4094 36.6449C66.721 36.6449 66.8821 36.5452 66.8821 36.3347C66.8821 36.2461 66.8391 36.1797 66.7639 36.1354C66.678 36.0911 66.5276 36.0689 66.3128 36.0689H66.0442V36.08Z" fill="black"/>
<path d="M69.5142 36.1353H68.6763V37.1875H68.0103V34.5294H68.6763V35.5262H69.5142V34.5294H70.1802V37.1875H69.5142V36.1353Z" fill="black"/>
<path d="M72.8335 36.955C72.7261 37.0436 72.5865 37.1101 72.4146 37.1655C72.2427 37.2208 72.0493 37.2541 71.8452 37.2541C71.4263 37.2541 71.1255 37.1322 70.9321 36.8775C70.7388 36.6228 70.6421 36.2794 70.6421 35.8475C70.6421 35.3823 70.7495 35.0279 70.9644 34.7953C71.1792 34.5627 71.48 34.4409 71.8775 34.4409C72.0064 34.4409 72.1353 34.4631 72.2642 34.4963C72.3931 34.5295 72.5005 34.5849 72.5972 34.6735C72.6939 34.751 72.7691 34.8618 72.8335 35.0058C72.898 35.1497 72.9195 35.3159 72.9195 35.5263C72.9195 35.6038 72.9195 35.6814 72.9087 35.77C72.898 35.8586 72.8873 35.9472 72.8658 36.0358H71.3189C71.3296 36.2573 71.3833 36.4234 71.4907 36.5452C71.5874 36.656 71.7593 36.7114 71.9849 36.7114C72.1245 36.7114 72.2535 36.6892 72.3609 36.6449C72.4683 36.6006 72.5542 36.5563 72.6187 36.512L72.8335 36.955ZM71.8775 35.0058C71.7056 35.0058 71.5767 35.0611 71.4907 35.1719C71.4048 35.2826 71.3618 35.4266 71.3403 35.6038H72.2964C72.3072 35.4155 72.2857 35.2605 72.2105 35.1608C72.1353 35.0501 72.0279 35.0058 71.8775 35.0058Z" fill="black"/>
<path d="M75.1861 37.0215C75.0787 37.099 74.9605 37.1544 74.8101 37.1987C74.6597 37.243 74.5093 37.2652 74.3589 37.2652C74.1548 37.2652 73.9829 37.2319 73.8325 37.1655C73.6821 37.099 73.5747 36.9994 73.4888 36.8775C73.4028 36.7557 73.3384 36.6117 73.2954 36.4345C73.2524 36.2573 73.231 36.069 73.231 35.8586C73.231 35.4045 73.3276 35.0612 73.521 34.8175C73.7144 34.5739 74.0044 34.452 74.3804 34.452C74.5738 34.452 74.7242 34.4631 74.8316 34.4963C74.9497 34.5296 75.0464 34.5739 75.1431 34.6182L74.982 35.183C74.9068 35.1387 74.8208 35.1165 74.7456 35.0944C74.6704 35.0722 74.5845 35.0612 74.4771 35.0612C74.2945 35.0612 74.1548 35.1276 74.0581 35.2494C73.9614 35.3713 73.9185 35.5817 73.9185 35.8475C73.9185 35.9583 73.9292 36.069 73.9507 36.1576C73.9722 36.2573 74.0152 36.3348 74.0581 36.4124C74.1011 36.4788 74.1655 36.5342 74.2515 36.5785C74.3267 36.6228 74.4234 36.6449 74.52 36.6449C74.6382 36.6449 74.7349 36.6339 74.8101 36.6006C74.8853 36.5674 74.9605 36.5342 75.0249 36.4899L75.1861 37.0215Z" fill="black"/>
<path d="M75.5837 34.6734C75.7234 34.607 75.8845 34.5627 76.0779 34.5184C76.2713 34.4852 76.4646 34.463 76.6687 34.463C76.8513 34.463 77.0017 34.4852 77.1199 34.5295C77.2381 34.5738 77.3348 34.6402 77.4099 34.7177C77.4851 34.7953 77.5281 34.895 77.5603 35.0057C77.5926 35.1165 77.6033 35.2494 77.6033 35.3933C77.6033 35.5484 77.6033 35.7035 77.5926 35.8585C77.5818 36.0136 77.5711 36.1686 77.5711 36.3237C77.5711 36.4787 77.5711 36.6227 77.5818 36.7667C77.5926 36.9107 77.6141 37.0436 77.657 37.1765H77.1092L77.0017 36.811H76.9695C76.9051 36.9217 76.8084 37.0103 76.6795 37.0989C76.5506 37.1876 76.4002 37.2208 76.2068 37.2208C76.0886 37.2208 75.9812 37.1986 75.8845 37.1654C75.7879 37.1322 75.7019 37.0768 75.6375 37.0103C75.573 36.9439 75.5193 36.8553 75.4763 36.7667C75.4333 36.6781 75.4226 36.5673 75.4226 36.4455C75.4226 36.2794 75.4548 36.1465 75.53 36.0357C75.6052 35.925 75.7019 35.8364 75.8308 35.7699C75.9597 35.7035 76.1209 35.6481 76.3035 35.6259C76.4861 35.6038 76.6902 35.5927 76.9158 35.6038C76.9373 35.4044 76.9265 35.2604 76.8728 35.1718C76.8191 35.0832 76.701 35.0389 76.5291 35.0389C76.4002 35.0389 76.2498 35.05 76.0994 35.0832C75.949 35.1165 75.8308 35.1497 75.7341 35.194L75.5837 34.6734ZM76.4324 36.6559C76.5613 36.6559 76.6687 36.6227 76.7547 36.5673C76.8299 36.5009 76.8943 36.4344 76.9265 36.368V36.0246C76.8191 36.0136 76.7224 36.0136 76.615 36.0246C76.5183 36.0357 76.4324 36.0468 76.3572 36.0689C76.282 36.0911 76.2175 36.1243 76.1746 36.1797C76.1316 36.224 76.1101 36.2794 76.1101 36.3569C76.1101 36.4566 76.1423 36.5341 76.1961 36.5895C76.2498 36.6449 76.325 36.6559 76.4324 36.6559Z" fill="black"/>
</g>
<defs>
<clipPath id="clip0_862_1215">
<rect width="81" height="40" fill="white"/>
</clipPath>
</defs>
</svg>
