<svg width="27" height="30" viewBox="0 0 27 30" fill="none" xmlns="http://www.w3.org/2000/svg">
<path d="M9.05863 25.0903C8.77056 25.0903 8.48897 25.1757 8.24945 25.3357C8.00993 25.4957 7.82325 25.7231 7.71301 25.9891C7.60277 26.2552 7.57393 26.5479 7.63013 26.8304C7.68633 27.1128 7.82504 27.3723 8.02874 27.5759C8.23243 27.7795 8.49195 27.9182 8.77448 27.9744C9.05701 28.0306 9.34986 28.0017 9.616 27.8915C9.88213 27.7813 10.1096 27.5947 10.2696 27.3553C10.4297 27.1158 10.5151 26.8343 10.5151 26.5463C10.5151 26.1602 10.3617 25.7898 10.0885 25.5167C9.81537 25.2437 9.44491 25.0903 9.05863 25.0903Z" fill="#666666"/>
<path d="M7.02486 3.94199H11.1012C11.2308 3.94199 11.355 3.89054 11.4466 3.79897C11.5382 3.70739 11.5897 3.58319 11.5897 3.45368C11.5874 3.32572 11.5349 3.20378 11.4435 3.11412C11.3522 3.02445 11.2293 2.97423 11.1012 2.97425H7.02486C6.96114 2.97307 6.89782 2.9846 6.83861 3.00816C6.7794 3.03173 6.72547 3.06686 6.68 3.11149C6.63452 3.15613 6.5984 3.20938 6.57374 3.26814C6.54909 3.32689 6.5364 3.38997 6.53641 3.45368C6.53641 3.58319 6.58787 3.70739 6.67947 3.79897C6.77108 3.89054 6.89532 3.94199 7.02486 3.94199Z" fill="#666666"/>
<path d="M17.6377 9.69518C17.7657 9.6952 17.8886 9.64497 17.9799 9.55531C18.0713 9.46564 18.1238 9.34371 18.1261 9.21574V3.12519C18.1238 2.29705 17.7937 1.50351 17.2079 0.917933C16.6222 0.332355 15.8284 0.00234267 15 0L3.12611 0C2.29773 0.00234267 1.50396 0.332355 0.918205 0.917933C0.332453 1.50351 0.00234337 2.29705 0 3.12519L0 26.8748C0.00234337 27.7029 0.332453 28.4965 0.918205 29.0821C1.50396 29.6676 2.29773 29.9977 3.12611 30H15C15.8284 29.9977 16.6222 29.6676 17.2079 29.0821C17.7937 28.4965 18.1238 27.7029 18.1261 26.8748V20.7843C18.1238 20.6563 18.0713 20.5344 17.9799 20.4447C17.8886 20.355 17.7657 20.3048 17.6377 20.3048C17.5105 20.3048 17.3885 20.3553 17.2985 20.4452C17.2086 20.5352 17.1581 20.6571 17.1581 20.7843V23.0838H0.968028V6.90737H17.1581V9.21574C17.1581 9.3429 17.2086 9.46484 17.2985 9.55475C17.3885 9.64466 17.5105 9.69518 17.6377 9.69518ZM17.1581 24.0604V26.8748C17.1581 27.447 16.9307 27.9958 16.526 28.4004C16.1213 28.805 15.5724 29.0323 15 29.0323H3.12611C2.55375 29.0323 2.00483 28.805 1.60012 28.4004C1.1954 27.9958 0.968028 27.447 0.968028 26.8748V24.0604H17.1581ZM0.968028 5.93963V3.12519C0.968028 2.553 1.1954 2.00424 1.60012 1.59964C2.00483 1.19504 2.55375 0.967742 3.12611 0.967742H15C15.5724 0.967742 16.1213 1.19504 16.526 1.59964C16.9307 2.00424 17.1581 2.553 17.1581 3.12519V5.93963H0.968028Z" fill="#666666"/>
<path d="M26.6201 17.6141H14.6592C14.5584 17.6141 14.4617 17.653 14.3905 17.7223C14.3192 17.7916 14.2792 17.8856 14.2792 17.9836V18.6678L10.9442 15.0414L14.2792 11.4151V12.0993C14.2792 12.1973 14.3192 12.2913 14.3905 12.3606C14.4617 12.4299 14.5584 12.4688 14.6592 12.4688H26.6201C26.7208 12.4688 26.8175 12.4299 26.8887 12.3606C26.96 12.2913 27 12.1973 27 12.0993C27 12.0007 26.9602 11.906 26.8892 11.8356C26.8181 11.7652 26.7215 11.7248 26.6201 11.723H15.025V10.4161C15.0341 10.3329 15.0144 10.2491 14.9691 10.178C14.9237 10.1068 14.8552 10.0524 14.7745 10.0234C14.6938 9.99434 14.6054 9.99229 14.5233 10.0176C14.4413 10.0429 14.3702 10.094 14.3214 10.163L10.0999 14.7678C10.0357 14.8359 10 14.925 10 15.0175C10 15.11 10.0357 15.1991 10.0999 15.2672L14.3214 19.8652C14.3559 19.9053 14.3989 19.9377 14.4475 19.9601C14.4961 19.9826 14.5491 19.9945 14.6029 19.9952C14.6495 20.0016 14.6969 20.0016 14.7436 19.9952C14.8164 19.9685 14.8791 19.9208 14.9232 19.8584C14.9672 19.796 14.9905 19.7219 14.9898 19.6462V18.3599H26.6201C26.7215 18.3581 26.8181 18.3177 26.8892 18.2473C26.9602 18.1769 27 18.0822 27 17.9836C27 17.8856 26.96 17.7916 26.8887 17.7223C26.8175 17.653 26.7208 17.6141 26.6201 17.6141Z" fill="#666666"/>
</svg>
