<svg xmlns="http://www.w3.org/2000/svg" viewBox="0 0 537.34 523.38"><defs><style>.cls-1{fill:#e9eff5;}.cls-2{fill:#a5b7c6;}.cls-3{fill:#bf5616;}.cls-4{fill:#ff731d;}.cls-5{fill:#444065;}.cls-6{fill:#813f20;}.cls-7{fill:#5c2c17;}.cls-8{fill:#2b283d;}.cls-9{fill:#ffc999;}.cls-10{fill:#aee4f7;}.cls-11{fill:#3a3757;}.cls-12{fill:#99c8d9;}.cls-13{fill:#e6b58c;}.cls-14{fill:#3a3652;}.cls-15{fill:#d1a57f;}.cls-16{fill:#633424;}.cls-17{fill:#dbb08a;}.cls-18{fill:#fcffff;}.cls-19{fill:#783e2b;}.cls-20{fill:#81503a;}.cls-21{fill:#688455;}.cls-22{fill:#a84e4e;}.cls-23{fill:#c66a6a;}.cls-24{fill:#79a360;}.cls-25{fill:#e2e9f2;}.cls-26{fill:#b5d9ea;}.cls-27{fill:#93cce2;}.cls-28{fill:#eaeaea;}.cls-29{fill:#ffbe69;}.cls-30{fill:#fcb259;}.cls-31{fill:#f48914;}.cls-32{fill:#693640;}</style></defs><title>lunch-break</title><g id="Слой_2" data-name="Слой 2"><g id="Слой_7" data-name="Слой 7"><ellipse class="cls-1" cx="267.15" cy="492.49" rx="267.15" ry="30.88"/><path class="cls-2" d="M471.71,352.59H436.05c-5,0-8.8-4.11-8-8.65l10.43-60.27a8,8,0,0,1,8-6.3h35.67c5,0,8.79,4.11,8,8.65l-10.44,60.27A7.94,7.94,0,0,1,471.71,352.59Z"/><path class="cls-3" d="M500.64,312.13H430.1a16.05,16.05,0,0,1-15.85-18.57L434.9,164.15a16,16,0,0,1,15.84-13.52h70.55a16,16,0,0,1,15.84,18.57L516.49,298.61A16,16,0,0,1,500.64,312.13Z"/><path class="cls-4" d="M489,312.13H418.41a16.05,16.05,0,0,1-15.85-18.57l20.65-129.41a16,16,0,0,1,15.84-13.52H509.6a16,16,0,0,1,15.84,18.57L504.8,298.61A16,16,0,0,1,489,312.13Z"/><path class="cls-2" d="M416.82,458.45h0a5.17,5.17,0,0,1-5.16-5.16V377a5.17,5.17,0,0,1,5.16-5.16h0A5.17,5.17,0,0,1,422,377v76.3A5.17,5.17,0,0,1,416.82,458.45Z"/><path class="cls-2" d="M441.1,375.6H392.53a22.25,22.25,0,0,1-22.19-22.19h0a22.25,22.25,0,0,1,22.19-22.19H441.1a22.25,22.25,0,0,1,22.19,22.19h0A22.25,22.25,0,0,1,441.1,375.6Z"/><path class="cls-3" d="M508,358.44H385.43a15.13,15.13,0,0,1-15.09-15.09h0a15.13,15.13,0,0,1,15.09-15.09H508A15.13,15.13,0,0,1,523,343.35h0A15.13,15.13,0,0,1,508,358.44Z"/><path class="cls-4" d="M423.32,358.44H324.41a15.13,15.13,0,0,1-15.09-15.09h0a15.13,15.13,0,0,1,15.09-15.09h98.91a15.13,15.13,0,0,1,15.09,15.09h0A15.13,15.13,0,0,1,423.32,358.44Z"/><path class="cls-2" d="M464.9,459.71H368.73a4.19,4.19,0,0,1-4.17-4.17h0a4.19,4.19,0,0,1,4.17-4.18H464.9a4.19,4.19,0,0,1,4.17,4.18h0A4.19,4.19,0,0,1,464.9,459.71Z"/><path class="cls-5" d="M383.35,470.15a10.45,10.45,0,1,1-10.44-10.44A10.44,10.44,0,0,1,383.35,470.15Z"/><path class="cls-5" d="M470.78,470.15a10.45,10.45,0,1,1-10.45-10.44A10.45,10.45,0,0,1,470.78,470.15Z"/><path class="cls-5" d="M416.82,480.6h0a8.28,8.28,0,0,1-8.26-8.25V468a8.28,8.28,0,0,1,8.26-8.25h0a8.27,8.27,0,0,1,8.25,8.25v4.39A8.27,8.27,0,0,1,416.82,480.6Z"/><path class="cls-6" d="M311.46,459.29a11.41,11.41,0,0,0-2.21-3.15c-2.52-2.53-8-6.7-15.53-4.85-13.42,3.31-21.49,13-29.62,16.91-6.89,3.31-8.35,7.43-6.71,13a4,4,0,0,0,3.77,3c4.88.08,16.17-.69,33.53-7.68C314.68,468.41,313.55,463.64,311.46,459.29Z"/><path class="cls-7" d="M312.55,463.08c-3.23,2.59-9,5.7-18.72,9.54-18.28,7.23-30.16,8.07-35.32,8a3.91,3.91,0,0,1-1.32-.24c.06.26.13.51.2.77a5.87,5.87,0,0,0,.24.63,4.1,4.1,0,0,0,.73,1.08,4.37,4.37,0,0,0,1,.78,3.88,3.88,0,0,0,1.81.48c4.88.08,16.16-.71,33.53-7.68C309.15,470.63,312.56,466.55,312.55,463.08Z"/><path class="cls-7" d="M285,454.4a5.06,5.06,0,0,1,2.5.19,5.9,5.9,0,0,1,2.23,1.29,6.79,6.79,0,0,1,.86,1,5.07,5.07,0,0,1,.57,1.17,4.87,4.87,0,0,1,.25,2.5,21.64,21.64,0,0,0-1.15-2.06,8.32,8.32,0,0,0-1.4-1.66A15,15,0,0,0,285,454.4Z"/><path class="cls-7" d="M282.05,456a4.62,4.62,0,0,1,2.09.52,6.11,6.11,0,0,1,1.75,1.33,5.24,5.24,0,0,1,1.11,1.91,4.33,4.33,0,0,1,.14,2.17c-.4-.63-.68-1.21-1.05-1.74a11.3,11.3,0,0,0-1.16-1.48A31.77,31.77,0,0,0,282.05,456Z"/><path class="cls-7" d="M276.71,459.54a3.15,3.15,0,0,1,1.92-.1,4.39,4.39,0,0,1,3,2.38,3.9,3.9,0,0,1,.41,1.87c-.48-.46-.84-.91-1.24-1.3a12.21,12.21,0,0,0-1.19-1.1,12,12,0,0,0-1.33-.92C277.8,460.09,277.29,459.82,276.71,459.54Z"/><path class="cls-8" d="M285.52,458a255,255,0,0,1-5.5-26.2c-1.42-8.61-2.6-17.22-3.56-25.91s-1.7-17.42-2-26.44c-.15-4.52-.2-9.09.07-14,.09-1.26.13-2.44.28-3.77l.21-2,.43-2.67a35.75,35.75,0,0,1,3.3-10.35c.44-.8,1-1.53,1.4-2.34l1.75-2.1c1.19-1.39,2.43-2.76,3.71-4.08a29,29,0,0,1,3.8-3.33l3.33-2.63a112,112,0,0,1,13-7.95A211.9,211.9,0,0,1,331.35,313c8.51-3.11,17-5.88,25.56-8.37s16.9-4.7,26.08-6.75l7,43.48c-7.54.77-15.88,2-23.77,3.3s-15.87,2.95-23.58,4.79a178.52,178.52,0,0,0-22,6.65,82.5,82.5,0,0,0-9.31,4.19c-3,1.92-3.39,1.78-4.37,2.7-1.08-.2-2.65,9.56-3.18,17-.65,7.94-.91,16.17-1,24.41s.13,16.54.53,24.79a239.52,239.52,0,0,0,2.16,24.06Z"/><path class="cls-6" d="M365,469.67a11.9,11.9,0,0,0-2.29-3.24c-2.59-2.61-8.24-6.92-16-5-13.84,3.41-22.17,13.41-30.57,17.44-7.11,3.42-8.61,7.67-6.92,13.38a4.18,4.18,0,0,0,3.89,3.07c5,.07,16.68-.72,34.6-7.93C368.33,479.09,367.16,474.17,365,469.67Z"/><path class="cls-7" d="M366.13,473.59c-3.33,2.68-9.31,5.89-19.32,9.85-18.86,7.46-31.12,8.33-36.44,8.26a4.15,4.15,0,0,1-1.37-.24c.07.26.13.52.21.79a4.6,4.6,0,0,0,.25.65,4.25,4.25,0,0,0,1.77,1.91,3.91,3.91,0,0,0,1.87.51c5,.07,16.68-.74,34.6-7.93C362.62,481.39,366.14,477.17,366.13,473.59Z"/><path class="cls-7" d="M337.73,464.63a5.26,5.26,0,0,1,2.58.2,6.06,6.06,0,0,1,2.3,1.33,6.64,6.64,0,0,1,.89,1,5.64,5.64,0,0,1,.59,1.21,5,5,0,0,1,.25,2.58,22.14,22.14,0,0,0-1.18-2.13,8.21,8.21,0,0,0-1.45-1.71A15.18,15.18,0,0,0,337.73,464.63Z"/><path class="cls-7" d="M334.65,466.31a4.65,4.65,0,0,1,2.17.54,6.07,6.07,0,0,1,1.8,1.36,5.24,5.24,0,0,1,1.14,2,4.13,4.13,0,0,1,.14,2.23c-.4-.65-.69-1.25-1.08-1.79a11.82,11.82,0,0,0-1.19-1.53A31.26,31.26,0,0,0,334.65,466.31Z"/><path class="cls-7" d="M329.15,469.93a3.35,3.35,0,0,1,2-.1,4.44,4.44,0,0,1,1.83.88,4.57,4.57,0,0,1,1.25,1.58,3.81,3.81,0,0,1,.42,1.93c-.49-.47-.86-.93-1.27-1.34a12.85,12.85,0,0,0-1.23-1.13,11.11,11.11,0,0,0-1.37-.95C330.27,470.5,329.75,470.23,329.15,469.93Z"/><path class="cls-8" d="M338.56,468.28c-2.42-8.65-4-16.86-5.5-25.22s-2.65-16.67-3.61-25.11-1.67-16.93-1.83-25.82a118.6,118.6,0,0,1,.49-14c.17-1.35.25-2.43.55-4a48.12,48.12,0,0,1,1.22-5.16,34.08,34.08,0,0,1,1.87-4.86,39,39,0,0,1,2.76-4.43c1.22-1.53,2.59-3.13,3.79-4.42,1-1.09,2-2.17,3.07-3.18A81,81,0,0,1,363,336.87a67.67,67.67,0,0,1,17.86-5.73c3.84-.55,4.9-.87,6.83-1.25a26.7,26.7,0,0,0,5.11-1.27c1.48-.58,3.3-.88,4.39-1.64s2.66-1.15,3.37-1.92a16.41,16.41,0,0,1,1.36-.93,9.58,9.58,0,0,1,.83-1l.46-.42.21-.48c.12-.31.4-.51.49-.81a10.18,10.18,0,0,0,.57-3.92,13.73,13.73,0,0,0-.3-2.77c0-.48-.25-1-.34-1.43-.09-.24-.42-1.29-.21-.33l42-13.14a45,45,0,0,1,1.27,6.5c.18,1.86.41,3.68.41,5.52a53.78,53.78,0,0,1-.75,11.18,50,50,0,0,1-9.26,22,52.24,52.24,0,0,1-4,4.54l-2.1,2.15L429,353.49c-1.51,1.18-3.05,2.34-4.6,3.41l-4.71,2.55a65,65,0,0,1-18.4,6,57.63,57.63,0,0,1-8.65,1.12c-2.69.22-6.25.53-7,.49a31.4,31.4,0,0,0-9,1.71,45.9,45.9,0,0,0-9.25,4.36,48.36,48.36,0,0,0-4.34,3c-.71.52-1.35,1.08-2,1.62l-.94.72a3.77,3.77,0,0,0-1.16,1.4l-.36.76c-.17.38-.36,1.34-.54,2a87.5,87.5,0,0,0-1.54,10.49c-.71,7.5-.92,15.42-.94,23.32.08,15.75.82,32.22,3.12,47.16Z"/><path class="cls-8" d="M342.8,300.43c.45,23.88,22.88,42.92,50.11,42.92s49.66-19,50.11-42.92c.46-24.31-22-44.35-50.11-44.35S342.34,276.12,342.8,300.43Z"/><rect class="cls-9" x="255.07" y="261.79" width="17.33" height="15.32" transform="translate(15.77 553.48) rotate(-94.49)"/><rect class="cls-10" x="257.29" y="262.63" width="22.28" height="13.12" transform="translate(21.08 557.87) rotate(-94.49)"/><path class="cls-11" d="M265.05,255.13c19.07-5.34,40.61-15,50-28.52,12.1-17,21.33-37,28.17-57.66,2.7-8.19,10.69-13.2,18.48-11.44s12.2,11.33,9.15,20.54c-7.63,22.88-17.68,45.1-32.18,65.55-.77,1.2-2.15,2.79-3.27,4.19a38.87,38.87,0,0,1-3.66,4.06,82,82,0,0,1-7.8,7,121.76,121.76,0,0,1-16.6,10.72,171,171,0,0,1-17.23,7.85c-2.92,1.14-5.84,2.19-8.82,3.17s-5.78,1.85-9.32,2.77Z"/><path class="cls-11" d="M377.63,303.61l-3.76,11.9c-34.14-2.15-38.73-4.62-38.73-4.62-1.59-61.78,5.5-117.85,9-141.41a27.83,27.83,0,0,1,13.2-20,69.16,69.16,0,0,1,36.81-9.67s25.82-2,48.11,17.93a1013.21,1013.21,0,0,1,8.35,153.15s-27.33,4.37-69.58,4.61Z"/><path class="cls-8" d="M408.64,147.16s8.95,25.42,8,41.07c0,0-9,2.18-13.36,4.54a52.74,52.74,0,0,0,6.62,11.64s-18.43,23.2-29.75,40.18L380,207.32S383.46,162.19,408.64,147.16Z"/><path class="cls-8" d="M380.13,244.59s-18.56-32.46-22.25-41.1l3.32-12.35s-6.41-2-8.8-1.89c0,0,2.47-29.59,11.34-42L380,207.17Z"/><path class="cls-12" d="M408,149.76s-14.58,10.16-27.33,59.2c0,0-15.95-40.8-14.8-52.24S408,149.76,408,149.76Z"/><path class="cls-9" d="M403.05,143.21c.63,4.45-1.94,6.31-6.18,7.76a28.57,28.57,0,0,1-17,.43c-4.56-1.31-7.49-3.27-6.82-8l1.7-12h26.64Z"/><path class="cls-13" d="M373.08,143.12l1.66-11.64h26.64l.92,6.42A88.2,88.2,0,0,1,373.08,143.12Z"/><path class="cls-4" d="M380,160.63l5.89,3.43a213,213,0,0,0,.77,25c-.3.85-.59,1.72-.88,2.61l-.42,1.3c-.3.93-.61,1.88-.91,2.86-.09.31-.19.64-.29.95-.28.92-.56,1.85-.84,2.8l-.27.91c-.33,1.17-.67,2.37-1,3.59l-.24.85c-.35,1.3-.71,2.63-1.06,4,0,0-4.44-11.36-8.47-23.77C376.29,174.59,380,160.63,380,160.63Z"/><path class="cls-3" d="M377.76,149.76h14.32s1,10.29-10.83,18C381.25,167.75,374.84,157.62,377.76,149.76Z"/><path class="cls-10" d="M402,135.49,412.9,142s-3.7,8.2-12.63,19.63c0,0-8.5-10.84-17.47-11.85C382.8,149.76,396.83,143.92,402,135.49Z"/><path class="cls-10" d="M373.73,138.57l-10.24,7.72s-2.08,3.8,1.84,15.32c0,0,8.5-10.84,17.47-11.85C382.8,149.76,374.83,146.59,373.73,138.57Z"/><path class="cls-14" d="M415.76,264.25c14.76-.43,28.69-1.72,28.69-1.72s1.46,8.54,0,13.6a216.68,216.68,0,0,1-28.12.87S414.33,273.72,415.76,264.25Z"/><path class="cls-14" d="M338.09,263c5.41.41,14.11,1,23.13,1.26,1.43,9.47-.57,12.75-.57,12.75a208.79,208.79,0,0,1-23-.43Q337.83,269.67,338.09,263Z"/><path class="cls-9" d="M255.42,261.41s-9.47-1.23-20.29-3-31.44,4.77-31,10.63,6.83,3.43,14.18.38,26.06-2.12,25.11,2.77-9.66.71-12.56,3.44,4.45,7,15.85,4.86,10.82-3.09,10.82-3.09S260.37,263.36,255.42,261.41Z"/><polygon class="cls-9" points="359.86 262.99 360.66 276.07 377.76 277.49 376.4 260.21 359.86 262.99"/><rect class="cls-10" x="363" y="262.63" width="22.28" height="13.12" transform="translate(135.08 663.27) rotate(-94.49)"/><path class="cls-5" d="M371.15,255a181,181,0,0,0,30.29-9.94,83.8,83.8,0,0,0,13-7,36.34,36.34,0,0,0,4.94-3.88,19.9,19.9,0,0,0,1.85-2l1.71-2.4c1.38-1.46,1.88-3.45,2.89-5.14s1.22-3.87,2-5.78a51.92,51.92,0,0,0,.91-13.3c-.49-9.4-3.11-19.45-7-29.09-3-7.66-.59-16.5,6.25-20.66s16.93.16,20.74,9.8c4.77,11.88,8.31,24.58,9.09,38.43a81.27,81.27,0,0,1-1.62,21.35c-1.12,3.59-2,7.26-3.57,10.73s-3.14,7-5.58,10.05l-3.41,4.65a47.38,47.38,0,0,1-4.07,4.37,64.53,64.53,0,0,1-8.7,6.93,112.06,112.06,0,0,1-17.6,9.57c-5.88,2.58-11.77,4.77-17.69,6.7s-11.66,3.57-18.19,5.07Z"/><path class="cls-9" d="M332.39,265.15s-1.64-3.71.94-6.27,11.1,2.58,13.64,4.83Z"/><path class="cls-9" d="M358.24,277.57a5.36,5.36,0,0,0,6.45-5.69c-.34-4.2-1.37-9.42-4.41-10.11,0,0-9.56.24-20.52.17s-30.34,9.52-29,15.23,7.27,2.35,14.06-1.78,21.17-4,25.25-1.11A30,30,0,0,0,358.24,277.57Z"/><path class="cls-9" d="M421.8,66.11s5-14.79,16-9.84c9.82,4.44,5.06,39.76-11.5,31.64Z"/><path class="cls-13" d="M425,67.17s3.41-11.83,11.23-7.74c7,3.67,3.52,29.45-8.32,22.75Z"/><path class="cls-9" d="M433.16,71.81c.21,1.82-1.39,3.48-3.56,3.73s-4.09-1-4.29-2.86,1.39-3.48,3.56-3.72S433,70,433.16,71.81Z"/><path class="cls-15" d="M434.93,60.5c4.29,2.24,5.15,12.9,2.16,19.22,3.79-6,3.7-17.89-.89-20.29a5.93,5.93,0,0,0-7.59,1.22A5.77,5.77,0,0,1,434.93,60.5Z"/><path class="cls-13" d="M319.05,76.05c8.74-8.23,18.31,4.13,18.31,4.13l2.82,22.07C327.15,115.3,311.19,83.43,319.05,76.05Z"/><path class="cls-9" d="M327.08,48.11c-1.59,9.35-1.5,21.79-1.8,33.6-.3,11.45-.61,49.31,36.31,57s65.42-17.4,68.1-42.45C432.71,68,426.27,52,417,35.51c-12.15-21.64-32.62-26.23-52.81-23.08C344.78,15.46,330.36,27.61,327.08,48.11Z"/><path class="cls-16" d="M328.36,38.08s4,24.14-2.67,56.84C325.69,94.92,314.2,53.33,328.36,38.08Z"/><path class="cls-17" d="M371,81.15s.69,11-11.3,16.94c0,0,5.82,7.06,14.78,4,0,0-2.37-.61-5.61-4.41C368.82,97.68,374.77,91.49,371,81.15Z"/><path class="cls-16" d="M379.41,55.26a16.9,16.9,0,0,1,5.38-3.89,18.25,18.25,0,0,1,6.54-1.76,13.88,13.88,0,0,1,6.78,1.24c.51.27,1,.52,1.52.81L401,52.73a6.64,6.64,0,0,1,.63.56c.18.21.37.42.54.64.36.44.7.88,1,1.33-.51-.25-1-.51-1.46-.77l-.68-.4c-.23-.12-.49-.2-.73-.31l-1.42-.61c-.5-.13-1-.29-1.46-.43a18.62,18.62,0,0,0-5.9-.56,31.75,31.75,0,0,0-6,1.07C383.49,53.81,381.48,54.48,379.41,55.26Z"/><path class="cls-16" d="M354.45,62.22a36.41,36.41,0,0,0-4.55-2,15,15,0,0,0-4.44-.83,11.15,11.15,0,0,0-4.38.73,17.78,17.78,0,0,0-2.21.91c-.74.34-1.43.81-2.27,1.16a12.78,12.78,0,0,1,1.51-2.17,10.19,10.19,0,0,1,2.08-1.72,9.19,9.19,0,0,1,5.33-1.49,10.47,10.47,0,0,1,5.25,1.59A10.36,10.36,0,0,1,354.45,62.22Z"/><path class="cls-18" d="M379.9,79.94s-1.39-18.89,11.94-21.11,16.9,16.3,16.9,16.3S395.92,84.28,379.9,79.94Z"/><path class="cls-16" d="M379.9,79.94a28.35,28.35,0,0,1-.17-6.64,24.41,24.41,0,0,1,1.49-6.58A15.27,15.27,0,0,1,385.06,61,13.14,13.14,0,0,1,388,59a14.93,14.93,0,0,1,3.37-1.1,12.59,12.59,0,0,1,7,.62,13.45,13.45,0,0,1,5.49,4.28,22.36,22.36,0,0,1,3.26,5.91,27.54,27.54,0,0,1,1.59,6.45,40.12,40.12,0,0,0-2.52-6,24.59,24.59,0,0,0-3.56-5.3,16.69,16.69,0,0,0-2.3-2.08,11.21,11.21,0,0,0-2.67-1.41,10.85,10.85,0,0,0-5.93-.41,12.42,12.42,0,0,0-2.89.89,12.27,12.27,0,0,0-2.53,1.63,14.44,14.44,0,0,0-3.64,4.94,26.62,26.62,0,0,0-2,6.09A42.35,42.35,0,0,0,379.9,79.94Z"/><path class="cls-16" d="M386.84,69.07c-1.08.18-1.86,1.37-2.17,3l1.62,1.62-1.71,1.16c0,.26.06.52.1.79.56,3.36,2.44,5.85,4.19,5.55S391.59,78,391,74.62,388.59,68.77,386.84,69.07Z"/><path class="cls-18" d="M334.66,85.52s-1.61-17.27,10.6-19.31,15.43,14.93,15.43,14.93S349.19,89.39,334.66,85.52Z"/><path class="cls-16" d="M334.66,85.52a25.53,25.53,0,0,1-.31-6.06,21.66,21.66,0,0,1,1.24-6,13.65,13.65,0,0,1,3.46-5.34,12,12,0,0,1,2.71-1.83,13.76,13.76,0,0,1,3.11-1,11.68,11.68,0,0,1,6.45.6,12.49,12.49,0,0,1,5,4,20.08,20.08,0,0,1,2.95,5.43,24.83,24.83,0,0,1,1.41,5.91,38.3,38.3,0,0,0-2.33-5.5,23,23,0,0,0-3.26-4.81A16.22,16.22,0,0,0,353,68.94a10,10,0,0,0-2.41-1.28,9.76,9.76,0,0,0-5.36-.39,11.32,11.32,0,0,0-2.62.79,11,11,0,0,0-2.28,1.47,12.81,12.81,0,0,0-3.27,4.5,24.27,24.27,0,0,0-1.72,5.56A38.87,38.87,0,0,0,334.66,85.52Z"/><path class="cls-16" d="M340.27,75.55c-1,.16-1.7,1.25-2,2.78l.82,1.59-.91,1c0,.24.06.48.1.72.51,3.07,2.22,5.34,3.82,5.08s2.49-3,2-6S341.87,75.28,340.27,75.55Z"/><path class="cls-16" d="M430.37,79.05s-18.87-12.93-18.8-41.94c0,0-5.32-7-19.55-.92-16.5,7-66.4,30.28-93.19-4.66,0,0,6.79-5.17,11.05-6.33a9.76,9.76,0,0,0-7.14-1.51,25.73,25.73,0,0,1,12.45-5.44,7.36,7.36,0,0,0-4.18-1.1S348.54-6.8,393,1.91a40.3,40.3,0,0,1,28.74,22.56C427,35.85,431.58,53.35,430.37,79.05Z"/><path class="cls-19" d="M302.74,23.69a25.73,25.73,0,0,1,12.45-5.44,7.36,7.36,0,0,0-4.18-1.1s40.44-25.81,87-14.1a32.57,32.57,0,0,1,20,15l.29.53c-6.56,7-15.19,12.32-23.56,16.52-.88.3-1.8.64-2.77,1a229.52,229.52,0,0,1-23.89,9.18l-10.88,2.85c-19.95,4.25-43,3.41-58.42-16.69,0,0,6.79-5.17,11.05-6.33A9.76,9.76,0,0,0,302.74,23.69Z"/><path class="cls-18" d="M375.29,114s13.41-1.14,26.09-15.84c0,0,6.46,14.3-1.19,20.51C389.65,127.18,375.29,114,375.29,114Z"/><path class="cls-2" d="M370.46,278.56H177.56a3.8,3.8,0,0,1-3.78-3.79h0a3.79,3.79,0,0,1,3.78-3.78h192.9a3.79,3.79,0,0,1,3.78,3.78h0A3.8,3.8,0,0,1,370.46,278.56Z"/><rect class="cls-20" x="396.73" y="297.08" width="9.16" height="193.14"/><rect class="cls-16" x="405.89" y="297.08" width="8.41" height="193.14" transform="translate(820.2 787.3) rotate(180)"/><rect class="cls-20" x="482.53" y="297.08" width="9.16" height="193.14"/><rect class="cls-16" x="491.7" y="297.08" width="8.41" height="193.14" transform="translate(991.8 787.3) rotate(180)"/><path class="cls-20" d="M423.39,278.56H33.33a9.26,9.26,0,0,0-9.27,9.26h0a9.27,9.27,0,0,0,9.27,9.26H423.39a9.26,9.26,0,0,0,9.26-9.26h0A9.25,9.25,0,0,0,423.39,278.56Z"/><path class="cls-16" d="M410.58,278.56h94.3a9.26,9.26,0,0,1,9.27,9.26h0a9.27,9.27,0,0,1-9.27,9.26h-94.3a9.27,9.27,0,0,1-9.27-9.26h0A9.26,9.26,0,0,1,410.58,278.56Z"/><rect class="cls-20" x="36.73" y="297.08" width="9.16" height="193.14"/><rect class="cls-16" x="45.89" y="297.08" width="8.41" height="193.14" transform="translate(100.2 787.3) rotate(180)"/><rect class="cls-20" x="122.53" y="297.08" width="9.16" height="193.14"/><rect class="cls-16" x="131.7" y="297.08" width="8.41" height="193.14" transform="translate(271.8 787.3) rotate(180)"/><path class="cls-21" d="M70.79,262.33,62,259.21c-1.22-.43-2.69-1.23-2.57-2.55a16.66,16.66,0,0,1,9.86,0c.85.26,2.1.38,2.3-.51.13-.57-.35-1.07-.57-1.61-.56-1.35.7-2.9,2.11-3.16a6.76,6.76,0,0,1,4.1,1,7.92,7.92,0,0,0,4.07,1.2c2.18-.2,3.72-2.18,5.34-3.7,2.68-2.52,6.11-4,9.46-5.48a3.07,3.07,0,0,1,1.61-.36,2.56,2.56,0,0,1,1.09.52c2.53,1.87,3.79,5.27,6.54,6.78a1.82,1.82,0,0,0,1,.29,2.23,2.23,0,0,0,1.17-.7,27,27,0,0,1,10.6-6,2.17,2.17,0,0,1,2,.12c.61.52.53,1.48.41,2.28l-.87,5.34a28.25,28.25,0,0,1,9.37-3.68c.63-.12,1.43-.14,1.72.45.18.37.06.87.29,1.21a1.19,1.19,0,0,0,.93.39c1.66.13,3.32-.31,5-.23s3.51.89,4,2.54-.51,3.13-1.63,4.24c-3.72,3.68-9.31,4.36-14.47,4.6a94,94,0,0,1-20.94-1"/><path class="cls-22" d="M109.77,255.27c-1.72-1.91-4.37-2.42-6.7-3.08a15.47,15.47,0,0,0-4.74-.51,6.38,6.38,0,0,0-3.26.85,3.15,3.15,0,0,0-1.49,2.93,4.4,4.4,0,0,0,2,2.68c3.79,2.8,8.93,4.22,13.19,2.26a3.78,3.78,0,0,0,1.55-1.15A3.34,3.34,0,0,0,109.77,255.27Z"/><path class="cls-23" d="M96.77,256.16l.48.1a3.88,3.88,0,0,0,.59,0c.33,0,.65,0,1,0a7.31,7.31,0,0,0,1-.06l.45-.07.49-.08-.23,0,0,0-.14-.23s-.18.19-.23.23l-.29.28a1.59,1.59,0,0,0-.53.65.27.27,0,0,0,.34.33,1.5,1.5,0,0,0,.6-.52c.18-.19.37-.38.53-.58a.53.53,0,0,0,.06-.62c-.15-.24-.52-.28-.77-.34a5.14,5.14,0,0,0-1.7-.15l-.83.07a2.54,2.54,0,0,0-.47.07l-.41.17a.4.4,0,0,0-.28.37.38.38,0,0,0,.28.36Z"/><path class="cls-23" d="M101.73,256.19a1.43,1.43,0,0,0-.21.43,1.11,1.11,0,0,0,0,.48.63.63,0,0,0,.19.4.39.39,0,0,0,.19.12.37.37,0,0,0,.23.05l.16,0a.61.61,0,0,0,.26-.15.66.66,0,0,0,.16-.28v0l0-.08s0-.05,0-.07a1,1,0,0,0,0-.24l0,.17a.86.86,0,0,1,.06-.23l-.06.15,0-.06a.48.48,0,0,0,.07-.23.56.56,0,0,0-.12-.46.55.55,0,0,0-.18-.16l-.15-.06a.62.62,0,0,0-.33,0L102,256a.66.66,0,0,0-.22.22Z"/><path class="cls-23" d="M102,259.28c.09,0,.18.08.27.1a2.25,2.25,0,0,0,.36.06,1.45,1.45,0,0,0,.36,0,1.17,1.17,0,0,0,.27,0l.14-.06a.59.59,0,0,0,.2-.12.38.38,0,0,0,.13-.26.47.47,0,0,0-.22-.47l-.12-.07a.82.82,0,0,0-.26-.1,1.87,1.87,0,0,0-.41-.09h-.29c-.15,0-.29,0-.43.07l-.12.05a.44.44,0,0,0-.14.13.45.45,0,0,0-.11.31.48.48,0,0,0,.07.26.53.53,0,0,0,.3.23Z"/><path class="cls-23" d="M103.72,256.69l1.38,1.15.67.56.34.29a.64.64,0,0,0,.4.22.19.19,0,0,0,.17-.23c0-.15-.16-.23-.28-.32l-.34-.28-.68-.56L104,256.39c-.21-.17-.51.12-.3.3Z"/><path class="cls-23" d="M104.22,255.82l1.88.8.92.4.46.19a.73.73,0,0,0,.32.09.62.62,0,0,0,.26-.09.26.26,0,0,0,.16-.37.65.65,0,0,0-.38-.38l-.47-.19-1-.37-1.9-.73c-.38-.15-.65.49-.28.65Z"/><path class="cls-23" d="M104.91,254a5.76,5.76,0,0,0-.89.46l-.18.12a.73.73,0,0,0-.22.21.37.37,0,0,0-.05.18.44.44,0,0,0,0,.34.28.28,0,0,0,.24.13l.16,0h0a.49.49,0,0,0,.28-.09,1.14,1.14,0,0,0,.15-.16,2.83,2.83,0,0,1,.25-.24l.12-.11,0,0s-.06.05,0,0l.07-.05.29-.2a.31.31,0,0,0,.13-.38.3.3,0,0,0-.36-.18Z"/><path class="cls-23" d="M99.1,254.12l.38.07a.29.29,0,0,0,.16,0,.3.3,0,0,0,.16,0l.08-.06A.38.38,0,0,0,100,254a.43.43,0,0,0,0-.11.29.29,0,0,0,0-.16l0-.1a.4.4,0,0,0-.14-.15l-.34-.17a.44.44,0,0,0-.24-.07l-.12,0a.45.45,0,0,0-.21.12.29.29,0,0,0-.09.15.27.27,0,0,0,0,.18.3.3,0,0,0,0,.18.4.4,0,0,0,.09.15.72.72,0,0,0,.21.12Z"/><path class="cls-22" d="M152,255.48c-1.72-1.91-4.37-2.42-6.7-3.07a15.45,15.45,0,0,0-4.74-.52,6.38,6.38,0,0,0-3.26.85,3.17,3.17,0,0,0-1.49,2.93,4.4,4.4,0,0,0,2,2.68c3.79,2.8,8.93,4.22,13.19,2.26a3.78,3.78,0,0,0,1.55-1.15A3.33,3.33,0,0,0,152,255.48Z"/><path class="cls-23" d="M139,256.38l.48.09a3.9,3.9,0,0,0,.59,0c.33,0,.65,0,1,0a6.05,6.05,0,0,0,1-.06c.15,0,.3-.05.46-.06l.48-.09-.23,0,0,0-.14-.24c0,.05-.18.19-.23.23l-.29.28a1.75,1.75,0,0,0-.53.65.28.28,0,0,0,.34.34,1.51,1.51,0,0,0,.6-.52c.18-.2.37-.39.53-.59a.53.53,0,0,0,.06-.62c-.15-.24-.52-.28-.77-.34a5.4,5.4,0,0,0-1.7-.15l-.82.07a2.53,2.53,0,0,0-.48.07l-.41.17a.41.41,0,0,0-.28.37.4.4,0,0,0,.28.37Z"/><path class="cls-23" d="M143.91,256.41a1.5,1.5,0,0,0-.21.42,1.11,1.11,0,0,0,0,.48.61.61,0,0,0,.19.4.44.44,0,0,0,.19.12.37.37,0,0,0,.23.05l.16,0a.61.61,0,0,0,.26-.15.55.55,0,0,0,.17-.28v0s0-.05,0-.08l0-.07a1,1,0,0,0,0-.24l0,.17a2,2,0,0,1,.07-.23l-.07.15,0-.06a.45.45,0,0,0,.07-.23.43.43,0,0,0,0-.25.53.53,0,0,0-.11-.21.4.4,0,0,0-.18-.16l-.14-.06a.65.65,0,0,0-.34,0l-.14.06a.63.63,0,0,0-.23.23Z"/><path class="cls-23" d="M144.18,259.49a1.48,1.48,0,0,0,.27.1l.37.07a2.17,2.17,0,0,0,.36,0,1.17,1.17,0,0,0,.26,0l.14-.06a.55.55,0,0,0,.21-.12.42.42,0,0,0,.12-.26.47.47,0,0,0-.22-.47l-.12-.07a1.09,1.09,0,0,0-.25-.1,2.1,2.1,0,0,0-.42-.09h-.29a3.18,3.18,0,0,0-.43.06l-.12.06a.29.29,0,0,0-.14.13.41.41,0,0,0-.11.3.59.59,0,0,0,.07.26.5.5,0,0,0,.3.23Z"/><path class="cls-23" d="M145.9,256.9l1.38,1.15.68.57.33.28c.13.1.23.22.4.22a.17.17,0,0,0,.17-.23c0-.15-.16-.23-.27-.32l-.34-.28-.68-.56-1.37-1.13c-.2-.17-.51.13-.3.3Z"/><path class="cls-23" d="M146.4,256l1.88.8.93.39.46.19a.69.69,0,0,0,.31.09.84.84,0,0,0,.27-.08.27.27,0,0,0,.15-.38.62.62,0,0,0-.38-.38c-.15-.07-.31-.12-.46-.18l-1-.38-1.91-.73c-.37-.15-.65.5-.28.66Z"/><path class="cls-23" d="M147.09,254.21a6.25,6.25,0,0,0-.89.46l-.18.13a.69.69,0,0,0-.22.2.59.59,0,0,0-.05.19.42.42,0,0,0,0,.33.28.28,0,0,0,.24.13l.16,0h0a.47.47,0,0,0,.28-.09,1.14,1.14,0,0,0,.16-.15,1.88,1.88,0,0,1,.24-.25l.12-.1,0,0s0,.05,0,0L147,255a2.23,2.23,0,0,1,.3-.2.3.3,0,0,0,.12-.38.3.3,0,0,0-.36-.18Z"/><path class="cls-23" d="M141.28,254.33l.38.08a.33.33,0,0,0,.17,0,.3.3,0,0,0,.15,0l.08-.06a.38.38,0,0,0,.09-.13.2.2,0,0,0,0-.11.29.29,0,0,0,0-.16l0-.1a.54.54,0,0,0-.15-.15l-.34-.17a.48.48,0,0,0-.24-.07l-.12,0a.45.45,0,0,0-.21.12.38.38,0,0,0-.09.15.42.42,0,0,0,0,.36.38.38,0,0,0,.09.15.45.45,0,0,0,.21.12Z"/><path class="cls-24" d="M71.62,268.46a14.87,14.87,0,0,1-8.25-3.6,2.64,2.64,0,0,1-1.07-1.69c-.1-1.43,1.68-2.1,3.07-2.19a25.94,25.94,0,0,1,12.07,2.1l-1-3a12.37,12.37,0,0,1,3.79.15c1-3.3-.75-7.24,1.05-10.15,1.33-2.16,4.22-2.84,6.64-2.23a15.86,15.86,0,0,1,6.34,3.9,94.24,94.24,0,0,1,8.22,8.14c1.39-2.09,2-4.66,3.41-6.71s4.39-3.44,6.34-1.89c2.44,1.93,1,6.26,2.88,8.79,1.18-2,2.57-4.12,4.75-4.7s5,1.71,3.93,3.77a31.86,31.86,0,0,1,22.36-11.18,3.44,3.44,0,0,1,2.3.46c1.38,1.08.62,3.32-.24,4.87l-4.31,7.65c2.16-1.07,4.46-2.17,6.84-1.92s4.74,2.45,4.28,4.86c-.39,2.08-2.51,3.25-4.39,4.12A68.35,68.35,0,0,1,137.28,273c-9.46,2.15-19.29.16-29,.37-7.65.16-15.59,1.67-22.74-1.12l1.05-1"/><path class="cls-22" d="M83.79,255.41c-2.23-1.23-4.91-.83-7.32-.68a15.54,15.54,0,0,0-4.64,1.09A6.32,6.32,0,0,0,69,257.71a3.18,3.18,0,0,0-.49,3.27,4.25,4.25,0,0,0,2.73,1.86c4.47,1.4,9.78,1,13.19-2.24a3.81,3.81,0,0,0,1.1-1.61A3.29,3.29,0,0,0,83.79,255.41Z"/><path class="cls-23" d="M71.85,260.57a4.33,4.33,0,0,0,.5-.08,3.9,3.9,0,0,0,.48-.17c.3-.11.6-.21.91-.3a6.11,6.11,0,0,0,1-.39l.42-.22c.14-.07.28-.16.43-.23l-.15,0h0l-.24-.13c0-.06,0,0,0,0s-.07.13-.1.18l-.21.41a1.7,1.7,0,0,0-.32.82c0,.19.23.37.41.24a1.78,1.78,0,0,0,.44-.75,4.93,4.93,0,0,0,.32-.76.55.55,0,0,0,0-.31.41.41,0,0,0,0-.09c0-.05,0,0,0,0s-.09-.14-.11-.16c-.22-.2-.59-.1-.85-.08a6.91,6.91,0,0,0-.91.15,5.31,5.31,0,0,0-.84.31l-.75.34a2.38,2.38,0,0,0-.41.23l-.33.3a.38.38,0,0,0-.06.46.4.4,0,0,0,.43.18Z"/><path class="cls-23" d="M76.48,258.91a.75.75,0,0,0,0,.16,1.09,1.09,0,0,0,0,.31.61.61,0,0,0,0,.24l.09.22,0,.06a.59.59,0,0,0,.13.18l.12.1.15.06.16,0a.59.59,0,0,0,.23-.05.35.35,0,0,0,.13-.08.29.29,0,0,0,.11-.11.33.33,0,0,0,.07-.13.46.46,0,0,0,.06-.23.28.28,0,0,0,0-.09s0-.06,0-.09v0l0,.16a.66.66,0,0,1,0-.14.63.63,0,0,0,0-.23s0-.05,0-.08l0,.18a1,1,0,0,1,0-.25l0,.16h0a.42.42,0,0,0,0-.25.48.48,0,0,0-.07-.23.52.52,0,0,0-.16-.17.42.42,0,0,0-.22-.11l-.16,0a.62.62,0,0,0-.32.09l-.12.1a.57.57,0,0,0-.16.27Z"/><path class="cls-23" d="M77.67,261.79h.15a1,1,0,0,0,.29,0l.29,0a1.45,1.45,0,0,0,.26-.11l.13-.06a.83.83,0,0,0,.22-.14l.1-.09a.47.47,0,0,0-.2-.78l-.13,0a1.27,1.27,0,0,0-.27,0h-.15a1.26,1.26,0,0,0-.28,0l-.28.1a2.25,2.25,0,0,0-.38.19.51.51,0,0,0,.25,1Z"/><path class="cls-23" d="M78.55,258.78l1.65.62.82.32.42.15a.56.56,0,0,0,.4.07.18.18,0,0,0,.11-.26.55.55,0,0,0-.34-.21l-.41-.16-.86-.31-1.68-.63c-.25-.09-.36.31-.11.41Z"/><path class="cls-23" d="M78.79,257.79l2,.13,1,.06c.18,0,.36,0,.53,0a.58.58,0,0,0,.29-.06,1.54,1.54,0,0,0,.19-.17.25.25,0,0,0,0-.36.65.65,0,0,0-.48-.26h-.53l-1,0-2-.06c-.47,0-.46.69,0,.72Z"/><path class="cls-23" d="M78.74,255.86a5.77,5.77,0,0,0-.78.86l-.08.12a.48.48,0,0,0-.06.37.57.57,0,0,0,.11.28.29.29,0,0,0,.27.06.51.51,0,0,0,.15-.07.75.75,0,0,0,.17-.1.69.69,0,0,0,.15-.28l0,.1a4.66,4.66,0,0,1,.25-.5,1.88,1.88,0,0,1,.16-.23.86.86,0,0,1,.07-.1c0,.07,0,0,0,0l0-.06a.36.36,0,0,0,.09-.22.29.29,0,0,0-.09-.22.31.31,0,0,0-.43,0Z"/><path class="cls-23" d="M73.42,257.85l.38-.05.09,0a.32.32,0,0,0,.12-.11.13.13,0,0,0,0-.09.29.29,0,0,0,0-.16l0-.11,0-.09a.29.29,0,0,0-.1-.12.27.27,0,0,0-.14-.07l-.38-.05a.33.33,0,0,0-.24,0,.53.53,0,0,0-.21.11l-.07.1a.48.48,0,0,0-.07.23.34.34,0,0,0,0,.18.31.31,0,0,0,.1.15.45.45,0,0,0,.21.12.49.49,0,0,0,.24,0Z"/><path class="cls-22" d="M135.28,256c-1.89-1.74-4.58-2-6.95-2.43a15.2,15.2,0,0,0-4.76-.07,6.25,6.25,0,0,0-3.17,1.15,3.14,3.14,0,0,0-1.23,3.06,4.3,4.3,0,0,0,2.22,2.47c4,2.44,9.27,3.38,13.34,1a3.8,3.8,0,0,0,1.44-1.29A3.33,3.33,0,0,0,135.28,256Z"/><path class="cls-23" d="M122.48,258.12a4.18,4.18,0,0,0,.51.06l.45-.05c.33,0,.67-.06,1-.08a6.06,6.06,0,0,0,1-.15l.46-.11.45-.12h-.13l-.19-.19c0-.05,0-.07,0,0l-.14.17-.27.31c-.17.2-.43.41-.48.68a.28.28,0,0,0,.4.32c.25-.11.41-.42.57-.63a5.44,5.44,0,0,0,.45-.62.51.51,0,0,0-.06-.61,1.43,1.43,0,0,0-.76-.22,6.52,6.52,0,0,0-.88-.07,5.49,5.49,0,0,0-.9.09l-.81.14a3.18,3.18,0,0,0-.86.35.38.38,0,0,0,.2.7Z"/><path class="cls-23" d="M127.38,257.63a1.55,1.55,0,0,0-.14.29.57.57,0,0,0,0,.14.53.53,0,0,0,0,.21,1.36,1.36,0,0,0,0,.2.17.17,0,0,1,0,.07.25.25,0,0,1,0,.07.85.85,0,0,0,.09.22l.09.12.13.09.14.06a.39.39,0,0,0,.24,0,.28.28,0,0,0,.15,0,.26.26,0,0,0,.13-.08.27.27,0,0,0,.11-.1.53.53,0,0,0,.11-.21h0l0-.16v0a.43.43,0,0,1,0-.05l0,.16a.39.39,0,0,1,0-.14,1.53,1.53,0,0,0,0-.3l0,.17a.9.9,0,0,1,.06-.22.52.52,0,0,0,0-.25.49.49,0,0,0-.08-.23l-.09-.12a.39.39,0,0,0-.21-.13.27.27,0,0,0-.15-.05.52.52,0,0,0-.25,0l-.15.06a.58.58,0,0,0-.22.22Z"/><path class="cls-23" d="M127.85,260.72a2.05,2.05,0,0,0,.43.09,2.58,2.58,0,0,0,.29,0,1.35,1.35,0,0,0,.28,0l.14,0a.84.84,0,0,0,.25-.09l.12-.06a.46.46,0,0,0,0-.8l-.12-.07a1.21,1.21,0,0,0-.25-.08l-.13,0a1,1,0,0,0-.29,0,2.58,2.58,0,0,0-.29,0,1.16,1.16,0,0,0-.28.05l-.15,0a.51.51,0,0,0,0,1Z"/><path class="cls-23" d="M129.41,258l1.45,1,.72.5.37.25a.59.59,0,0,0,.38.18.18.18,0,0,0,.18-.22c0-.16-.17-.22-.3-.31l-.37-.25-.74-.5c-.49-.34-1-.68-1.48-1-.22-.16-.43.21-.21.36Z"/><path class="cls-23" d="M129.86,257.1l1.95.63,1,.31c.16,0,.32.11.49.15a.68.68,0,0,0,.52-.1.27.27,0,0,0,.09-.35.74.74,0,0,0-.14-.22.56.56,0,0,0-.25-.14c-.16-.06-.33-.09-.49-.14l-1-.28-2-.55a.36.36,0,0,0-.19.69Z"/><path class="cls-23" d="M130.27,255.22a5.4,5.4,0,0,0-1,.67l-.11.1a.45.45,0,0,0-.12.29v.06c0,.15,0,.3.16.37a.5.5,0,0,0,.34,0c.2,0,.28-.2.4-.34l-.07.08a4.32,4.32,0,0,1,.34-.39l.19-.16a.39.39,0,0,1,.1-.08s0,0,0,0,0,0,0,0a.31.31,0,0,0,.14-.18.34.34,0,0,0,0-.24.32.32,0,0,0-.42-.11Z"/><path class="cls-23" d="M124.63,255.87l.37,0a.29.29,0,0,0,.16,0,.29.29,0,0,0,.14-.08l.06-.08a.3.3,0,0,0,0-.16.2.2,0,0,0,0-.11.3.3,0,0,0,0-.15l-.06-.08a.41.41,0,0,0-.19-.11l-.36-.15a.53.53,0,0,0-.25,0l-.11.05a.44.44,0,0,0-.16.17.27.27,0,0,0-.06.17.41.41,0,0,0,0,.19.28.28,0,0,0,.08.15.29.29,0,0,0,.13.12.42.42,0,0,0,.24.07Z"/><path class="cls-25" d="M53,265.2c-.16,0,4.41,4.75,4.79,5.11,5.08,4.71,17.41,7.69,37.83,8.25,17.43.48,37.52-.4,49.86-3.62a33.9,33.9,0,0,0,6.38-2.25c4.4-2.18,7.33-7.88,7.33-7.88Z"/><path class="cls-26" d="M174.63,230.6c-.12,0,3.5,14.05,3.81,15.11,4,13.94,13.89,23.17,30.1,24.84,13.85,1.43,34-.22,40.71-10.6,9-13.91,9.73-30.51,9.73-30.51Z"/><path class="cls-27" d="M237.09,266.77c-.54.66-1.11,1.31-1.66,2,6-1.7,11-4.48,13.82-8.77,6-9.28,8.33-19.74,9.2-25.68l-52.19,2.08a26.51,26.51,0,0,0-6.91.88c12.83,3.22,26,3,39,3.13a6.09,6.09,0,0,1,3.29.67c1.45.9,2.36,2.94,2.63,5a18.5,18.5,0,0,1-.48,6.29A34.79,34.79,0,0,1,237.09,266.77Z"/><path class="cls-28" d="M202.34,182.62c-.16,3.71-1.9,7-3.77,10.14s-4.11,6.38-4.85,10A9.55,9.55,0,0,0,197,212c2.82,2.52,6.47,3.62,9.93,4.95a22.72,22.72,0,0,1,5.4,2.75,14.52,14.52,0,0,1,3.76,4.31.46.46,0,0,0,.83-.35c-.75-3.22-4-5.4-6.81-6.72-3.49-1.63-7.38-2.39-10.65-4.47-2.95-1.86-5.23-4.83-4.93-8.46.31-3.79,2.69-7.17,4.48-10.4,1.88-3.41,3.65-7,3.62-11a.14.14,0,0,0-.28,0Z"/><path class="cls-28" d="M208,201.83c.56,4.77,5.63,6.92,9.39,8.81,2.57,1.29,5.18,2.53,7.72,3.89,2,1.08,4.34,2.52,5.11,4.82a5.37,5.37,0,0,1,.11,3.1,4.12,4.12,0,0,1-1.76,2.46.42.42,0,0,0,.32.77c2-.39,2.88-2.7,2.88-4.5a7.39,7.39,0,0,0-3.08-5.74,37.62,37.62,0,0,0-7.16-3.91c-2.61-1.26-5.32-2.42-7.83-3.87-2.23-1.29-4.53-3.11-4.89-5.83-.07-.5-.87-.52-.81,0Z"/><path class="cls-28" d="M237.34,212.59c.73,1.2,1.71,2.22,2.39,3.47a8.1,8.1,0,0,1,1.2,3.85,4.92,4.92,0,0,1-3.28,4.86.5.5,0,0,0,.13,1c2.86.31,4.59-2.88,4.61-5.34a8.42,8.42,0,0,0-1.33-4.29,15.84,15.84,0,0,0-1.4-1.93,14.84,14.84,0,0,0-1.8-2c-.28-.22-.73.07-.52.4Z"/><path class="cls-28" d="M188.39,199.1c-.62,2.34-1.28,4.68-1.79,7a13.53,13.53,0,0,0-.24,6.32c1.07,4,5.14,5.22,8.17,7.38a8.64,8.64,0,0,1,2.22,2.17,9.23,9.23,0,0,1,1.11,2.83.58.58,0,0,0,1.12,0c.58-1.79-.62-3.63-1.85-4.85a19.69,19.69,0,0,0-4.67-3.08,10.44,10.44,0,0,1-4.32-3.45c-1.14-1.88-1-4.2-.63-6.28.44-2.65.92-5.3,1.35-8,0-.3-.39-.44-.47-.13Z"/><path class="cls-29" d="M268.79,260.94a18.09,18.09,0,0,1,5.4-14.84c2-1.91,4.86-3.35,7.44-2.4a2.6,2.6,0,0,0,1.5.31,2.32,2.32,0,0,0,.92-.61,15.21,15.21,0,0,1,13.41-3.66c2,.44,3.92,1.3,5.9,1.91a2.76,2.76,0,0,0,1.13.17,3.23,3.23,0,0,0,1.45-.76,21.27,21.27,0,0,1,24.58-.22,2.4,2.4,0,0,0,1.32.61,2.71,2.71,0,0,0,1.44-.66,7.6,7.6,0,0,1,7.37-.57,6.54,6.54,0,0,1,2,1.4,11.33,11.33,0,0,1,1.86,3.13q2.21,4.78,4.39,9.56a13.45,13.45,0,0,1,1.3,3.83,4.47,4.47,0,0,1-1.11,3.75,5.86,5.86,0,0,1-2.44,1.22,74,74,0,0,1-19.34,2.83A141.07,141.07,0,0,1,295,263.32"/><path class="cls-30" d="M270.35,261.44a7.57,7.57,0,0,1,.65-4.82,11.91,11.91,0,0,0,14.81-5.91c1,.5,1.23,1.88,1.88,2.84,1,1.46,2.95,1.79,4.69,1.93q3.12.26,6.25.22a13.36,13.36,0,0,0,5.91-1.06,3.21,3.21,0,0,0,1.46-1.26c.5-.9.5-2.31,1.48-2.57s1.66,1.16,2.33,2.06c1.19,1.61,3.46,1.74,5.43,1.73l10.05,0c1.38,0,3-.15,3.72-1.38.57-1,.24-2.37.83-3.37,2.2,1,2.88,4.12,5.05,5.21a6.91,6.91,0,0,0,3.16.51h5.26a5.77,5.77,0,0,1,2.58.4,6.09,6.09,0,0,1,2.38,3.05,1.46,1.46,0,0,1,.2.81c-.07.42-.48.67-.85.86-3.72,1.83-7.89,2.42-12,2.75-4.45.36-8.91.45-13.37.53l-16.79.32a115.92,115.92,0,0,1-16.67-.49"/><path class="cls-31" d="M327.65,244.14a1,1,0,0,0-.3-.37,4.12,4.12,0,0,0-1.6-.88,6.27,6.27,0,0,0-3.22.42c-.65.17-2.33.23-1.57,1.31a2,2,0,0,0,1.05.64,8.12,8.12,0,0,0,4.53.15,1.9,1.9,0,0,0,.86-.4A.81.81,0,0,0,327.65,244.14Z"/><path class="cls-31" d="M318.2,240.58a1,1,0,0,0-.1-.27,1.55,1.55,0,0,0-.53-.63c-.67-.4-1.86.45-1.6,1.24a.86.86,0,0,0,.35.47,1.37,1.37,0,0,0,1.51.11.62.62,0,0,0,.29-.29A1.09,1.09,0,0,0,318.2,240.58Z"/><path class="cls-31" d="M287.86,245.23a1,1,0,0,0-.1-.27,1.56,1.56,0,0,0-.54-.63c-.66-.4-1.86.45-1.6,1.25a.92.92,0,0,0,.35.46,1.38,1.38,0,0,0,1.52.11.67.67,0,0,0,.29-.29A1.18,1.18,0,0,0,287.86,245.23Z"/><path class="cls-31" d="M293.46,243.09a1.86,1.86,0,0,0-.18-.49,2.89,2.89,0,0,0-1-1.14c-1.2-.73-3.37.81-2.89,2.26a1.55,1.55,0,0,0,.63.84,2.47,2.47,0,0,0,2.75.19,1.17,1.17,0,0,0,.52-.52A2,2,0,0,0,293.46,243.09Z"/><path class="cls-31" d="M303,247.18c-.07-.34-1.6-.34-1.84-.36a7.41,7.41,0,0,1-2.68-.79,4.79,4.79,0,0,0-1.49-.55,1.81,1.81,0,0,0-1.93,2.24c.36,1.07,1.65,1.37,2.64,1.3C298.26,249,303.12,248,303,247.18Z"/><path class="cls-31" d="M318,246.36a.87.87,0,0,0-.42-.17,31.49,31.49,0,0,1-7.51-1.46,4.21,4.21,0,0,0-1.47-.31c-.47,0-1,.26-1.08.73s.36.86.77,1.08a8.58,8.58,0,0,0,3,.77,24.7,24.7,0,0,0,3.77.27C315.36,247.26,318.78,247,318,246.36Z"/><path class="cls-31" d="M339.75,243.19c-1.5.61-2.63,2.1-4.11,2.63a10.3,10.3,0,0,1-5.19.44.64.64,0,0,0,.25.81c.92.61,4,.36,5,.18,1.92-.36,2.58-1.38,4.4-2.07.64-.25,1.4-.69,1.31-1.39C341.28,242.89,340.6,242.85,339.75,243.19Z"/><path class="cls-32" d="M260.45,258.59c-.15,0,4.05,4.37,4.41,4.7,4.67,4.33,16,7.07,34.8,7.59,16,.44,34.53-.37,45.89-3.33a32.21,32.21,0,0,0,5.87-2.07c4.05-2,6.74-7.26,6.74-7.26Z"/></g></g></svg>