<svg width="25" height="30" viewBox="0 0 25 30" fill="none" xmlns="http://www.w3.org/2000/svg">
<path d="M9.0599 25.0903C8.77179 25.0903 8.49016 25.1757 8.25061 25.3357C8.01106 25.4957 7.82435 25.7231 7.71409 25.9891C7.60384 26.2552 7.57499 26.5479 7.6312 26.8304C7.68741 27.1128 7.82614 27.3723 8.02987 27.5759C8.23359 27.7795 8.49314 27.9182 8.77571 27.9744C9.05828 28.0306 9.35117 28.0017 9.61735 27.8915C9.88352 27.7813 10.111 27.5947 10.2711 27.3553C10.4311 27.1158 10.5166 26.8343 10.5166 26.5463C10.5166 26.1602 10.3631 25.7898 10.0899 25.5167C9.81675 25.2437 9.44623 25.0903 9.0599 25.0903Z" fill="#666666"/>
<path d="M7.02585 3.94241H11.1028C11.2324 3.94241 11.3566 3.89094 11.4482 3.79933C11.5398 3.70771 11.5913 3.58345 11.5913 3.45389C11.589 3.32587 11.5365 3.20388 11.4451 3.11418C11.3538 3.02448 11.2308 2.97423 11.1028 2.97425H7.02585C6.96211 2.97307 6.89879 2.9846 6.83957 3.00818C6.78034 3.03175 6.72642 3.0669 6.68093 3.11155C6.63545 3.15621 6.59932 3.20948 6.57466 3.26826C6.55001 3.32704 6.53731 3.39015 6.53732 3.45389C6.53732 3.58345 6.58879 3.70771 6.68041 3.79933C6.77202 3.89094 6.89628 3.94241 7.02585 3.94241Z" fill="#666666"/>
<path d="M17.6401 9.69518C17.7682 9.6952 17.8911 9.64497 17.9824 9.55531C18.0738 9.46564 18.1263 9.34371 18.1286 9.21574V3.12519C18.1263 2.29705 17.7961 1.50351 17.2103 0.917933C16.6245 0.332355 15.8306 0.00234267 15.0021 0L3.12655 0C2.29805 0.00234267 1.50417 0.332355 0.918333 0.917933C0.332499 1.50351 0.00234369 2.29705 0 3.12519L0 26.8748C0.00234369 27.7029 0.332499 28.4965 0.918333 29.0821C1.50417 29.6676 2.29805 29.9977 3.12655 30H15.0021C15.8306 29.9977 16.6245 29.6676 17.2103 29.0821C17.7961 28.4965 18.1263 27.7029 18.1286 26.8748V20.7843C18.1263 20.6563 18.0738 20.5344 17.9824 20.4447C17.8911 20.355 17.7682 20.3048 17.6401 20.3048C17.5129 20.3048 17.3909 20.3553 17.301 20.4452C17.211 20.5352 17.1605 20.6571 17.1605 20.7843V23.0838H0.968163V6.90737H17.1605V9.21574C17.1605 9.3429 17.211 9.46484 17.301 9.55475C17.3909 9.64466 17.5129 9.69518 17.6401 9.69518ZM17.1605 24.0604V26.8748C17.1605 27.447 16.9331 27.9958 16.5283 28.4004C16.1235 28.805 15.5745 29.0323 15.0021 29.0323H3.12655C2.55411 29.0323 2.00511 28.805 1.60034 28.4004C1.19556 27.9958 0.968163 27.447 0.968163 26.8748V24.0604H17.1605ZM0.968163 5.93963V3.12519C0.968163 2.553 1.19556 2.00424 1.60034 1.59964C2.00511 1.19504 2.55411 0.967742 3.12655 0.967742H15.0021C15.5745 0.967742 16.1235 1.19504 16.5283 1.59964C16.9331 2.00424 17.1605 2.553 17.1605 3.12519V5.93963H0.968163Z" fill="#666666"/>
<path d="M8.38067 17.6309C8.27971 17.6309 8.18289 17.67 8.1115 17.7396C8.04011 17.8092 8 17.9036 8 18.002C7.99998 18.1011 8.03986 18.1962 8.11106 18.2669C8.18225 18.3376 8.27907 18.3782 8.38067 18.38H20.0052V19.6447C20.0046 19.7207 20.0279 19.7951 20.072 19.8578C20.1162 19.9205 20.179 19.9685 20.252 19.9952C20.2964 20.0016 20.3415 20.0016 20.3859 19.9952C20.4408 19.9942 20.4948 19.9821 20.5445 19.9596C20.5943 19.9371 20.6387 19.9048 20.6749 19.8646L24.9046 15.2459C24.9662 15.1761 25 15.0871 25 14.995C25 14.903 24.9662 14.814 24.9046 14.7442L20.6749 10.1186C20.622 10.0639 20.5534 10.0258 20.4781 10.0092C20.4028 9.9927 20.3242 9.99846 20.2522 10.0258C20.1803 10.0531 20.1184 10.1007 20.0744 10.1626C20.0304 10.2244 20.0063 10.2976 20.0052 10.3729V11.6582H8.38067C8.27907 11.66 8.18225 11.7006 8.11106 11.7713C8.03986 11.842 7.99998 11.9371 8 12.0362C8 12.1346 8.04011 12.229 8.1115 12.2986C8.18289 12.3682 8.27971 12.4073 8.38067 12.4073H20.3648C20.4664 12.4074 20.564 12.3685 20.6365 12.2991C20.709 12.2296 20.7506 12.1353 20.7525 12.0362V11.3489L24.0869 14.9916L20.7525 18.6343V17.947C20.7506 17.848 20.709 17.7536 20.6365 17.6842C20.564 17.6147 20.4664 17.5759 20.3648 17.5759L8.38067 17.6309Z" fill="url(#paint0_angular_1560_1982)"/>
<defs>
<radialGradient id="paint0_angular_1560_1982" cx="0" cy="0" r="1" gradientUnits="userSpaceOnUse" gradientTransform="translate(25 8.7) rotate(-95.5778) scale(18.8894 34.433)">
<stop stop-color="#FFA502"/>
<stop offset="1" stop-color="#FF6348"/>
</radialGradient>
</defs>
</svg>
