<svg width="19" height="30" viewBox="0 0 19 30" fill="none" xmlns="http://www.w3.org/2000/svg">
<path d="M9.0599 25.0903C8.77179 25.0903 8.49016 25.1757 8.25061 25.3357C8.01106 25.4957 7.82435 25.7231 7.71409 25.9891C7.60384 26.2552 7.57499 26.5479 7.6312 26.8304C7.68741 27.1128 7.82614 27.3723 8.02987 27.5759C8.23359 27.7795 8.49314 27.9182 8.77571 27.9744C9.05828 28.0306 9.35117 28.0017 9.61735 27.8915C9.88352 27.7813 10.111 27.5947 10.2711 27.3553C10.4311 27.1158 10.5166 26.8343 10.5166 26.5463C10.5166 26.1602 10.3631 25.7898 10.0899 25.5167C9.81675 25.2437 9.44623 25.0903 9.0599 25.0903Z" fill="#666666"/>
<path d="M7.02585 3.94243H11.1028C11.2324 3.94243 11.3566 3.89096 11.4482 3.79934C11.5398 3.70773 11.5913 3.58347 11.5913 3.45391C11.589 3.32589 11.5365 3.2039 11.4451 3.11419C11.3538 3.02449 11.2308 2.97424 11.1028 2.97426H7.02585C6.96211 2.97308 6.89879 2.98462 6.83957 3.00819C6.78034 3.03177 6.72642 3.06691 6.68093 3.11157C6.63545 3.15623 6.59932 3.2095 6.57466 3.26828C6.55001 3.32706 6.53731 3.39016 6.53732 3.45391C6.53732 3.58347 6.58879 3.70773 6.68041 3.79934C6.77202 3.89096 6.89628 3.94243 7.02585 3.94243Z" fill="#666666"/>
<path d="M17.6401 9.69518C17.7682 9.6952 17.8911 9.64497 17.9824 9.55531C18.0738 9.46564 18.1263 9.34371 18.1286 9.21574V3.12519C18.1263 2.29705 17.7961 1.50351 17.2103 0.917933C16.6245 0.332355 15.8306 0.00234267 15.0021 0L3.12655 0C2.29805 0.00234267 1.50417 0.332355 0.918333 0.917933C0.332499 1.50351 0.00234369 2.29705 0 3.12519L0 26.8748C0.00234369 27.7029 0.332499 28.4965 0.918333 29.0821C1.50417 29.6676 2.29805 29.9977 3.12655 30H15.0021C15.8306 29.9977 16.6245 29.6676 17.2103 29.0821C17.7961 28.4965 18.1263 27.7029 18.1286 26.8748V20.7843C18.1263 20.6563 18.0738 20.5344 17.9824 20.4447C17.8911 20.355 17.7682 20.3048 17.6401 20.3048C17.5129 20.3048 17.3909 20.3553 17.301 20.4452C17.211 20.5352 17.1605 20.6571 17.1605 20.7843V23.0838H0.968163V6.90737H17.1605V9.21574C17.1605 9.3429 17.211 9.46484 17.301 9.55475C17.3909 9.64466 17.5129 9.69518 17.6401 9.69518ZM17.1605 24.0604V26.8748C17.1605 27.447 16.9331 27.9958 16.5283 28.4004C16.1235 28.805 15.5745 29.0323 15.0021 29.0323H3.12655C2.55411 29.0323 2.00511 28.805 1.60034 28.4004C1.19556 27.9958 0.968163 27.447 0.968163 26.8748V24.0604H17.1605ZM0.968163 5.93963V3.12519C0.968163 2.553 1.19556 2.00424 1.60034 1.59964C2.00511 1.19504 2.55411 0.967742 3.12655 0.967742H15.0021C15.5745 0.967742 16.1235 1.19504 16.5283 1.59964C16.9331 2.00424 17.1605 2.553 17.1605 3.12519V5.93963H0.968163Z" fill="#666666"/>
<path d="M14.1955 19.9632L13.8975 20.0271C13.7718 20.0536 13.6611 20.1282 13.5887 20.2354C13.5163 20.3425 13.4878 20.4738 13.5092 20.6018C13.5356 20.7262 13.6063 20.8366 13.7079 20.9119C13.8137 20.9844 13.9428 21.0138 14.0691 20.994L14.4303 20.9119C14.5065 20.9151 14.5823 20.9002 14.6516 20.8684C14.721 20.8366 14.7821 20.7889 14.8299 20.729C14.8777 20.6691 14.911 20.5987 14.927 20.5235C14.9431 20.4482 14.9415 20.3703 14.9223 20.2958C14.9031 20.2213 14.8669 20.1524 14.8167 20.0946C14.7664 20.0368 14.7034 19.9917 14.6327 19.9629C14.5621 19.9341 14.4857 19.9224 14.4098 19.9288C14.3339 19.9352 14.2605 19.9595 14.1955 19.9997V19.9632Z" fill="url(#paint0_angular_1560_1990)"/>
<path d="M17.7809 13.4134C17.8097 13.5148 17.8739 13.6023 17.9615 13.6597C18.023 13.7018 18.0931 13.7293 18.1665 13.7404C18.24 13.7514 18.315 13.7457 18.3859 13.7236C18.5077 13.682 18.6083 13.5934 18.6658 13.4773C18.7233 13.3611 18.7331 13.2267 18.693 13.1033C18.693 12.9847 18.6117 12.8661 18.5665 12.7566C18.5436 12.6972 18.5093 12.6429 18.4655 12.5969C18.4217 12.5509 18.3693 12.5142 18.3114 12.4887C18.2535 12.4633 18.1911 12.4497 18.128 12.4487C18.0648 12.4477 18.0021 12.4594 17.9434 12.483C17.8835 12.5061 17.8287 12.5411 17.7824 12.586C17.7362 12.6309 17.6993 12.6847 17.674 12.7443C17.6487 12.8038 17.6356 12.8679 17.6353 12.9327C17.6351 12.9975 17.6477 13.0617 17.6725 13.1215L17.7809 13.4134Z" fill="url(#paint1_angular_1560_1990)"/>
<path d="M15.7669 19.2608C15.6852 19.324 15.5974 19.379 15.5051 19.425C15.3954 19.4931 15.3163 19.6016 15.2843 19.7275C15.2523 19.8534 15.2699 19.987 15.3335 20.1C15.3686 20.1598 15.4146 20.2124 15.4689 20.2551C15.5476 20.3044 15.6383 20.3305 15.7308 20.3305C15.8234 20.3305 15.9141 20.3044 15.9927 20.2551L16.2998 20.0635C16.4067 19.9926 16.4817 19.8821 16.5088 19.7559C16.5358 19.6296 16.5126 19.4977 16.4443 19.3885C16.3724 19.2799 16.2614 19.2038 16.1349 19.1766C16.0085 19.1493 15.8764 19.173 15.7669 19.2425V19.2608Z" fill="url(#paint2_angular_1560_1990)"/>
<path d="M19 14.7726C18.993 14.6436 18.936 14.5225 18.8414 14.4354C18.7468 14.3484 18.6221 14.3024 18.4943 14.3074C18.4302 14.3085 18.367 14.3227 18.3086 14.3494C18.2502 14.376 18.1978 14.4144 18.1547 14.4623C18.1115 14.5102 18.0786 14.5664 18.0577 14.6276C18.0369 14.6888 18.0287 14.7537 18.0337 14.8182V15.1284C18.03 15.2092 18.0472 15.2895 18.0837 15.3615C18.1201 15.4335 18.1744 15.4946 18.2414 15.5389C18.3176 15.5942 18.4095 15.623 18.5033 15.621C18.5669 15.6234 18.6303 15.613 18.6899 15.5904C18.7495 15.5678 18.804 15.5334 18.8503 15.4892C18.8965 15.445 18.9336 15.392 18.9593 15.3332C18.985 15.2743 18.9988 15.2109 19 15.1466V14.7726Z" fill="url(#paint3_angular_1560_1990)"/>
<path d="M17.6996 17.9746C17.5955 17.9003 17.4671 17.8694 17.341 17.888C17.215 17.9067 17.1008 17.9736 17.0222 18.0749L16.8236 18.3212C16.7829 18.3702 16.7523 18.4268 16.7335 18.4878C16.7147 18.5488 16.708 18.613 16.7139 18.6766C16.7198 18.7402 16.7381 18.802 16.7678 18.8585C16.7974 18.9149 16.8379 18.9648 16.8868 19.0054C16.9852 19.0778 17.1072 19.1096 17.228 19.0943C17.3488 19.0791 17.4593 19.0179 17.537 18.9233C17.6183 18.8321 17.6905 18.7317 17.7718 18.6314C17.8453 18.5262 17.8759 18.3966 17.8574 18.2692C17.839 18.1419 17.7727 18.0266 17.6725 17.9472L17.6996 17.9746Z" fill="url(#paint4_angular_1560_1990)"/>
<path d="M18.3769 16.214C18.3158 16.1941 18.2515 16.1866 18.1875 16.1919C18.1236 16.1972 18.0613 16.2152 18.0042 16.2449C17.9472 16.2745 17.8965 16.3153 17.8551 16.3647C17.8136 16.4142 17.7823 16.4715 17.7628 16.5332C17.7628 16.6336 17.6996 16.7248 17.6635 16.8251C17.6269 16.9268 17.6239 17.0377 17.6548 17.1413C17.6857 17.2448 17.7489 17.3355 17.835 17.3998C17.8693 17.4217 17.9056 17.44 17.9434 17.4546C18.0025 17.4793 18.066 17.4915 18.13 17.4905C18.1939 17.4896 18.257 17.4754 18.3154 17.4489C18.3737 17.4225 18.4261 17.3842 18.4693 17.3366C18.5125 17.2889 18.5456 17.2328 18.5665 17.1718C18.6117 17.0623 18.6569 16.9437 18.693 16.8251C18.73 16.7018 18.7176 16.5686 18.6585 16.4544C18.5994 16.3401 18.4983 16.2538 18.3769 16.214Z" fill="url(#paint5_angular_1560_1990)"/>
<path d="M12.0552 20.0362C11.6286 19.9523 11.2132 19.8176 10.818 19.6348L10.5471 19.498C10.3823 19.4031 10.2225 19.2996 10.0684 19.1878C8.98147 18.4093 8.24332 17.2282 8.01494 15.9021C7.78655 14.5761 8.08646 13.2126 8.84927 12.109C9.19197 11.6244 9.61333 11.2018 10.0955 10.8592C10.9281 10.2799 11.9134 9.9659 12.9243 9.95777C13.9352 9.94964 14.9254 10.2477 15.767 10.8136L15.3877 11.3609C15.2793 11.516 15.3425 11.6346 15.5321 11.6164L17.1758 11.4613C17.2171 11.459 17.2573 11.4473 17.2934 11.4269C17.3295 11.4066 17.3605 11.3781 17.384 11.3438C17.4076 11.3094 17.423 11.2701 17.4292 11.2288C17.4353 11.1875 17.4321 11.1453 17.4196 11.1055L16.9771 9.5C16.9229 9.32668 16.7965 9.29931 16.6971 9.45439L16.3178 10.0108C15.0304 9.14406 13.4597 8.81694 11.9378 9.09862L11.4773 9.18984C10.1507 9.53241 8.98069 10.3246 8.16292 11.4339L8.08164 11.5525L7.95521 11.7441C7.28218 12.8022 6.95086 14.0453 7.00696 15.3017C6.99768 15.4262 6.99768 15.5513 7.00696 15.6758L7.06115 16.0498C7.27214 17.2906 7.85903 18.4349 8.7409 19.3246C8.98554 19.5574 9.24498 19.7738 9.51756 19.9723C10.2333 20.4869 11.0542 20.8329 11.9198 20.9849C12.0453 21.0063 12.1742 20.9772 12.2788 20.9039C12.3834 20.8306 12.4555 20.7189 12.4797 20.5926C12.4913 20.529 12.4902 20.4637 12.4764 20.4006C12.4626 20.3375 12.4364 20.2778 12.3994 20.225C12.3623 20.1723 12.3152 20.1276 12.2607 20.0936C12.2063 20.0596 12.1456 20.037 12.0823 20.0271L12.0552 20.0362Z" fill="url(#paint6_angular_1560_1990)"/>
<path d="M12.6874 11.0599C12.582 11.0599 12.481 11.1022 12.4064 11.1774C12.3319 11.2527 12.2901 11.3548 12.2901 11.4613V15.4021L15.9024 17.2265C15.9591 17.2535 16.0205 17.269 16.083 17.2721C16.156 17.2718 16.2274 17.2512 16.2896 17.2126C16.3517 17.174 16.4021 17.1188 16.4352 17.0532C16.4598 17.0074 16.4749 16.957 16.4796 16.9051C16.4842 16.8532 16.4783 16.8008 16.4622 16.7513C16.4462 16.7018 16.4203 16.6561 16.3861 16.617C16.352 16.578 16.3103 16.5463 16.2637 16.5241L13.1209 14.8821V11.4613C13.1209 11.3564 13.0803 11.2556 13.0077 11.1806C12.9351 11.1056 12.8364 11.0623 12.7326 11.0599H12.6874Z" fill="url(#paint7_angular_1560_1990)"/>
<defs>
<radialGradient id="paint0_angular_1560_1990" cx="0" cy="0" r="1" gradientUnits="userSpaceOnUse" gradientTransform="translate(14.938 19.7877) rotate(-94.3959) scale(2.02299 2.91326)">
<stop stop-color="#FFA502"/>
<stop offset="1" stop-color="#FF6348"/>
</radialGradient>
<radialGradient id="paint1_angular_1560_1990" cx="0" cy="0" r="1" gradientUnits="userSpaceOnUse" gradientTransform="translate(18.7173 12.28) rotate(-92.7434) scale(2.44151 2.19948)">
<stop stop-color="#FFA502"/>
<stop offset="1" stop-color="#FF6348"/>
</radialGradient>
<radialGradient id="paint2_angular_1560_1990" cx="0" cy="0" r="1" gradientUnits="userSpaceOnUse" gradientTransform="translate(16.5198 19.0141) rotate(-93.5304) scale(2.19427 2.54127)">
<stop stop-color="#FFA502"/>
<stop offset="1" stop-color="#FF6348"/>
</radialGradient>
<radialGradient id="paint3_angular_1560_1990" cx="0" cy="0" r="1" gradientUnits="userSpaceOnUse" gradientTransform="translate(19 14.1362) rotate(-92.422) scale(2.47312 1.96762)">
<stop stop-color="#FFA502"/>
<stop offset="1" stop-color="#FF6348"/>
</radialGradient>
<radialGradient id="paint4_angular_1560_1990" cx="0" cy="0" r="1" gradientUnits="userSpaceOnUse" gradientTransform="translate(17.8627 17.7247) rotate(-93.1138) scale(2.28822 2.33871)">
<stop stop-color="#FFA502"/>
<stop offset="1" stop-color="#FF6348"/>
</radialGradient>
<radialGradient id="paint5_angular_1560_1990" cx="0" cy="0" r="1" gradientUnits="userSpaceOnUse" gradientTransform="translate(18.7139 16.0212) rotate(-92.7323) scale(2.44744 2.19596)">
<stop stop-color="#FFA502"/>
<stop offset="1" stop-color="#FF6348"/>
</radialGradient>
<radialGradient id="paint6_angular_1560_1990" cx="0" cy="0" r="1" gradientUnits="userSpaceOnUse" gradientTransform="translate(17.4322 7.44107) rotate(-92.861) scale(22.5726 21.2042)">
<stop stop-color="#FFA502"/>
<stop offset="1" stop-color="#FF6348"/>
</radialGradient>
<radialGradient id="paint7_angular_1560_1990" cx="0" cy="0" r="1" gradientUnits="userSpaceOnUse" gradientTransform="translate(16.4811 10.2523) rotate(-92.2194) scale(11.6878 8.52281)">
<stop stop-color="#FFA502"/>
<stop offset="1" stop-color="#FF6348"/>
</radialGradient>
</defs>
</svg>
