<svg width="60" height="60" viewBox="0 0 60 60"  xmlns="http://www.w3.org/2000/svg" id="i-1-1">
<path d="M49.3043 15.0518C48.4348 14.0376 46.9565 13.6995 45.3913 14.2911L12.2609 26.7154C10.2609 27.4761 10 28.6594 10 29.3355C10 30.0117 10.3478 31.1104 12.3478 31.7866L19.2174 34.2376L22.8696 42.436C23.3043 43.7038 24.1739 44.6335 25.3043 44.9715C26.4348 45.3096 27.7391 44.887 28.7826 43.9573L31.5652 41.3372L38.6957 46.1548C39.4783 46.7464 40.2609 47 41.0435 47C42.6957 47 44 45.8167 44.4348 43.9573L49.8261 18.0945C50 17.7564 50 17.5028 50 17.1648C50 16.3196 49.7391 15.6434 49.3043 15.0518ZM24.4348 34.1531C24.087 34.4912 23.913 34.8293 23.913 35.3364V37.1113L22.4348 33.646L28.6087 30.3497L24.4348 34.1531ZM28.8696 39.4778L27.0435 41.1682V38.2945L28.8696 39.4778ZM46.7826 17.5028L41.3913 43.3657C41.3043 43.7038 41.2174 43.8728 41.1304 43.8728C41.0435 43.8728 40.8696 43.7883 40.6087 43.6192L28.087 35.1673L40 24.3489C40.6087 23.8418 40.6957 22.9121 40.2609 22.3204C39.8261 21.6443 38.9565 21.4752 38.2609 21.8133L20.2609 31.2795L14.5217 29.251L46.5217 17.2493C46.6957 17.1648 46.7826 17.1648 46.8696 17.1648C46.8696 17.2493 46.8696 17.3338 46.7826 17.5028Z" />
</svg>
