<svg width="60" height="60" viewBox="0 0 60 60" fill="none" xmlns="http://www.w3.org/2000/svg" id="i-1-5-g">
<path d="M47.5893 12.3214C42.9464 7.58929 36.6071 5 29.9107 5C23.3036 5 16.9643 7.58929 12.3214 12.3214C7.58928 17.0536 5 23.3036 5 30C5 36.6964 7.58928 42.9464 12.3214 47.6786C17.0536 52.4107 23.3036 55 30 55C36.6964 55 42.9464 52.4107 47.6786 47.6786C52.4107 42.9464 55 36.6964 55 30C54.9107 23.3036 52.3214 17.0536 47.5893 12.3214ZM50.8036 30C50.8036 41.5179 41.4286 50.8036 30 50.8036C18.5714 50.8036 9.10714 41.5179 9.10714 30C9.10714 18.4821 18.4821 9.19643 29.9107 9.19643C41.3393 9.19643 50.8036 18.4821 50.8036 30Z" fill="url(#paint0_angular_1813_3085)"/>
<path d="M42.8572 28.2142L25.8036 18.3928C25.1786 18.0357 24.375 18.0357 23.75 18.3928C23.125 18.75 22.6786 19.4642 22.6786 20.1785V39.8214C22.6786 40.5357 23.0358 41.25 23.75 41.6071C24.1072 41.7857 24.375 41.875 24.8215 41.875C25.1786 41.875 25.5358 41.7857 25.8929 41.6071L42.9465 31.7857C43.5715 31.4285 44.0179 30.7142 44.0179 30C43.8393 29.2857 43.4822 28.5714 42.8572 28.2142ZM37.5893 30L26.7858 36.25V23.75L37.5893 30Z" fill="url(#paint1_angular_1813_3085)"/>
<defs>
<radialGradient id="paint0_angular_1813_3085" cx="0" cy="0" r="1" gradientUnits="userSpaceOnUse" gradientTransform="translate(55 -1.49999) rotate(-93.2878) scale(94.155 101.588)">
<stop stop-color="#FFA502"/>
<stop offset="1" stop-color="#FF6348"/>
</radialGradient>
<radialGradient id="paint1_angular_1813_3085" cx="0" cy="0" r="1" gradientUnits="userSpaceOnUse" gradientTransform="translate(55 -1.49999) rotate(-93.2878) scale(94.155 101.588)">
<stop stop-color="#FFA502"/>
<stop offset="1" stop-color="#FF6348"/>
</radialGradient>
</defs>
</svg>
