<svg xmlns="http://www.w3.org/2000/svg" xmlns:xlink="http://www.w3.org/1999/xlink" viewBox="0 0 73.59 73.59"><defs><style>.cls-1{fill:url(#Безымянный_градиент_23);}.cls-2{fill:#fff;}</style><linearGradient id="Безымянный_градиент_23" y1="36.79" x2="73.59" y2="36.79" gradientUnits="userSpaceOnUse"><stop offset="0" stop-color="#d04f00"/><stop offset="0.59" stop-color="#ef6613"/><stop offset="1" stop-color="#ff731d"/></linearGradient></defs><title>logo</title><g id="Слой_2" data-name="Слой 2"><g id="Верхняя_панель" data-name="Верхняя панель"><path class="cls-1" d="M73.59,36.79A36.8,36.8,0,1,1,36.79,0,36.73,36.73,0,0,1,73.59,36.79Z"/><g id="Слой_4" data-name="Слой 4"><path class="cls-2" d="M37.15,55.67A19.15,19.15,0,1,1,56.3,36.52,19.18,19.18,0,0,1,37.15,55.67Zm0-36.39A17.24,17.24,0,1,0,54.38,36.52,17.26,17.26,0,0,0,37.15,19.28Z"/><path class="cls-2" d="M37.15,65.24a1,1,0,0,1-1-1V58.54a1,1,0,0,1,1.92,0v5.74a1,1,0,0,1-1,1Z"/><path class="cls-2" d="M37.15,15.45a1,1,0,0,1-1-.95V8.75a1,1,0,1,1,1.92,0V14.5a1,1,0,0,1-1,.95Z"/><path class="cls-2" d="M15.13,37.47H9.38a1,1,0,0,1,0-1.91h5.75a1,1,0,1,1,0,1.91Z"/><path class="cls-2" d="M64.91,37.47H59.17a1,1,0,1,1,0-1.91h5.74a1,1,0,1,1,0,1.91Z"/><path class="cls-2" d="M32.36,50.88a1,1,0,0,1-.93-1.17L34,38.43H29.49a1,1,0,0,1-.87-.56.93.93,0,0,1,.15-1L41.21,22.49a1,1,0,0,1,1.66.84L40.27,34.6h4.54a1,1,0,0,1,.87.56.93.93,0,0,1-.15,1L33.09,50.55a1,1,0,0,1-.73.33Zm-.77-14.36h3.64a.94.94,0,0,1,.75.36,1,1,0,0,1,.19.81l-2,8.69,8.55-9.86H39.06a1,1,0,0,1-.93-1.18l2-8.69Z"/><path class="cls-2" d="M56.78,57.11a1,1,0,0,1-.67-.28L52,52.77a1,1,0,0,1,1.36-1.36l4.06,4.06a1,1,0,0,1,0,1.36,1,1,0,0,1-.68.28Z"/><path class="cls-2" d="M21.58,21.9a.94.94,0,0,1-.68-.28l-4.06-4.06a1,1,0,1,1,1.35-1.35l4.06,4.06a.94.94,0,0,1,0,1.35.92.92,0,0,1-.67.28Z"/><path class="cls-2" d="M17.52,57.11a1,1,0,0,1-.68-.28,1,1,0,0,1,0-1.36l4.06-4.06a1,1,0,0,1,1.35,1.36l-4.06,4.06a1,1,0,0,1-.67.28Z"/><path class="cls-2" d="M52.72,21.9A1,1,0,0,1,52,20.27l4.07-4.06a.94.94,0,0,1,1.35,0,1,1,0,0,1,0,1.35L53.4,21.62a.94.94,0,0,1-.68.28Z"/></g></g></g></svg>