<svg xmlns="http://www.w3.org/2000/svg" viewBox="0 0 80 80"><defs><style>.cls-1{isolation:isolate;}.cls-2{fill:#da5662;}.cls-3{fill:#c0a23f;mix-blend-mode:multiply;}</style></defs><title>red</title><g class="cls-1"><g id="Слой_2" data-name="Слой 2"><g id="Слой_35" data-name="Слой 35"><circle class="cls-2" cx="40" cy="40" r="40"/><path class="cls-3" d="M28.32,49.11a4,4,0,0,0,.16-1.1,4.2,4.2,0,0,0-8.39,0,4,4,0,0,0,.17,1.1Z"/><path class="cls-3" d="M58.37,49.11a4.43,4.43,0,0,0,.16-1.1,4.2,4.2,0,0,0-8.39,0,4.43,4.43,0,0,0,.16,1.1Z"/><path class="cls-3" d="M22.59,63.31a.66.66,0,0,1-.41-1.18c18.62-14.94,33.25-.09,33.39.06a.64.64,0,0,1,0,.93.65.65,0,0,1-.93,0c-.56-.59-13.95-14.11-31.61,0A.68.68,0,0,1,22.59,63.31Z"/></g></g></g></svg>