<svg xmlns="http://www.w3.org/2000/svg" xmlns:xlink="http://www.w3.org/1999/xlink" viewBox="0 0 365 363.93"><defs><style>.e44bc26c-4ff8-4eae-a88a-5f4209946887{fill:url(#a0524362-420e-4641-885f-2d32157f4031);}.af446570-3570-4605-9e58-e29f59d17969{fill:#870200;}.f7eefd7e-ff04-48a2-91e6-4589235bd672{fill:url(#ac328296-feb1-4674-8e46-c39b92d863f1);}.a3f6183b-d19a-4767-9c56-c99863532eb0{fill:#bdbdbd;}</style><radialGradient id="a0524362-420e-4641-885f-2d32157f4031" cx="-1994.12" cy="238.83" r="1.23" gradientTransform="translate(289329 -34449.08) scale(145)" gradientUnits="userSpaceOnUse"><stop offset="0" stop-color="#ba0d0a"/><stop offset="0.17" stop-color="#dc1e0a"/><stop offset="0.31" stop-color="#c70300"/><stop offset="0.49" stop-color="#a3201e"/><stop offset="0.73" stop-color="#a81310"/><stop offset="0.86" stop-color="#b90d0a"/><stop offset="1" stop-color="#aa0c0a"/></radialGradient><radialGradient id="ac328296-feb1-4674-8e46-c39b92d863f1" cx="-1993.85" cy="238.79" r="1.23" gradientTransform="translate(283607.6 -33762.35) scale(142.15)" gradientUnits="userSpaceOnUse"><stop offset="0" stop-color="#a8a8a8"/><stop offset="0.14" stop-color="#cdcdcd"/><stop offset="0.27" stop-color="#d2d2d2"/><stop offset="0.51" stop-color="#fff"/><stop offset="0.69" stop-color="#ddd"/><stop offset="0.83" stop-color="#d8d8d8"/><stop offset="1" stop-color="#fff"/></radialGradient></defs><title>Ресурс 1</title><g id="e21044f0-2a4f-4623-9177-409205b3f5f8" data-name="Слой 2"><g id="b09d5e4d-0ac7-4f31-ac58-52078e7fe536" data-name="Слой 19"><path class="e44bc26c-4ff8-4eae-a88a-5f4209946887" d="M169.39,182,3.25,113s17.38,34.63,17.38,69.14S3.25,251,3.25,251Zm191.29-69L194.54,182l166.14,69s-17.38-34.39-17.38-68.9S360.68,113,360.68,113ZM251,3.25s-34.64,17.38-69.15,17.38S113,3.25,113,3.25l69,166.14ZM113,360.68s34.38-17.38,68.89-17.38S251,360.68,251,360.68L182,194.54Z"/><path class="af446570-3570-4605-9e58-e29f59d17969" d="M169.39,182l.6-1.43L0,109.93l1.86,3.71,0,.09a183.84,183.84,0,0,1,9,22.55c4.18,12.73,8.21,29.34,8.21,45.81,0,17-4.29,34.09-8.61,46.9-2.15,6.4-4.31,11.74-5.93,15.47-.8,1.87-1.48,3.33-1.94,4.32-.24.5-.42.88-.55,1.13l-.14.29,0,.09L0,254l173.41-72L170,180.54l-.6,1.43-.59-1.43-166.14,69L3.25,251l1.38.69A182.34,182.34,0,0,0,13.4,230c4.38-13,8.77-30.37,8.77-47.88s-4.39-34.93-8.77-48a185.65,185.65,0,0,0-8.77-21.84l-1.38.7-.59,1.42,166.14,69,.59-1.42-.59-1.43Zm191.29-69-.59-1.43L190.52,182l173.41,72-1.88-3.72,0-.09a181.34,181.34,0,0,1-9-22.43c-4.18-12.66-8.21-29.21-8.21-45.68,0-17,4.3-34.15,8.61-47,2.16-6.44,4.31-11.81,5.93-15.56.81-1.88,1.48-3.35,1.95-4.36.23-.5.42-.88.54-1.13l.14-.29.05-.09,1.85-3.71-3.82,1.59.59,1.43-1.38-.7a185.65,185.65,0,0,0-8.77,21.84c-4.38,13.07-8.77,30.49-8.77,48s4.4,34.87,8.77,47.88a182.34,182.34,0,0,0,8.77,21.71l1.38-.69.59-1.43L198.55,182l162.72-67.6-.59-1.42-1.38-.7ZM251,3.25l-.69-1.37-.1,0a183.84,183.84,0,0,1-22.55,9c-12.73,4.18-29.34,8.21-45.81,8.21-17,0-34.09-4.29-46.9-8.61-6.4-2.15-11.74-4.31-15.47-5.93-1.87-.8-3.33-1.48-4.32-1.94L114,2.06l-.29-.14-.09,0L109.93,0l72,173.41L254,0l-3.7,1.86L251,3.25l-1.43-.59L182,165.38,114.37,2.66,113,3.25l-.7,1.38A182.34,182.34,0,0,0,134,13.4c13,4.38,30.37,8.77,47.88,8.77s34.93-4.39,48-8.77a185.89,185.89,0,0,0,21.83-8.77L251,3.25l-1.43-.59ZM113,360.68l.69,1.37.09,0a181.34,181.34,0,0,1,22.43-9c12.66-4.18,29.22-8.21,45.68-8.21,17,0,34.15,4.3,47,8.61,6.43,2.16,11.8,4.31,15.56,5.93,1.87.81,3.35,1.48,4.35,1.95l1.14.54.28.14.1.05,3.7,1.85L182,190.52l-72,173.41,3.71-1.88-.69-1.37,1.42.59L182,198.55l67.59,162.72,1.43-.59.69-1.38a185.89,185.89,0,0,0-21.83-8.77c-13.08-4.38-30.49-8.77-48-8.77S147,346.16,134,350.53a182.34,182.34,0,0,0-21.71,8.77l.7,1.38,1.42.59Z"/><path class="f7eefd7e-ff04-48a2-91e6-4589235bd672" d="M68,296.22c24.4,24.4,36.48,61,36.48,61L173.09,191,6.83,259.49S43.56,271.69,68,296.22ZM296.22,68c-24.4-24.4-36.61-61.13-36.61-61.13L191,173.09l166.27-68.65C357.11,104.44,320.5,92.36,296.22,68ZM104.44,6.83S92.24,43.56,67.84,68s-61,36.48-61,36.48l166.26,68.65ZM259.49,357.11s12.08-36.61,36.48-61,61.14-36.73,61.14-36.73L190.84,190.72Z"/><path class="a3f6183b-d19a-4767-9c56-c99863532eb0" d="M68,296.22l-1.09,1.09c12,12,21.08,27.14,27.1,39.25,3,6.06,5.27,11.36,6.77,15.14.75,1.89,1.31,3.4,1.69,4.43l.41,1.18c0,.14.08.24.11.31l0,.09,1.3,4,71.65-173.53L2.41,259.65,6.34,261l.1,0a183.12,183.12,0,0,1,22.26,9.62c11.94,6.07,26.52,15,38.17,26.7h0L68,296.22l1.09-1.09c-12.39-12.44-27.8-21.69-40.12-27.85A182.44,182.44,0,0,0,7.31,258l-.48,1.46.58,1.43L170.25,193.8,103,356.64l1.42.59,1.46-.48a178.15,178.15,0,0,0-9.17-21.56c-6.12-12.29-15.3-27.67-27.68-40.06h0ZM296.22,68l1.09-1.09c-12-12-21.11-27.18-27.17-39.32-3-6.07-5.3-11.38-6.81-15.17-.75-1.9-1.32-3.41-1.7-4.45-.18-.52-.32-.92-.42-1.19s-.08-.24-.1-.3l0-.1-1.31-3.93L188.12,175.93,365,102.9h-7.77v1.53l.27-1.51a2.22,2.22,0,0,0-.27,0v1.53l.27-1.51-.25,1.39.39-1.35-.14,0-.25,1.39.39-1.35-.16.55.16-.55h0l-.16.55.16-.55-.54-.18a184.42,184.42,0,0,1-23.41-10.22c-11.58-6-25.32-14.57-36.38-25.69h0L296.22,68l-1.09,1.09c12.32,12.38,27.67,21.56,40,27.68,6.14,3.06,11.53,5.35,15.39,6.88,1.93.76,3.48,1.33,4.56,1.72l1.25.43.34.11.11,0h.06l.07,0,.08,0a2,2,0,0,0,.27,0v-1.54l-.59-1.42L193.8,170.25,261,7.41l-1.43-.58-1.46.48a184.08,184.08,0,0,0,9.24,21.62c6.15,12.32,15.36,27.73,27.74,40.12h0ZM104.44,6.83,103,6.34l0,.1A186.89,186.89,0,0,1,93.33,28.7c-6,11.94-14.94,26.53-26.58,38.17C54.73,78.89,39.6,88,27.49,94c-6,3-11.35,5.27-15.13,6.77-1.89.75-3.4,1.31-4.44,1.68l-1.18.42-.3.11-.1,0-3.94,1.3,173.53,71.65L104.28,2.41,103,6.34l1.46.49L103,7.41l67.23,162.84L7.41,103l-.58,1.42.48,1.46a178.93,178.93,0,0,0,21.56-9.17c12.29-6.12,27.67-15.3,40.05-27.68s21.6-27.8,27.75-40.12A182.8,182.8,0,0,0,105.9,7.31l-1.46-.48L103,7.41ZM259.49,357.11l1.46.48,0-.1a180.67,180.67,0,0,1,9.54-22.2c6-11.9,14.89-26.46,26.53-38.1,12-12,27.18-21.15,39.32-27.23,6.07-3,11.39-5.33,15.18-6.86,1.9-.76,3.41-1.33,4.45-1.71l1.19-.42.3-.11.1,0,3.9-1.31L188,187.88l71.65,173.65,1.3-3.94-1.46-.48,1.42-.59-67.23-163,162.84,67.23.59-1.42-.49-1.46A183.36,183.36,0,0,0,335,267.2c-12.32,6.18-27.73,15.43-40.12,27.81s-21.56,27.76-27.68,40.06A180.49,180.49,0,0,0,258,356.62l1.46.49,1.42-.59Z"/></g></g></svg>