<svg xmlns="http://www.w3.org/2000/svg" xmlns:xlink="http://www.w3.org/1999/xlink" viewBox="0 0 58.84 63.68"><defs><style>.cls-1{mask:url(#mask);filter:url(#luminosity-noclip-3);}.cls-2,.cls-4{mix-blend-mode:multiply;}.cls-2{fill:url(#linear-gradient);}.cls-3{mask:url(#mask-2);filter:url(#luminosity-noclip-4);}.cls-4{fill:url(#linear-gradient-2);}.cls-5{isolation:isolate;}.cls-6{fill:url(#linear-gradient-3);}.cls-7,.cls-8{fill:gray;mix-blend-mode:color-burn;}.cls-24,.cls-7{opacity:0.3;}.cls-8{opacity:0.2;}.cls-9{fill:url(#linear-gradient-4);}.cls-10{fill:url(#linear-gradient-5);}.cls-11{fill:url(#linear-gradient-6);}.cls-12{fill:url(#linear-gradient-7);}.cls-13{fill:url(#linear-gradient-8);}.cls-14{fill:#ffbd26;}.cls-15{fill:url(#linear-gradient-9);}.cls-16{fill:url(#linear-gradient-10);}.cls-17{fill:url(#linear-gradient-11);}.cls-18{fill:url(#linear-gradient-12);}.cls-19,.cls-24,.cls-25{fill:#fff;}.cls-19{opacity:0.7;}.cls-19,.cls-21,.cls-23,.cls-24,.cls-25{mix-blend-mode:soft-light;}.cls-20{mask:url(#mask-3);}.cls-21,.cls-23{opacity:0.8;}.cls-21{fill:url(#linear-gradient-13);}.cls-22{mask:url(#mask-4);}.cls-23{fill:url(#linear-gradient-14);}.cls-25{opacity:0.4;}.cls-26{filter:url(#luminosity-noclip-2);}.cls-27{filter:url(#luminosity-noclip);}</style><filter id="luminosity-noclip" x="19.23" y="-8715.24" width="5.52" height="32766" filterUnits="userSpaceOnUse" color-interpolation-filters="sRGB"><feFlood flood-color="#fff" result="bg"/><feBlend in="SourceGraphic" in2="bg"/></filter><mask id="mask" x="19.23" y="-8715.24" width="5.52" height="32766" maskUnits="userSpaceOnUse"><g class="cls-27"/></mask><linearGradient id="linear-gradient" x1="19.23" y1="11.93" x2="24.75" y2="11.93" gradientUnits="userSpaceOnUse"><stop offset="0"/><stop offset="1" stop-color="#fff"/></linearGradient><filter id="luminosity-noclip-2" x="34.96" y="-8715.24" width="8.4" height="32766" filterUnits="userSpaceOnUse" color-interpolation-filters="sRGB"><feFlood flood-color="#fff" result="bg"/><feBlend in="SourceGraphic" in2="bg"/></filter><mask id="mask-2" x="34.96" y="-8715.24" width="8.4" height="32766" maskUnits="userSpaceOnUse"><g class="cls-26"/></mask><linearGradient id="linear-gradient-2" x1="34.96" y1="13.75" x2="43.36" y2="13.75" xlink:href="#linear-gradient"/><linearGradient id="linear-gradient-3" x1="18.53" y1="15.95" x2="-8.63" y2="18.94" gradientUnits="userSpaceOnUse"><stop offset="0" stop-color="#e07022"/><stop offset="1" stop-color="#ffbb26"/></linearGradient><linearGradient id="linear-gradient-4" x1="14.19" y1="17.84" x2="-2.64" y2="-7.19" gradientUnits="userSpaceOnUse"><stop offset="0.01" stop-color="#ffa11f"/><stop offset="1" stop-color="#ffe226"/></linearGradient><linearGradient id="linear-gradient-5" x1="37.97" y1="17.03" x2="58.13" y2="17.03" xlink:href="#linear-gradient-3"/><linearGradient id="linear-gradient-6" x1="38.68" y1="16.88" x2="58.84" y2="16.88" xlink:href="#linear-gradient-4"/><linearGradient id="linear-gradient-7" x1="14.41" y1="17.19" x2="44.69" y2="17.19" gradientUnits="userSpaceOnUse"><stop offset="0" stop-color="#ffad39"/><stop offset="0.44" stop-color="#ffbd26"/><stop offset="1" stop-color="#ffe226"/></linearGradient><linearGradient id="linear-gradient-8" x1="12.51" y1="1.19" x2="46.59" y2="1.19" xlink:href="#linear-gradient-7"/><linearGradient id="linear-gradient-9" x1="24.47" y1="33.37" x2="34.63" y2="33.37" gradientUnits="userSpaceOnUse"><stop offset="0" stop-color="#ff8c28"/><stop offset="0.44" stop-color="#ffbd26"/><stop offset="1" stop-color="#ffe226"/></linearGradient><linearGradient id="linear-gradient-10" x1="26.71" y1="41.87" x2="35.85" y2="41.75" gradientUnits="userSpaceOnUse"><stop offset="0" stop-color="#ff9130"/><stop offset="0.44" stop-color="#ffbd26"/><stop offset="1" stop-color="#ffe226"/></linearGradient><linearGradient id="linear-gradient-11" x1="22.45" y1="58.51" x2="36.65" y2="58.51" gradientUnits="userSpaceOnUse"><stop offset="0" stop-color="#ffa526"/><stop offset="0.44" stop-color="#ffbd26"/><stop offset="1" stop-color="#ffe226"/></linearGradient><linearGradient id="linear-gradient-12" x1="13.76" y1="62.25" x2="45.34" y2="62.25" xlink:href="#linear-gradient-10"/><filter id="luminosity-noclip-3" x="19.23" y="4.67" width="5.52" height="14.52" filterUnits="userSpaceOnUse" color-interpolation-filters="sRGB"><feFlood flood-color="#fff" result="bg"/><feBlend in="SourceGraphic" in2="bg"/></filter><mask id="mask-3" x="19.23" y="4.67" width="5.52" height="14.52" maskUnits="userSpaceOnUse"><g class="cls-1"><path class="cls-2" d="M24.75,19.19s-3.2-7.39-2.58-14.52H19.23s.75,9.71,5.52,14.52Z"/></g></mask><linearGradient id="linear-gradient-13" x1="19.23" y1="11.93" x2="24.75" y2="11.93" gradientUnits="userSpaceOnUse"><stop offset="0" stop-color="#fff"/><stop offset="1" stop-color="#fff"/></linearGradient><filter id="luminosity-noclip-4" x="34.96" y="4.67" width="8.4" height="18.17" filterUnits="userSpaceOnUse" color-interpolation-filters="sRGB"><feFlood flood-color="#fff" result="bg"/><feBlend in="SourceGraphic" in2="bg"/></filter><mask id="mask-4" x="34.96" y="4.67" width="8.4" height="18.17" maskUnits="userSpaceOnUse"><g class="cls-3"><path class="cls-4" d="M35,22.84a.7.7,0,0,0,0-.23c.13-2.09,0-17.94,0-17.94h8.4S43.51,21.5,35,22.84Z"/></g></mask><linearGradient id="linear-gradient-14" x1="34.96" y1="13.75" x2="43.36" y2="13.75" xlink:href="#linear-gradient-13"/></defs><title>wr</title><g class="cls-5"><g id="Слой_2" data-name="Слой 2"><g id="Слой_34" data-name="Слой 34"><path class="cls-6" d="M18.9,30.94l0,.06a3.06,3.06,0,0,1-1,.76,2.37,2.37,0,0,1-1.55.17l1.21-2.11a4.6,4.6,0,0,0,.69-3.9,1.31,1.31,0,0,0-1-1h-.07A22.12,22.12,0,0,1,8.18,20c-.4-.36-.78-.73-1.16-1.12s-.8-.86-1.18-1.31a24.37,24.37,0,0,1-2.32-3.29,25.62,25.62,0,0,1-3.44-11L0,2.38l.47-.3,10,.3,0,.93A6.38,6.38,0,0,0,11.86,7.4,3.6,3.6,0,0,0,13,8.25a5.14,5.14,0,0,0,2,.41l.47,1.93A11.63,11.63,0,0,1,13,10.15a5.56,5.56,0,0,1-2.49-1.54A7.55,7.55,0,0,1,8.73,4.16H2a23.9,23.9,0,0,0,1.57,6.13,22.64,22.64,0,0,0,2.32,4.35c.37.55.77,1.08,1.18,1.59s.76.9,1.16,1.32a20.55,20.55,0,0,0,9.37,5.64,3,3,0,0,1,2.34,2.15A6.32,6.32,0,0,1,18.9,30.94Z"/><polygon class="cls-7" points="9.5 3.58 8.73 4.16 2.11 4.16 1.82 3.11 9.5 3.58"/><path class="cls-8" d="M18.9,30.94l0,.06a3.06,3.06,0,0,1-1,.76,2.37,2.37,0,0,1-1.55.17l.48-.3Z"/><path class="cls-9" d="M19.33,30.7a3.06,3.06,0,0,1-1,.75,2.38,2.38,0,0,1-1,.23,3.15,3.15,0,0,1-.52-.05L18,29.52a4.55,4.55,0,0,0,.69-3.91c-.3-.85-.83-.95-1-1l-.07,0a22.16,22.16,0,0,1-9-4.89c-.39-.36-.78-.73-1.15-1.11s-.81-.87-1.19-1.32A24,24,0,0,1,4,14,25.85,25.85,0,0,1,.55,3l-.08-1H11L11,3A6.38,6.38,0,0,0,12.33,7.1a3.84,3.84,0,0,0,1.18.84,5.14,5.14,0,0,0,2,.41l0,1.78a7.29,7.29,0,0,1-1.92-.29A5.54,5.54,0,0,1,11,8.31,7.71,7.71,0,0,1,9.2,3.86H2.42A24.35,24.35,0,0,0,4,10a23.49,23.49,0,0,0,2.32,4.35,19,19,0,0,0,1.19,1.6c.36.45.75.89,1.15,1.31A20.5,20.5,0,0,0,18,22.88a3,3,0,0,1,.43.12,3.15,3.15,0,0,1,1.91,2A6.35,6.35,0,0,1,19.33,30.7Z"/><path class="cls-7" d="M19.33,30.7a3.06,3.06,0,0,1-1,.75c1.84-3.28.84-6.75.13-8.45a3.15,3.15,0,0,1,1.91,2A6.35,6.35,0,0,1,19.33,30.7Z"/><path class="cls-7" d="M13.51,7.94a5.14,5.14,0,0,0,2,.41l0,1.78a7.29,7.29,0,0,1-1.92-.29Z"/><path class="cls-10" d="M58.13,2.38l-.07,1a25.86,25.86,0,0,1-2.87,9.94c-.32.6-.65,1.18-1,1.75s-.73,1.1-1.13,1.62A25.14,25.14,0,0,1,51,19.06a22.13,22.13,0,0,1-10,5.86h-.07a1.29,1.29,0,0,0-1,1,4.72,4.72,0,0,0,.33,3.37,3.07,3.07,0,0,0,.36.53l1.9,1.81-.7.3a2.37,2.37,0,0,1-.52.06,2.28,2.28,0,0,1-.78-.13,3.11,3.11,0,0,1-.72-.38,3.84,3.84,0,0,1-.52-.48,6.32,6.32,0,0,1-1-5.66,3.1,3.1,0,0,1,2.07-2.08l.27-.07A20.56,20.56,0,0,0,51,16.41a22,22,0,0,0,2.08-2.95,23.09,23.09,0,0,0,1.13-2.15,24.4,24.4,0,0,0,1-2.59,24.51,24.51,0,0,0,1-4.56H49.41a7.68,7.68,0,0,1-1.82,4.45,5.51,5.51,0,0,1-2.54,1.55,7.4,7.4,0,0,1-1.87.28l0-1.78a4.92,4.92,0,0,0,1.91-.4,3.59,3.59,0,0,0,1.24-.86,6.45,6.45,0,0,0,1.37-4.09l0-.93.7-.3Z"/><polygon class="cls-8" points="57.02 3.76 56.19 4.16 49.45 4.16 49.45 3.31 57.02 3.76"/><path class="cls-11" d="M58.84,2.08l-.08,1A25.69,25.69,0,0,1,55.89,13c-.32.6-.65,1.18-1,1.75s-.73,1.1-1.13,1.63a23.77,23.77,0,0,1-2.07,2.4,22.21,22.21,0,0,1-10,5.86l-.07,0c-.18,0-.71.13-1,1A4.81,4.81,0,0,0,41,29a3.51,3.51,0,0,0,.36.53l1.2,2.11a3.15,3.15,0,0,1-.52.05,2.32,2.32,0,0,1-.78-.13,2.77,2.77,0,0,1-.72-.38A3.19,3.19,0,0,1,40,30.7,6.32,6.32,0,0,1,39,25,3.09,3.09,0,0,1,41,23l.27-.07a20.57,20.57,0,0,0,10.4-6.78,22.8,22.8,0,0,0,2.07-2.94c.41-.7.79-1.41,1.13-2.15a25.44,25.44,0,0,0,1-2.6,24.4,24.4,0,0,0,1-4.55H50.11a7.71,7.71,0,0,1-1.82,4.45,5.58,5.58,0,0,1-2.54,1.54,6.91,6.91,0,0,1-1.87.28l0-1.78A5.11,5.11,0,0,0,45.75,8,3.76,3.76,0,0,0,47,7.09,6.44,6.44,0,0,0,48.36,3l0-.93Z"/><path class="cls-7" d="M40.5,31.17A3.19,3.19,0,0,1,40,30.7,6.32,6.32,0,0,1,39,25,3.09,3.09,0,0,1,41,23,9.42,9.42,0,0,0,40.5,31.17Z"/><path class="cls-8" d="M45.75,8V9.85a6.91,6.91,0,0,1-1.87.28l0-1.78A5.11,5.11,0,0,0,45.75,8Z"/><path class="cls-12" d="M44.69.89c0,.76,0,1.55,0,2.38,0,.35,0,.7,0,1.07A66.11,66.11,0,0,1,41.49,21c-2.38,7-6.22,12.49-11.94,12.49-10.24,0-14.46-17.75-15.07-29.68,0-.18,0-.36,0-.54,0-.83-.05-1.62-.05-2.38Z"/><path class="cls-8" d="M41.49,21c-1.72,5-4.2,9.3-7.6,11.3a8.52,8.52,0,0,1-4.34,1.19c-10.24,0-14.46-17.75-15.07-29.68,0-.18,0-.36,0-.54,0-.83-.05-1.62-.05-2.38H24l-.45,1.72S24.94,36.46,41.49,21Z"/><path class="cls-8" d="M34.21,32.1h0C22.3,27.73,18.16,8.89,16.93.89H15.3c0,.76,0,1.55,0,2.38,0,.18,0,.36,0,.54C16,15.56,20.08,33,30,33.48Z"/><path class="cls-7" d="M44.69.89c0,.76,0,1.55,0,2.38,0,.35,0,.7,0,1.07A178.46,178.46,0,0,0,24.45,3.27c-6.3,0-8.92.26-10,.54,0-.18,0-.36,0-.54,0-.83-.05-1.62-.05-2.38Z"/><polygon class="cls-13" points="46.59 0 46.34 0.84 45.88 2.38 13.22 2.38 12.51 0 46.59 0"/><path class="cls-14" d="M34.65,34.52l-.28.24a9.46,9.46,0,0,0-1.08,1.1,1.74,1.74,0,0,0-.46.94,10.41,10.41,0,0,1-.39,2.89,7.37,7.37,0,0,1-.34.94l-.06.13c-.06.12-.11.24-.17.35a2.85,2.85,0,0,1-2.32,1.79,2.09,2.09,0,0,1-1.37-.56,4.64,4.64,0,0,1-1.12-1.58,9.63,9.63,0,0,1-.79-4c0-.81-1.82-2.28-1.82-2.28l0,0,.69-2.21h8.78l.35,1.12.26.81.08.28Z"/><polygon class="cls-15" points="34.63 34.48 24.47 34.48 25.16 32.27 33.94 32.27 34.29 33.39 34.55 34.2 34.63 34.48"/><path class="cls-8" d="M28.18,42.34c-1.12-1-1.91-3.08-1.91-5.54,0-.81-1.82-2.28-1.82-2.28l.71-2.25h8.78s-8.9.4-6.89,2.51c.13.35,1.56.44,1.56.44s-1.34,5.16.44,5.54C29.9,41,29.17,41.65,28.18,42.34Z"/><path class="cls-16" d="M32.64,42.9H26.46l.6-2.14h5l.15.55.35,1.31Z"/><polygon class="cls-14" points="34.06 58.1 25.04 58.1 26.46 42.9 32.64 42.9 32.67 43.2 34.06 58.1"/><path class="cls-17" d="M36.65,58.93c-.82-.06-1.68-.11-2.59-.15h0c-1.12,0-2.29-.07-3.5-.09h-2.7c-1.23,0-2.43.06-3.56.12l-1.85.11.21-.83H36.44l.05.22Z"/><rect class="cls-18" x="13.76" y="60.83" width="31.59" height="2.85"/><polygon class="cls-14" points="45.35 60.83 45.35 60.83 45.35 60.83 45.35 60.83"/><path class="cls-14" d="M45.34,60.83H13.76c.22-.83,3.7-1.55,8.69-1.9,1.65-.12,3.47-.2,5.4-.23h1.72c2.55,0,5,.09,7.08.24a46.79,46.79,0,0,1,6.14.77c.51.11,1,.23,1.33.35C44.84,60.29,45.27,60.56,45.34,60.83Z"/><path class="cls-19" d="M34.65,34.52l-.28.24c-1.88,0-4.51-.11-5.43-.13a12,12,0,0,0,1.53-.15,19.38,19.38,0,0,0,3.82-1.09l.26.81.08.28Z"/><path class="cls-19" d="M32.67,43.2l-4.21-.3,4.08-.28.1.28Z"/><polygon class="cls-19" points="36.49 58.32 34.48 58.1 36.44 58.1 36.49 58.32"/><polygon class="cls-19" points="46.59 0 46.34 0.84 21.15 0 46.59 0"/><polygon class="cls-7" points="29.05 40.76 28.53 42.9 26.46 42.9 27.06 40.76 29.05 40.76"/><polygon class="cls-8" points="28.53 42.9 27.78 58.1 27.62 58.1 25.04 58.1 26.46 42.9 28.53 42.9"/><path class="cls-8" d="M27.31,2.38H13.22L12.51,0h6C17.91.43,16,2.16,27.31,2.38Z"/><polygon class="cls-8" points="15.26 2.38 13.22 2.38 12.51 0 14.22 0 15.26 2.38"/><g class="cls-20"><path class="cls-21" d="M24.75,19.19s-3.2-7.39-2.58-14.52H19.23s.75,9.71,5.52,14.52Z"/></g><path class="cls-7" d="M27.86,58.7c-1.23,0-2.43.06-3.56.12L25,58.1h2.74Z"/><path class="cls-8" d="M24.3,58.82s-4.6,1.25-4.6,2h5.66s.95-1.89,2.5-2.13Z"/><rect class="cls-7" x="19.7" y="60.83" width="5.65" height="2.85"/><g class="cls-22"><path class="cls-23" d="M35,22.84a.7.7,0,0,0,0-.23c.13-2.09,0-17.94,0-17.94h8.4S43.51,21.5,35,22.84Z"/></g><path class="cls-19" d="M34.66,23.1c.13-2.09,0-17.94,0-17.94H38C38,8.85,37.65,18.7,34.66,23.1Z"/><rect class="cls-19" x="29.55" width="6.33" height="2.38"/><rect class="cls-19" x="37.42" width="1.66" height="2.38"/><rect class="cls-19" x="51.68" y="2.08" width="2.08" height="1.78"/><path class="cls-19" d="M53.75,13.16v3.19a23.77,23.77,0,0,1-2.07,2.4V16.1A22.8,22.8,0,0,0,53.75,13.16Z"/><rect class="cls-19" x="54.88" y="2.08" width="1.01" height="1.78"/><path class="cls-19" d="M55.89,8.41V13c-.32.6-.65,1.18-1,1.75V11A25.44,25.44,0,0,0,55.89,8.41Z"/><rect class="cls-19" x="3.99" y="2.08" width="2.32" height="1.78"/><path class="cls-19" d="M6.31,14.33v3A24,24,0,0,1,4,14V10A23.49,23.49,0,0,0,6.31,14.33Z"/><rect class="cls-19" x="7.5" y="2.08" width="1.16" height="1.78"/><path class="cls-19" d="M8.65,17.24v2.48c-.39-.36-.78-.73-1.15-1.11V15.93C7.86,16.38,8.25,16.82,8.65,17.24Z"/><path class="cls-19" d="M42.52,31.63a3.15,3.15,0,0,1-.52.05,2.32,2.32,0,0,1-.78-.13A14.82,14.82,0,0,1,41,29a3.51,3.51,0,0,0,.36.53Z"/><polygon class="cls-19" points="33.28 58.1 30.56 58.1 31.22 46.22 33.28 58.1"/><polygon class="cls-19" points="29.79 58.1 29.38 58.1 29.38 46.22 29.79 58.1"/><path class="cls-24" d="M34.06,58.78h0c-1.12,0-2.29-.07-3.5-.09V58.1h2.72Z"/><polygon class="cls-24" points="29.79 58.1 30.03 58.69 29.25 58.69 29.38 58.1 29.79 58.1"/><path class="cls-25" d="M34.06,58.78s3.43.74,4.4,2H32.91a4.83,4.83,0,0,0-2.35-2.14Z"/><path class="cls-24" d="M30,58.69a2.88,2.88,0,0,1,1.48,2.17s-1.25,0-1.25,0a3.09,3.09,0,0,0-1-2.14Z"/><rect class="cls-24" x="30.27" y="60.83" width="1.25" height="2.85"/><rect class="cls-24" x="32.91" y="60.83" width="5.55" height="2.85"/><path class="cls-24" d="M45.34,60.83v1.75c-.26-1.07-3.82-1.75-4.13-1.75a6.67,6.67,0,0,0,2.91-.78C44.84,60.29,45.27,60.56,45.34,60.83Z"/><path class="cls-8" d="M45.34,63.68H13.76V60.83h8.43S14,63.68,45.34,63.68Z"/><path class="cls-8" d="M45.34,60.83H13.76c.22-.83,3.7-1.55,8.69-1.9,1.65-.12,3.47-.2,5.4-.23C27.74,59.25,28.88,60.81,45.34,60.83Z"/><path class="cls-8" d="M30,36.33c.85.44,2.57,2.33.89,4.25a5,5,0,0,1-.89.18,4.73,4.73,0,0,1,1.86.35,2.14,2.14,0,0,1,.32.2L32,40.76a.5.5,0,0,0,.05-.13h0l.07-.19a1.57,1.57,0,0,0,.09-.23c.07-.17.12-.34.18-.52a10.41,10.41,0,0,0,.39-2.89,1.74,1.74,0,0,1,.46-.94A10.74,10.74,0,0,1,30,36.33Z"/></g></g></g></svg>