<svg xmlns="http://www.w3.org/2000/svg" xmlns:xlink="http://www.w3.org/1999/xlink" viewBox="0 0 258.2 523.48"><defs><style>.cls-1{isolation:isolate;}.cls-2{fill:#666;}.cls-3{fill:#e5bc85;}.cls-4{fill:#d0a16d;}.cls-5{fill:#3a3436;}.cls-6{fill:#3c6684;}.cls-28,.cls-7,.cls-8,.cls-9{opacity:0.5;}.cls-7{fill:url(#Безымянный_градиент_143);}.cls-8{fill:url(#Безымянный_градиент_143-2);}.cls-9{fill:url(#Безымянный_градиент_143-3);}.cls-10{fill:#c4c4c4;}.cls-11{fill:#eaeaea;}.cls-12{fill:#e0e0e0;}.cls-13{fill:#ff731d;}.cls-14{fill:#ff8f4a;}.cls-15{fill:#bf5616;}.cls-16{fill:#c4915a;}.cls-17{fill:#f2f2f2;}.cls-18{fill:#f0c8b0;}.cls-19{fill:#de9e8b;}.cls-20{fill:#ecb79d;}.cls-21{fill:#f5dbc9;}.cls-22{fill:#fff;opacity:0.6;mix-blend-mode:screen;}.cls-23{fill:#6d4935;}.cls-24{fill:#7a563d;}.cls-25{fill:#654131;}.cls-26{fill:#613f30;}.cls-27{fill:#8c633b;}.cls-28{mix-blend-mode:multiply;fill:url(#Безымянный_градиент_226);}.cls-29{fill:#a57448;}.cls-30{fill:#f3e6c9;}</style><linearGradient id="Безымянный_градиент_143" x1="154.82" y1="397.27" x2="117.74" y2="458.68" gradientUnits="userSpaceOnUse"><stop offset="0" stop-color="#3c6684"/><stop offset="1" stop-color="#233d57"/></linearGradient><linearGradient id="Безымянный_градиент_143-2" x1="151.34" y1="450.95" x2="142.24" y2="362.38" gradientTransform="matrix(1, -0.09, 0.09, 1, -28.79, -36.72)" xlink:href="#Безымянный_градиент_143"/><linearGradient id="Безымянный_градиент_143-3" x1="92.82" y1="397.98" x2="100.73" y2="311.02" gradientTransform="matrix(1, 0, 0.17, 1, -46.6, 0)" xlink:href="#Безымянный_градиент_143"/><linearGradient id="Безымянный_градиент_226" x1="141.96" y1="96.17" x2="120.71" y2="100.32" gradientUnits="userSpaceOnUse"><stop offset="0" stop-color="#8c633b"/><stop offset="0.22" stop-color="#88603a"/><stop offset="0.41" stop-color="#7e5535"/><stop offset="0.6" stop-color="#6c432e"/><stop offset="0.78" stop-color="#522a25"/><stop offset="0.95" stop-color="#310a18"/><stop offset="1" stop-color="#270014"/></linearGradient></defs><title>break</title><g class="cls-1"><g id="Слой_2" data-name="Слой 2"><g id="Слой_7" data-name="Слой 7"><g id="shoulder_right" data-name="shoulder right"><path class="cls-2" d="M159.59,135.54C144.7,143.44,178.38,238.1,203,229,247.7,212.55,168.31,130.91,159.59,135.54Z"/><path class="cls-2" d="M206.35,212.92c-9,4-42.33-54.12-48.57-75.67-9.87,15,21.77,100.42,45.18,91.79,11.66-4.3,14.88-13,13.13-23.48C214,209.55,212,210.42,206.35,212.92Z"/><path class="cls-2" d="M214.41,196.61c6.82,6.34,5.81,18.54-2.28,27.24s-20.16,10.64-27,4.3-5.81-18.53,2.27-27.24S207.58,190.28,214.41,196.61Z"/></g><g id="forearm_right" data-name="forearm right"><path class="cls-3" d="M192.51,224.5c-8-4.56-11-17.18-1.25-34.73,11.7-21.06,34-49.6,34-49.6l4.43,1.86s-1.78,46.31-10.31,65.79C213.65,220.89,202.34,230.13,192.51,224.5Z"/><path class="cls-4" d="M218.8,200.57c-5.61,12.23-15.19,25.09-26.29,19.78-6-2.87-6.34-10-7-15.25-1.57,9.52,1.55,16.31,7,19.4,9.83,5.63,21.14-3.61,26.86-16.68C227.9,188.34,229.68,142,229.68,142l-.78-.33C228.34,151.4,225.93,185.06,218.8,200.57Z"/></g><g id="wrist_right" data-name="wrist right"><path class="cls-4" d="M234.56,134.1s.12,1.25,3.14,1,9.56-1.26,11.06.5-7.29,5-13.7,3.78S234.56,134.1,234.56,134.1Z"/><path class="cls-4" d="M225.9,139.14a14,14,0,0,1,4.88-5.93c2.37-1.51,6-6.79,6.67-6.16,1.63,1.64-1.6,5.32-2.39,7.3a3.79,3.79,0,0,0-.13,2.76C235.06,137.74,225.9,139.14,225.9,139.14Z"/><path class="cls-4" d="M248.57,136.63c1.91-1.87,3.09-10.83,5.73-9.95.78.26-.63,5.65-1.64,7.92s-5.49,7.64-9.78,8.21C240.37,143.14,245.43,139.72,248.57,136.63Z"/><path class="cls-4" d="M250.28,135.84a21.16,21.16,0,0,0,3.23-4c1.89-3.09,2.81-7.29,4.25-7s-.59,6.38-2,9a12.65,12.65,0,0,1-5.36,5C247.21,140.58,247.14,138.92,250.28,135.84Z"/><path class="cls-3" d="M225.24,140.17s2.48-5.19,6.1-4.94,9.92,2.21,12.33,1.63c2.15-.52,7.13-7.54,8.52-6.78,1.83,1-5.22,11.43-8.83,12.69-2.17.76-9.77,1.51-15,1C224.29,143.35,225.24,140.17,225.24,140.17Z"/></g><path id="foot_right" data-name="foot right" class="cls-5" d="M99.24,498.36a18.74,18.74,0,0,0-1,4.95c-.29,2.77-1.07,20,6.44,20,9.24,0-2.52-10.67-.8-24.14C104.38,494.9,99.24,498.36,99.24,498.36Z"/><g id="shin_right" data-name="shin right"><path class="cls-6" d="M103.13,503.18c-4.26,1.73-4.4-2.8-4.4-2.8s13.49-63.87,21.13-77.22c3.81-6.67,21.11-25.43,30-33.12S179,388.67,171,402.53C158.78,421.67,104.53,500.44,103.13,503.18Z"/><path class="cls-7" d="M103.13,503.18c-4.26,1.73-4.4-2.8-4.4-2.8s13.49-63.87,21.13-77.22c3.81-6.67,21.11-25.43,30-33.12S179,388.67,171,402.53C158.78,421.67,104.53,500.44,103.13,503.18Z"/></g><g id="hip_right" data-name="hip right"><path class="cls-6" d="M165.19,281.58s3.25,50.28,7.83,111.64c.89,11.88-14.87,23-23.93,6-6.13-28.05-21.64-70.37-21.64-70.37s-22.21-30.31-3.74-51.1C136.18,263.67,161.27,262.8,165.19,281.58Z"/><path class="cls-8" d="M165.19,281.58s3.25,50.28,7.83,111.64c.89,11.88-14.87,23-23.93,6-6.13-28.05-21.64-70.37-21.64-70.37s-22.21-30.31-3.74-51.1C136.18,263.67,161.27,262.8,165.19,281.58Z"/></g><path id="foot_left" data-name="foot left" class="cls-5" d="M122.27,523.48s-.07-6.09,1.25-8.44c.47-.83,1.63.19,2.32.19,4.44,12.07,11.72,2.12,11.37,8.25Z"/><path id="shin_left" data-name="shin left" class="cls-6" d="M102,393.57s-5.1,34.23-4.69,47.53,24.06,75.52,24.06,75.52h7.06c-1-101.93-.12-124.49-.12-124.49C126.85,381.56,104.37,377.79,102,393.57Z"/><g id="hip_left" data-name="hip left"><path class="cls-6" d="M78,303.3c1.6,14.26,22.54,76.25,23.64,88.82.69,7.93,22.89,20.71,26.61,2,2-30.66,1.14-69.63,1.14-69.63s16.59-28-5.54-47.62C94.76,256.77,75.34,263.4,78,303.3Z"/><path class="cls-9" d="M78,303.3c1.6,14.26,22.54,76.25,23.64,88.82.69,7.93,22.89,20.71,26.61,2,2-30.66,1.14-69.63,1.14-69.63s16.59-28-5.54-47.62C94.76,256.77,75.34,263.4,78,303.3Z"/></g><path class="cls-10" d="M54.14,151.4c6.5-8.87,63.31-30.4,63.31-30.4S166,133.69,171.71,143c2.35,3.81.17,28.6-.71,40.84s-5.55,40.52-5.68,53.16c-.14,14,3.94,51.29,3.94,54.48,0,1.58-10.81,15.17-46.27,12.91-23.82-1.52-45.84-16.4-46-20.37-.07-1.48,8.3-40,8.3-40L59.91,192.2S51.71,155,54.14,151.4Z"/><path class="cls-10" d="M126.83,174.38s-.89,21.69-2,31.5c0,0,10.18,19.24,11.88,19.43s6.9-15.5,6.9-15.5L129.9,176.45Z"/><path class="cls-2" d="M93.31,287.36l2.26-35.46s18.86,0,18.86-2.64-17.73-4.53-17.73-4.53,8.68-.37,9.06-2.64-10.19-3.39-10.19-3.39S74.45,198,76.71,181s27.92-48.29,27.92-48.29l-1.85-5.9c-17.31,7-44.28,18.66-48.64,24.61-2.43,3.57,5.77,40.8,5.77,40.8L85.26,244s-8.37,38.51-8.3,40c.19,4,22.21,18.85,46,20.37,23.4,1.49,36.07-3.92,42-8.23C129.21,310.9,93.31,287.36,93.31,287.36Z"/><path class="cls-11" d="M81.05,136c7.25,9.52,30.5,29.55,53.51,43.13,12.57-19.69,23.82-44.66,23.82-44.66C140.84,125.9,117.45,121,117.45,121A335,335,0,0,0,81.05,136Z"/><polygon class="cls-12" points="123.86 145.33 127.26 148.54 126.83 174.38 129.9 176.45 131.22 147.01 125 140.99 123.86 145.33"/><path class="cls-12" d="M93.24,130.42,119.9,157l9.94-16.42-24.42-15.17C101.83,126.82,97.67,128.5,93.24,130.42Z"/><path class="cls-12" d="M149.87,131.12l-.42-.52c-3.51-1.39-7-2.63-10.44-3.73l-9,13.75,14.34,13.82Z"/><path class="cls-11" d="M93,148.36a225.72,225.72,0,0,1,17.21-15.57l-14.68-3.33L81.05,136A157.79,157.79,0,0,0,93,148.36Z"/><path class="cls-13" d="M138.63,220.61c1.46,0,7-16.62,7-16.62s-6.08-37.53-12.72-56.72c-.57-2.41-4.39-3.27-4.33.26a355.92,355.92,0,0,1,0,57.72S137.18,220.64,138.63,220.61Z"/><polygon class="cls-14" points="121.78 137.94 136.28 137.16 132.9 147.27 128.57 147.53 123.06 142.21 121.78 137.94"/><path class="cls-15" d="M138.33,216.94c-.76,0-6.54-11.06-6.54-11.06,1.88-14.34-1.51-57-1.51-57l2.62-1.64-3.12-.49-2-2.64,3.48-6.71-7.15.38-1.23,3.75.2.65,5.51,5.32a355.92,355.92,0,0,1,0,57.72s8.66,15.39,10.11,15.36,7-16.62,7-16.62S139.08,216.94,138.33,216.94Z"/><polygon class="cls-16" points="143.51 128.51 129.84 137.38 98.73 130.88 101.19 104.8 138.54 104.87 143.51 128.51"/><polygon class="cls-17" points="92.49 126.47 98.5 117.91 129.84 137.38 119.9 153.81 92.49 126.47"/><polygon class="cls-17" points="129.99 137.42 144.33 151.23 149.87 127.91 142.31 118.62 129.99 137.42"/><path class="cls-2" d="M71.41,143.42c-15.13-7.4-83.6,67.72-63.16,84.93C44.73,259.05,86.55,150.82,71.41,143.42Z"/><path class="cls-10" d="M45.5,206c5.17,9.43-.39,22.42-12.43,29s-26,4.29-31.14-5.14.4-22.42,12.43-29S40.34,196.57,45.5,206Z"/><g id="forearm_left" data-name="forearm left"><path class="cls-3" d="M3.75,226.17C1,217.4,8,204.31,27.12,198.11c22.92-7.44,58.44-10.55,58.44-10.55l.74,4.18s-32,32.08-51.52,40.52C21.69,237.93,7.11,237,3.75,226.17Z"/><path class="cls-4" d="M38.58,228.17c-12.31,5.48-25.92,4.78-28.93-5.34-2.18-7.33,2.93-18,16.77-24.48C7.86,204.64,1.05,217.51,3.75,226.17c3.36,10.82,17.94,11.76,31,6.09,19.51-8.44,51.52-40.52,51.52-40.52l-.13-.75C80.54,196.55,54.82,220.92,38.58,228.17Z"/></g><g id="wrist_left_cup" data-name="wrist left cup"><path class="cls-18" d="M101.57,197.61a7.31,7.31,0,0,1-1.49.16c-3.86,0-5.91-3-5.91-6.6s2-6.59,5.91-6.59a7.31,7.31,0,0,1,1.49.15V182a10.79,10.79,0,0,0-1.72-.15c-5.47,0-8.37,4.19-8.37,9.35s2.9,9.36,8.37,9.36a10.79,10.79,0,0,0,1.72-.15Z"/><path class="cls-19" d="M91.49,190.79c0,.13,0,.25,0,.38,0,5.17,2.9,9.36,8.37,9.36a10.79,10.79,0,0,0,1.72-.15v-.76a10.79,10.79,0,0,1-1.72.15C94.51,199.77,91.63,195.78,91.49,190.79Z"/><path class="cls-19" d="M94.17,190.42c0,.13,0,.25,0,.37.14-3.46,2.16-6.21,5.89-6.21a7.31,7.31,0,0,1,1.49.15V184a7.31,7.31,0,0,0-1.49-.16C96.22,183.82,94.17,186.78,94.17,190.42Z"/><rect class="cls-18" x="101" y="176.84" width="21.31" height="28.66"/><rect class="cls-20" x="111.38" y="176.84" width="10.94" height="28.66"/><rect class="cls-19" x="114.9" y="176.84" width="5.78" height="28.66"/><rect class="cls-21" x="101" y="176.84" width="21.31" height="1.26"/><path class="cls-21" d="M102.51,177.59h7.17s-2.83,15.28-4.25,15.28S102.51,177.59,102.51,177.59Z"/><path class="cls-21" d="M103.83,204.56h4.06s-1.56-5.09-2.46-5.09S103.83,204.56,103.83,204.56Z"/><rect class="cls-19" x="101" y="204.85" width="21.31" height="0.65"/><path class="cls-22" d="M110.71,175.35a11.17,11.17,0,0,0-.63-5.15c-1.84-4.48-4.9-6.67-.38-9.06s5.54-3.77,5.16-4.65-4.4-1.76-4.91-2.64,2.52-3.27,2.77-4.9a34.12,34.12,0,0,0,.5-7.67s1.64,6.16,1.39,7.79-.63,3.77-.63,3.77,4.15,2.27,4.53,3.65,1.25,5.41.62,6.29-7.29,3.9-7.54,5.15.63,3.4.63,4.28S110.71,175.35,110.71,175.35Z"/><path class="cls-3" d="M99.26,185.45c-2.05-.15-9.85.92-13.93,2.18-2.65,2.6.73,4.37.73,4.37s8.43,5.56,10.73,5.41c0,0,1.88.29,1.56-2,0,0,0-.07.05-.1a2,2,0,0,0,.93-3v-.05a2.51,2.51,0,0,0,.64-3.74c0-.09,0-.18,0-.27C100.31,187.62,101.26,185.64,99.26,185.45Z"/><path class="cls-4" d="M99.4,185.48c.77.59.13,1.91-.11,2.35,0,.08,0,.17,0,.25a2.4,2.4,0,0,1-.61,3.59v.05a1.94,1.94,0,0,1-.9,2.89l0,.1c.31,2.24-1.5,2-1.5,2-2.09.14-10.89-5.66-11.88-6.91.11,1.25,1.73,2.24,1.73,2.24s8.43,5.56,10.73,5.41c0,0,1.88.29,1.56-2,0,0,0-.07.05-.1a2,2,0,0,0,.93-3v-.05a2.51,2.51,0,0,0,.64-3.74c0-.09,0-.18,0-.27C100.3,187.64,101.2,185.75,99.4,185.48Z"/></g><g id="laughing"><path class="cls-23" d="M141.83,40.87c-1,6.6-4.89,11.5-8.81,10.93s-6.32-6.37-5.37-13,4.89-11.49,8.81-10.93S142.78,34.27,141.83,40.87Z"/><path class="cls-23" d="M81.41,25.79S78.35,17.86,85.26,14c5.34-3,33-4.43,38.59-7.23S128.28,0,128.28,0s11.41,6.93,11.19,24.48-15.39,23.43-15.39,23.43L87.71,40Z"/><path class="cls-23" d="M102.78,64.57c4.58,20.1,4.27,30.18-2.9,32.65C91,100.29,69.59,58.29,70.37,40.41c.39-8.92,8.19-14.91,14.75-15.48C92.73,24.27,98.19,44.48,102.78,64.57Z"/><path class="cls-4" d="M100,83a8.38,8.38,0,1,1-9.29-7.34A8.37,8.37,0,0,1,100,83Z"/><path class="cls-3" d="M140.84,49.25c4.76,24.93,12.76,34.41,12.58,41.41-.36,13.64-12.5,27-20,29.84-6.52,2.47-32.7-5-37.43-18.34-4.6-13-12.28-53.64,1.58-64.06C122.16,19.61,139.78,35.67,140.84,49.25Z"/><path class="cls-4" d="M105,104.43c-4.28-7.07-21.32-63.56,9-74.16-5,1-10.46,3.4-16.36,7.83C83.7,48.52,91.38,89.16,96,102.16c4.73,13.37,31.37,21,37.43,18.34s7.31-4.91,7.31-4.91-5.38,4.59-11.82,4C116.64,118.38,107,107.89,105,104.43Z"/><path class="cls-16" d="M125.93,58.82a11.2,11.2,0,0,0-2,7.37c.87,7.75,12,12,11.63,15.74-.19,2-9.55,4.78-9.55,5.53s12.39-1.55,12.3-5.29c0-4.14-12.47-10.29-13.38-18.32A8.86,8.86,0,0,1,125.93,58.82Z"/><path class="cls-16" d="M89.31,84.5a3.22,3.22,0,0,1,2.82-3.58,3.56,3.56,0,0,1,.73,0,3.64,3.64,0,0,0-2.24-.46,3.69,3.69,0,0,0,.86,7.32,3.62,3.62,0,0,0,1.39-.46A3.21,3.21,0,0,1,89.31,84.5Z"/><path class="cls-23" d="M116,29.64c-28,3.47-24.25,31.73-20.65,54l-2.83-.19C74.58,49.54,79.5,21.06,116,29.64Z"/><path class="cls-24" d="M87.15,14.84a4,4,0,0,0-1.63,5.66C87.59,24.27,103.81,27,114.38,25c11.88-2.26,23.08-12.7,13.9-25,0,0,2.25,3.93-3.84,7.55C117.46,11.69,93,11.44,87.15,14.84Z"/><path class="cls-24" d="M72.13,38S73.82,28.8,81,28.8s8.3,7.35,7.36,10.75-5.1,19.24-9.06,19.8S70.81,48,72.13,38Z"/><path class="cls-25" d="M81.41,25.79a98.81,98.81,0,0,0,20.3,9.48l-1.24,1.12S87.11,31.27,81.41,25.79Z"/><path class="cls-25" d="M128.28,0c.19.18.35.37.53.56C128.48.19,128.28,0,128.28,0Z"/><path class="cls-25" d="M123.81,30.28l.13,0S142.61,14.74,128.81.56c2.41,2.68,11.52,14.84-6.62,29.42l.3.06C122.94,30.11,123.38,30.18,123.81,30.28Z"/><path class="cls-25" d="M133.66,5.26s8.79,14.94-5.47,26.47l1,.46S143.49,21.25,133.66,5.26Z"/><polygon class="cls-25" points="92.89 61.61 76.31 65.35 76.72 66.34 92.92 62.87 92.89 61.61"/><polygon class="cls-25" points="93.05 65.51 77.9 69.12 78.33 70.1 93.18 67.26 93.05 65.51"/><path class="cls-4" d="M138.61,108.89c.22.88-1.44,3-4.19,3.74s-5.56-.36-5.78-1.23,1.84-2.15,4.59-2.85S138.39,108,138.61,108.89Z"/><path class="cls-23" d="M99.48,62s8-3.77,11.06-10.56l-3.27-2.51S104,56,98.47,60Z"/><path class="cls-23" d="M130.86,45.5l-.46,4.07s5.32,3.9,11.13,4l0-3S137.2,49.58,130.86,45.5Z"/><path class="cls-26" d="M105.07,73.25c-.56-.76,14.05-9.43,12.83-2.46-.28.44-.88-1.16-3.46-1C109.67,70.05,105.4,73.68,105.07,73.25Z"/><path class="cls-26" d="M131.05,68.33c-.57-.76,12.69-8.1,10.86-1.56-.27.44-.88-1.17-3.45-1C133.69,66,131.38,68.77,131.05,68.33Z"/><path class="cls-27" d="M115.85,96.93l27.45-8s-3.53,14.1-11,16S115.85,96.93,115.85,96.93Z"/><path class="cls-28" d="M115.85,96.93l27.45-8s-3.53,14.1-11,16S115.85,96.93,115.85,96.93Z"/><path class="cls-29" d="M125.63,100.12c7-1.82,11.63-.33,10,2a7.43,7.43,0,0,1-3.12,2.1C129.21,105.44,119.47,101.73,125.63,100.12Z"/><path class="cls-23" d="M116.43,97s-1.53,1.55-2,1.62,2.09-4.23,2.46-4S116.43,97,116.43,97Z"/><path class="cls-23" d="M143,89.53s-1.66-1.39-1.78-1.9,4.39,1.75,4.16,2.14S143,89.53,143,89.53Z"/><path class="cls-30" d="M120.77,96.33l17.74-4.93s-.08,2.71-8.47,4.69C121.8,98,120.77,96.33,120.77,96.33Z"/></g></g></g></g></svg>