<svg width="60" height="60" viewBox="0 0 60 60" fill="none" xmlns="http://www.w3.org/2000/svg" id="i-1-4-g">
<path d="M47.3055 20.0022C44.6742 15.3513 40.3403 12.0958 35.1551 10.7005C30.0473 9.30527 24.6299 10.0029 19.9864 12.7159C15.3429 15.3513 12.0925 19.6921 10.6994 24.8855C9.30637 30.0014 10.0029 35.4274 12.7116 40.0007C15.3429 44.6516 19.6768 47.9071 24.862 49.3024C26.5646 49.7675 28.3446 50 30.0473 50C33.5299 50 36.9351 49.0698 40.0307 47.287C44.6742 44.6516 47.9247 40.3108 49.3177 35.1174C50.7107 30.079 49.9368 24.653 47.3055 20.0022ZM46.222 34.4197C45.0612 38.7605 42.2751 42.4037 38.4055 44.6516C34.536 46.8995 29.9699 47.5196 25.6359 46.3569C21.302 45.1166 17.6646 42.3261 15.4203 38.4505C13.1759 34.5748 12.5568 30.0015 13.7177 25.6607C14.9559 21.3199 17.742 17.6768 21.6116 15.4289C24.1655 13.9561 27.029 13.181 29.9699 13.181C31.4403 13.181 32.9107 13.4135 34.3812 13.7236C38.7151 14.9638 42.2751 17.7543 44.5194 21.63C46.7638 25.5057 47.3829 30.079 46.222 34.4197Z" fill="url(#paint0_angular_1813_2739)"/>
<path d="M39.889 27.7268L26.972 20.7382C26.0894 20.2873 25.0464 20.2873 24.1639 20.7382C23.2814 21.189 22.8 22.0908 22.8 22.9926V36.9699C22.8 37.9468 23.3616 38.7734 24.1639 39.2243C24.5651 39.4497 25.0464 39.6 25.5278 39.6C26.0092 39.6 26.4906 39.4497 26.8917 39.2243L39.8088 32.2356C40.6913 31.7847 41.1727 30.883 41.1727 29.9812C41.3331 29.0795 40.7715 28.1777 39.889 27.7268ZM37.4821 29.9812L26.0894 36.2184V23.8192L37.4821 29.9812Z" fill="url(#paint1_angular_1813_2739)"/>
<path d="M31.847 14.8189C31.4508 14.7463 31.0545 14.8914 30.6583 15.1091C30.3413 15.3268 30.1035 15.6895 30.0243 16.1249C29.8658 16.923 30.4998 17.7211 31.4508 17.7937C34.7792 18.229 37.7907 19.8252 39.8512 22.2196C40.1682 22.5823 40.6437 22.8 41.1192 22.8C41.5154 22.8 41.8324 22.7274 42.1494 22.5098C42.8627 22.0019 43.0212 21.0587 42.4664 20.4057C39.8512 17.3583 36.0472 15.3268 31.847 14.8189Z" fill="url(#paint2_angular_1813_2739)"/>
<defs>
<radialGradient id="paint0_angular_1813_2739" cx="0" cy="0" r="1" gradientUnits="userSpaceOnUse" gradientTransform="translate(50 4.80001) rotate(-93.2878) scale(75.324 81.2703)">
<stop stop-color="#FFA502"/>
<stop offset="1" stop-color="#FF6348"/>
</radialGradient>
<radialGradient id="paint1_angular_1813_2739" cx="0" cy="0" r="1" gradientUnits="userSpaceOnUse" gradientTransform="translate(50 4.80001) rotate(-93.2878) scale(75.324 81.2703)">
<stop stop-color="#FFA502"/>
<stop offset="1" stop-color="#FF6348"/>
</radialGradient>
<radialGradient id="paint2_angular_1813_2739" cx="0" cy="0" r="1" gradientUnits="userSpaceOnUse" gradientTransform="translate(50 4.80001) rotate(-93.2878) scale(75.324 81.2703)">
<stop stop-color="#FFA502"/>
<stop offset="1" stop-color="#FF6348"/>
</radialGradient>
</defs>
</svg>
