<svg width="60" height="60" viewBox="0 0 60 60" fill="none" xmlns="http://www.w3.org/2000/svg"  id="i-1-3-g">
<path d="M22.7518 52C22.6008 52 22.2988 52 22.1478 51.8467C21.5437 51.5401 21.2417 50.927 21.3927 50.3138L25.3189 32.9922H18.5237C17.9196 32.9922 17.4666 32.6857 17.1646 32.0725C16.8626 31.6126 17.0136 30.9995 17.3156 30.5396L36.1912 8.46608C36.6442 8.00621 37.2482 7.85292 37.8522 8.1595C38.4562 8.46608 38.7583 9.07923 38.6073 9.84567L34.6811 27.1673H41.4763C42.0804 27.1673 42.5334 27.4738 42.8354 28.087C43.1374 28.5469 42.9864 29.16 42.6844 29.6199L23.9598 51.5401C23.6578 51.8467 23.2048 52 22.7518 52ZM21.6948 30.0798H27.1309C27.5839 30.0798 28.0369 30.233 28.1879 30.6929C28.49 30.9995 28.49 31.4593 28.49 31.9192L25.4699 45.2553L38.4562 30.0798H33.0201C32.5671 30.0798 32.1141 29.9265 31.9631 29.4666C31.661 29.16 31.661 28.7002 31.661 28.2403L34.6811 14.9042L21.6948 30.0798Z" fill="url(#paint0_angular_1813_2719)"/>
<defs>
<radialGradient id="paint0_angular_1813_2719" cx="0" cy="0" r="1" gradientUnits="userSpaceOnUse" gradientTransform="translate(43 2.28001) rotate(-91.9442) scale(82.7676 52.8823)">
<stop stop-color="#FFA502"/>
<stop offset="1" stop-color="#FF6348"/>
</radialGradient>
</defs>
</svg>
