<svg width="60" height="60" viewBox="0 0 60 60" fill="none" xmlns="http://www.w3.org/2000/svg" id="i-1-2">
<path d="M48.7733 12.7094H43.5317V11.2834C43.5317 10.5704 42.9573 10 42.2393 10C41.5212 10 40.875 10.5704 40.875 11.2834V24.902C40.7314 30.2496 36.3515 33.9572 30.1765 33.9572H29.8175C23.7143 33.9572 19.3343 30.2496 19.1189 25.0446V12.6381H21.9192V23.3333C21.9192 23.6898 22.0628 24.0463 22.2782 24.2603C22.4936 24.5455 22.8526 24.6881 23.2116 24.6881C23.5707 24.6881 23.9297 24.5455 24.1451 24.3316L26.2991 22.2638L28.4532 24.3316C28.9558 24.8307 29.8175 24.8307 30.3201 24.3316C30.6073 24.0463 30.7509 23.7611 30.6791 23.4046V12.7094H37.5003C38.2183 12.7094 38.7928 12.139 38.7928 11.426C38.7928 10.713 38.3619 10 37.6439 10H17.8983C17.1802 10 16.6058 10.5704 16.6058 11.2834V12.7094H11.2924C10.5744 12.7094 10 13.2799 10 13.9929V19.8396C10 23.4046 12.9439 26.328 16.534 26.328C16.534 26.328 16.6058 26.328 16.6776 26.328C17.3956 31.4617 21.273 35.2406 26.8018 36.2389V44.082C24.3605 44.5811 21.8474 45.7932 21.1294 47.4332H19.4779C18.7599 47.4332 18.1855 48.0036 18.1855 48.7166C18.1855 49.4296 18.7599 50 19.4779 50H40.4442C41.1622 50 41.7367 49.4296 41.7367 48.7166C41.7367 48.0036 41.1622 47.4332 40.4442 47.4332H38.7928C38.1465 45.7932 35.6334 44.5811 33.1922 44.082V36.2389C38.721 35.2406 42.5983 31.3904 43.3163 26.328C43.3881 26.328 43.3881 26.328 43.4599 26.328C47.05 26.328 49.9939 23.4046 49.9939 19.8396V13.9929C50.0657 13.2799 49.4913 12.7094 48.7733 12.7094ZM47.4808 15.3476V19.9109C47.4808 22.0499 45.6858 23.7611 43.5317 23.7611V15.3476H47.4808ZM35.1308 47.4332H24.9349C26.0837 46.8627 27.8788 46.3636 30.0329 46.3636C32.2587 46.3636 33.982 46.8627 35.1308 47.4332ZM29.4584 43.7968V36.5241C29.6021 36.5241 29.7457 36.5241 29.8893 36.5241H30.2483C30.3919 36.5241 30.5355 36.5241 30.6791 36.5241V43.7968C30.4637 43.7968 30.3201 43.7968 30.1047 43.7968C29.8175 43.7968 29.6739 43.7968 29.4584 43.7968ZM24.5759 20.2674V12.6381H28.0942V20.2674L27.2326 19.4118C26.9454 19.1979 26.6582 19.0553 26.2991 19.0553C25.9401 19.0553 25.6529 19.1979 25.3657 19.4118L24.5759 20.2674ZM16.3904 15.3476V23.7611C14.3081 23.6898 12.6567 21.9786 12.5849 19.9109V15.3476H16.3904Z" fill="black"/>
<path d="M33.9102 28.6809C32.8331 29.18 31.6125 29.4653 30.4637 29.4653H30.1047C28.8122 29.4653 27.448 29.18 26.2991 28.5383C25.6529 28.1818 24.8631 28.467 24.5041 29.1087C24.3605 29.3939 24.2887 29.7505 24.4323 30.107C24.5041 30.4635 24.7913 30.6774 25.0785 30.8913C26.6581 31.6756 28.3814 32.1034 30.1047 32.1034H30.4637C32.0433 32.1034 33.623 31.7469 34.9872 31.1052C35.6334 30.82 35.9206 30.0357 35.6334 29.3939C35.418 28.9661 35.059 28.7522 34.6282 28.6809V28.3957L33.9102 28.6809Z" fill="black"/>
</svg>
