<svg xmlns="http://www.w3.org/2000/svg" xmlns:xlink="http://www.w3.org/1999/xlink" viewBox="0 0 349.22 448.85"><defs><style>.cls-1{fill:#c4c4c4;}.cls-2{fill:#666;}.cls-3{fill:#e5bc85;}.cls-4{fill:#d0a16d;}.cls-5{fill:#bf5616;}.cls-6{fill:#986f4c;}.cls-7{fill:#815632;}.cls-8{fill:#be935e;}.cls-9{fill:#3a3436;}.cls-10{fill:#3c6684;}.cls-11,.cls-12{opacity:0.5;}.cls-11{fill:url(#Безымянный_градиент_143);}.cls-13{fill:url(#Безымянный_градиент_143-2);}.cls-14{fill:#559496;}.cls-15{fill:#eaeaea;}.cls-16{fill:#e7d7b3;}.cls-17{fill:#e0e0e0;}.cls-18{fill:#ff731d;}.cls-19{fill:#ff8f4a;}.cls-20{fill:#c4915a;}.cls-21{fill:#fff;}.cls-22{fill:#b48a5b;}.cls-23{fill:#976943;}.cls-24{fill:#8e623f;}.cls-25{fill:#c39969;}.cls-26{fill:#a67751;}.cls-27{fill:#d7a875;}.cls-28{fill:#6d4935;}.cls-29{fill:#7a563d;}.cls-30{fill:#654131;}.cls-31{fill:#f7e3cb;}.cls-32{fill:#613f30;}.cls-33{fill:#8c633b;}</style><linearGradient id="Безымянный_градиент_143" x1="171.03" y1="280.24" x2="86.94" y2="262.28" gradientUnits="userSpaceOnUse"><stop offset="0" stop-color="#3c6684"/><stop offset="1" stop-color="#233d57"/></linearGradient><linearGradient id="Безымянный_градиент_143-2" x1="113.65" y1="279.06" x2="50.78" y2="263.55" xlink:href="#Безымянный_градиент_143"/></defs><title>lunch-break</title><g id="Слой_2" data-name="Слой 2"><g id="Слой_8" data-name="Слой 8"><path class="cls-1" d="M164.13,137.5c-17.41,5.24-10.36,92.16,17.69,88.72C232.89,220,172,135.13,164.13,137.5Z"/><path class="cls-2" d="M189.37,210.12C179,212.06,162,164.07,160.72,139.89c-14.08,13.33-5.61,89.6,21.1,86.33,13.31-1.64,18.85-10,19.6-21.42C198.28,208.49,195.92,208.9,189.37,210.12Z"/><path class="cls-1" d="M186.77,227.3c-11.88,2.56-23.47-4.48-25.9-15.73s5.23-22.44,17.11-25,23.48,4.48,25.9,15.73S198.65,224.73,186.77,227.3Z"/><g id="forearm_right" data-name="forearm right"><path class="cls-3" d="M175.63,222.07c-8.93-4.31-13.15-17.65-4-37.28C182.64,161.24,205,130,205,130l4.91,1.66s1,48.78-6.65,70.38C198.11,216.57,186.64,227.38,175.63,222.07Z"/><path class="cls-4" d="M202.11,194.32c-5.11,13.59-14.45,28.15-26.79,23.28-6.66-2.63-7.58-10.27-8.65-15.88-1,10.36,2.91,17.43,9,20.35,11,5.31,22.48-5.5,27.65-20,7.69-21.6,6.65-70.38,6.65-70.38l-.87-.29C209.2,141.88,208.6,177.08,202.11,194.32Z"/></g><g id="wrist_right_OK" data-name="wrist right OK"><path class="cls-3" d="M205,130a36.28,36.28,0,0,1,1.52-9.23c1.53-5.37,1.19-6,1.77-11.6s4.31-.76,3.69,4.89c-.48,4.36-.55,5.54,1.75,4.78s10.28-3.63,11.86-2.39c1.79,1.41,0,12.18-4,14.33-2.27,1.22-9.66,1.56-11.66.88A11.08,11.08,0,0,1,205,130Z"/><path class="cls-4" d="M225.61,116.48c-5.7-1.24-12.79,3.55-13.49,2.41,3.38,7.13-2.83,7.23-2.65,7.79.11.33,1.43.18,4.26,1.35s5,3.56,7.5,2.94a2.43,2.43,0,0,0,.36-.16C225.61,128.66,227.4,117.89,225.61,116.48Z"/><path class="cls-4" d="M209.06,131.58c2.89.91,10.26.45,12.53-.77a4.4,4.4,0,0,0,1.9-1.84A72.83,72.83,0,0,1,209.06,131.58Z"/><path class="cls-3" d="M226.92,117.32c.22,1.62-2.36,2.38-5.61,2.83s-6-.11-6.17-1.23,2.43-1.93,5.69-2.38S226.7,115.7,226.92,117.32Z"/><path class="cls-3" d="M226.74,124.61c.06,1.63-2.58,2.14-5.86,2.26s-6-.69-6-1.82,2.61-1.69,5.89-1.81S226.68,123,226.74,124.61Z"/><path class="cls-3" d="M225.2,128.18c-.18,1.4-2.11,1.76-4.71,1.74s-4.69-.81-4.68-1.79,2.11-1.36,4.71-1.35S225.42,126.5,225.2,128.18Z"/><path class="cls-3" d="M227.48,120.67c.19,1.62-2.89,2.39-6.74,2.84s-7.08-.1-7.21-1.22,2.95-2,6.8-2.39S227.29,119.05,227.48,120.67Z"/></g><path class="cls-5" d="M153.07,307.27H41.77a11,11,0,0,1,10.88-11.15h89.54a11,11,0,0,1,10.88,11.15Z"/><path class="cls-5" d="M142.63,296.12h-48a11.15,11.15,0,0,1,11.15,11.15h48A11.15,11.15,0,0,0,142.63,296.12Z"/><path class="cls-5" d="M41.94,305.55a9.74,9.74,0,0,0-.17,1.72h111.3a9.74,9.74,0,0,0-.17-1.72Z"/><rect class="cls-6" x="34.75" y="372.05" width="126.13" height="6.86" transform="translate(473.3 277.67) rotate(90)"/><rect class="cls-7" x="36.9" y="374.2" width="126.13" height="2.57" transform="translate(475.45 275.52) rotate(90)"/><rect class="cls-7" x="83.23" y="325.29" width="29.17" height="6.86" transform="translate(426.54 230.9) rotate(90)"/><rect class="cls-6" x="37.75" y="306.41" width="120.13" height="14.59"/><rect class="cls-7" x="79.8" y="306.41" width="77.22" height="14.59"/><polygon class="cls-6" points="133.85 445.42 60.92 445.42 60.92 442.93 90.22 436.83 104.56 436.83 133.85 442.93 133.85 445.42"/><polygon class="cls-6" points="106.28 437.69 88.56 437.69 91.85 419.67 102.99 419.67 106.28 437.69"/><polygon class="cls-7" points="91.84 419.67 102.97 419.67 106.26 437.69 133.78 442.84 85.28 442.84 93.86 438.42 96.18 421.85 91.84 419.67"/><rect class="cls-8" x="37.75" y="306.41" width="120.13" height="1.72"/><path class="cls-9" d="M146,402.5s-1.68,4.86-1.49,6.21,5.92,15.4,10.51,14.78.88-7.24-2-10.68c-5.3-6.34-3.74-9.38-3.74-9.38Z"/><path class="cls-9" d="M125.87,404.38s-.42,6.63-1.08,11.58c-.55,4.14,1.27,8.19,3.86,8.38s3.56-4,3.37-8-.85-6.41-1.28-11.46C130.5,402,125.87,404.38,125.87,404.38Z"/><path class="cls-10" d="M151,407l-6.53-2.32s2-77,7.08-93.33c2.54-8.14,16.42-32.13,23.93-41.94s29.18-4.32,23.84,12.62C190.8,305.56,174.74,343.46,151,407Z"/><path class="cls-10" d="M134.84,241.76s55.73,21.77,59.15,25.3S171.64,297,171.64,297l-71.35-.5L83.79,249S124.91,235.12,134.84,241.76Z"/><path class="cls-11" d="M134.84,241.76s55.73,21.77,59.15,25.3S171.64,297,171.64,297l-71.35-.5L83.79,249S124.91,235.12,134.84,241.76Z"/><path class="cls-10" d="M100.93,273.91S96.15,311.6,96.88,326s27.58,79.65,27.58,79.65l7.61-.74c-3.2-110.75-1-137.11-1-137.11C130.08,258.43,103.14,256.51,100.93,273.91Z"/><path class="cls-10" d="M51,233.18s-7.47,31.63-6.55,41.26c.63,6.49,7.87,16.65,10.79,20.18s65.93,7.48,70.66,2.18,5.92-26.5,4.88-30.16c-2.2-7.75-61.3-24.62-61.3-24.62Z"/><g class="cls-12"><path class="cls-13" d="M51,233.18s-7.47,31.63-6.55,41.26c.63,6.49,7.87,16.65,10.79,20.18s65.93,7.48,70.66,2.18,5.92-26.5,4.88-30.16c-2.2-7.75-61.3-24.62-61.3-24.62Z"/></g><path class="cls-1" d="M57.42,127.65C65.36,120.3,121.87,116,121.87,116s44.95,17.71,48.37,25.66c5,11.68-35.29,78.93-35.89,83.12-1.75,12.27,10.78,17.09,10.41,20-.19,1.44-13.46,14-51.51,11.87-25.62-1.41-48.41-9.58-47.94-13.22C45.61,241.12,41.66,142.24,57.42,127.65Z"/><path class="cls-14" d="M117.05,158.22s-6.87,17-10.78,24.67c0,0,5.18,17.44,6.9,17.89s11.45-11.48,11.45-11.48l-5-28.93Z"/><path class="cls-15" d="M81.42,121c4.6,8.42,22.51,27.76,42.21,42.29C141.53,150.12,159,133,159,133c-15.25-9.42-37.17-17-37.17-17S101.93,117.44,81.42,121Z"/><polygon class="cls-16" points="121.85 135.34 124.41 138.35 117.05 158.22 119.61 160.37 128.79 137.86 124.13 132.24 121.85 135.34"/><path class="cls-17" d="M95.22,118.88l19.51,24.7,14.35-10.82-20.34-15.53C104.78,117.66,100.17,118.2,95.22,118.88Z"/><path class="cls-17" d="M151.43,129l-.29-.46c-3.13-1.63-6.33-3.16-9.41-4.56l-12.51,8.8,10.79,13Z"/><path class="cls-17" d="M89.92,132.36c11.61-5.33,21.57-8.82,21.57-8.82l-13.76-5L81.42,121A112.11,112.11,0,0,0,89.92,132.36Z"/><path class="cls-18" d="M116.5,197.26c1.52.23,11.79-12.31,11.79-12.31s3.77-30.73,2.1-46.6c.06-1.93-3.54-3.23-4.41-.55-5.3,23.52-15.69,45.22-15.69,45.22S115,197,116.5,197.26Z"/><polygon class="cls-5" points="121.72 129.39 136.4 131.27 130.39 138.35 125.98 137.81 121.86 132.83 121.72 129.39"/><path class="cls-19" d="M117.2,194.2c-.78-.13-3.71-10.11-3.71-10.11,5.89-11.16,13.85-44.94,13.85-44.94l3-.8-3-.91-1.32-2.35,5.23-4.48-7.25-.92-2.21,2.62,0,.52,4.12,5c-5.3,23.52-15.69,45.22-15.69,45.22s4.69,14,6.21,14.24S128.29,185,128.29,185,118,194.33,117.2,194.2Z"/><polygon class="cls-20" points="145.78 126 129.91 130.34 100.58 120.16 110.07 101.32 146.77 107.7 145.78 126"/><polygon class="cls-21" points="95.56 115.81 103.88 110.48 129.91 130.34 115.59 141.12 95.56 115.81"/><polygon class="cls-21" points="130.05 130.39 140.84 143.31 152.23 126.63 147.06 118.44 130.05 130.39"/><path class="cls-1" d="M77,214.51C62.62,202.69,57.23,136.88,67,123.67c2.59-.64-8,2.53-9.56,4C41.66,142.24,45.61,241.12,45.31,243.42c-.47,3.64,22.32,11.81,47.94,13.22,38.05,2.11,51.32-10.43,51.51-11.87.37-2.91-12.16-7.73-10.41-20C109.83,231.69,91.47,226.34,77,214.51Z"/><rect class="cls-22" x="12.87" y="235.2" width="7.72" height="213.65"/><rect class="cls-23" x="326.91" y="235.2" width="7.72" height="213.65"/><rect class="cls-22" x="103.82" y="235.2" width="4.29" height="213.65"/><rect class="cls-23" x="108.11" y="235.2" width="4.29" height="213.65"/><rect class="cls-22" x="12.87" y="236.05" width="95.24" height="21.45"/><rect class="cls-24" x="239.39" y="235.2" width="7.72" height="213.65"/><rect class="cls-23" x="108.11" y="236.05" width="226.52" height="21.45"/><rect class="cls-25" y="228.33" width="110.69" height="13.73"/><rect class="cls-26" x="108.11" y="228.33" width="241.11" height="13.73"/><rect class="cls-27" y="228.33" width="349.22" height="2.57"/><g id="bored"><path class="cls-28" d="M170.47,46.12c-2.41,6.77-7.63,11.11-11.65,9.68s-5.34-8.09-2.92-14.87,7.62-11.11,11.65-9.67S172.88,39.34,170.47,46.12Z"/><path class="cls-28" d="M109.78,17.28s-1.55-9,6.59-11.65c6.28-2,35.83,2.34,42.34.58S164.84,0,164.84,0s10.59,9.76,6.62,28.27-21.27,21.5-21.27,21.5L113.42,33.64Z"/><path class="cls-28" d="M124.11,62.86c.57,22.23-1.91,32.83-10,33.91C104,98.11,90.35,49.14,95,30.4c2.31-9.35,11.85-14,18.9-13.23C122.07,18.09,123.54,40.62,124.11,62.86Z"/><path class="cls-4" d="M117.21,81.77A9,9,0,1,1,109,72,9,9,0,0,1,117.21,81.77Z"/><path class="cls-3" d="M167.63,54.76c-.28,27.38,6.16,39.12,4.48,46.48-3.29,14.35-19,25.87-27.53,27.29-7.41,1.23-33.52-12.22-35.67-27.37-2.1-14.73-1.55-59.35,15.33-67.41C154.19,19.44,169.4,40.18,167.63,54.76Z"/><path class="cls-4" d="M117.91,105.47c-3-8.39-9-71.76,25.3-76.52-5.46,0-11.79,1.37-19,4.8-16.88,8.06-17.43,52.68-15.33,67.41,2.15,15.15,28.7,28.91,35.67,27.37s8.79-3.63,8.79-3.63-6.67,3.71-13.35,1.68C127.3,122.71,119.38,109.58,117.91,105.47Z"/><path class="cls-20" d="M149.82,61.71a14.08,14.08,0,0,0-3.73,8.14c-.8,9.21,10,16.69,8.79,20.93-.65,2.3-11.15,3.42-11.32,4.29s13.44,1,14.17-3.38c.92-4.83-10.89-14.79-10.06-24.35A11.12,11.12,0,0,1,149.82,61.71Z"/><path class="cls-20" d="M105.61,81.06a3.48,3.48,0,0,1,3.76-3.18,3.79,3.79,0,0,1,.76.15,3.93,3.93,0,0,0-2.27-1,4,4,0,0,0-.65,7.93,4.16,4.16,0,0,0,1.58-.19A3.49,3.49,0,0,1,105.61,81.06Z"/><path class="cls-28" d="M145.52,28.72c-30.31-2.29-32.41,28.39-33.36,52.74l-3-.8C97.49,41,108.76,11.88,145.52,28.72Z"/><path class="cls-29" d="M118.18,6.93a4.27,4.27,0,0,0-2.93,5.63C116.64,17,133.2,23.38,144.8,23.5c13,.14,27.13-8.51,20-23.5,0,0,1.54,4.64-5.67,7.16C150.9,10.06,125.09,4.58,118.18,6.93Z"/><path class="cls-29" d="M97.35,28.26s3.76-9.41,11.34-7.88,7.21,9.55,5.49,12.93-9.49,19.27-13.8,19S93.82,38.55,97.35,28.26Z"/><path class="cls-30" d="M109.78,17.28a106.46,106.46,0,0,0,19.44,14.36l-1.55.92S114.64,24.3,109.78,17.28Z"/><path class="cls-30" d="M164.84,0c.16.24.29.47.44.7C165,.25,164.84,0,164.84,0Z"/><path class="cls-30" d="M153.66,31.07l.13.05S176.85,18.65,165.28.7c2,3.35,9,18.15-13.27,29.71l.31.13C152.78,30.7,153.23,30.88,153.66,31.07Z"/><path class="cls-30" d="M169.41,6.71S175.52,24.38,158,33.54l.91.69S176.39,25.72,169.41,6.71Z"/><polygon class="cls-30" points="114.28 57.74 95.96 58.16 96.17 59.3 114.05 59.07 114.28 57.74"/><polygon class="cls-30" points="113.63 61.86 96.83 62.45 97.08 63.59 113.38 63.75 113.63 61.86"/><polygon class="cls-28" points="142.44 66.16 120.98 66.16 120.98 63.18 142.44 61.01 142.44 66.16"/><polygon class="cls-28" points="154.41 66.16 170.75 66.29 170.78 63.31 154.45 61.01 154.41 66.16"/><path class="cls-31" d="M126.37,69.59s.27,5.56,6,5.56,6.38-5.56,6.38-5.56Z"/><path class="cls-28" d="M132.45,69.1a3,3,0,0,1-5.91,0c0-1.63,1.33-1,3-1S132.45,67.47,132.45,69.1Z"/><polygon class="cls-32" points="125.27 67.97 125.27 69.59 139.86 69.59 139.86 67.42 125.27 67.97"/><path class="cls-31" d="M153.89,69.59s.25,5.06,5.43,5.06,5.8-5.06,5.8-5.06Z"/><path class="cls-28" d="M159.41,69.42a2.65,2.65,0,0,1-5.3,0c0-1.46,1.19-.91,2.65-.91S159.41,68,159.41,69.42Z"/><polygon class="cls-32" points="153.59 68.11 153.59 69.59 166.46 69.59 166.46 67.62 153.59 68.11"/><path class="cls-4" d="M147.79,110.26c-.32,1-2.47,1.29-4.8.56s-4-2.14-3.64-3.18,2.47-1.29,4.8-.56S148.11,109.23,147.79,110.26Z"/><path class="cls-33" d="M156.16,106.45a8.41,8.41,0,0,1-2.14-.34,44.86,44.86,0,0,1-5.1-1.93c-6.13-2.58-14.52-6.11-18.6-.74a.8.8,0,1,1-1.28-1c4.83-6.37,13.88-2.56,20.5.22a44.22,44.22,0,0,0,4.9,1.87c1.67.44,2.13.25,2.2.21a3.36,3.36,0,0,0-.14-.48.81.81,0,1,1,1.5-.6,1.94,1.94,0,0,1-.16,2.15A2.11,2.11,0,0,1,156.16,106.45Z"/><path class="cls-33" d="M129.79,104.54a1.2,1.2,0,0,1-1.63.12,1,1,0,0,1,0-1.49c.38-.47,1.26-.79,1.72-.41A1.42,1.42,0,0,1,129.79,104.54Z"/></g><path class="cls-2" d="M59,128.07c-16.59,7.42,11.57,108.12,38.69,100.16,26.36-7.73,9.72-44.25-7.15-70.15C75.78,135.46,63.52,126,59,128.07Z"/><path class="cls-1" d="M116.83,188c8.62,9.16,6.82,24.86-4,35.06s-26.62,11-35.25,1.89-6.81-24.86,4-35.06S108.21,178.8,116.83,188Z"/><path class="cls-3" d="M86,224.28c-8.45-5.19-12.06-20.79-1-39.39C98.35,162.57,127.32,131,127.32,131l3.57,2.87s-5.54,52.65-15.38,73.37C108.9,221.09,96.39,230.68,86,224.28Z"/><path class="cls-4" d="M115.68,201.16c-6.1,13.2-17.65,22.29-27.29,16.21-7-4.4-10.38-16.67-3.76-31.79-10.61,18.3-7,33.58,1.35,38.7,10.41,6.4,22.92-3.19,29.53-17.09,9.84-20.72,15.38-73.37,15.38-73.37l-.63-.51C129.63,141.81,123.73,183.74,115.68,201.16Z"/><g id="wrist_left" data-name="wrist left"><path class="cls-3" d="M131.58,130.47s2.08-5.9-7.32-9.28c-3.8-2.24-7.23-7.48-9.68-7s2.77,9.15,9,12.4S131.58,130.47,131.58,130.47Z"/><path class="cls-3" d="M114.05,115.18c-.36-2.86,4.68-11.22,1.86-12.25-.84-.31-3.28,5.2-4,7.79s-.49,10.14,2.74,13.5C116.6,126.19,114.63,119.9,114.05,115.18Z"/><path class="cls-3" d="M113.14,113.36a23.06,23.06,0,0,1-.08-5.5c.49-3.88,2.53-8,1.11-8.74s-3.8,5.78-4.35,8.9a13.78,13.78,0,0,0,1.19,7.79C112.54,119.43,113.72,118.08,113.14,113.36Z"/><path class="cls-3" d="M131.21,133.2s1.55-5.41-1.67-7.62-9.86-4.8-11.51-6.91c-1.46-1.89-1-11.16-2.63-11.44-2.23-.38-3.28,13.15-1.07,16.64,1.32,2.09,7.23,7.83,12,10.88C130,137.17,131.21,133.2,131.21,133.2Z"/></g></g></g></svg>