<svg xmlns="http://www.w3.org/2000/svg" viewBox="0 0 80 80"><defs><style>.cls-1{isolation:isolate;}.cls-2{fill:#efce4e;}.cls-3,.cls-5{fill:#c0a23f;}.cls-3,.cls-4{mix-blend-mode:multiply;}</style></defs><title>yell</title><g class="cls-1"><g id="Слой_2" data-name="Слой 2"><g id="Слой_35" data-name="Слой 35"><circle class="cls-2" cx="40" cy="40" r="40"/><circle class="cls-3" cx="56.33" cy="25.85" r="4.2"/><g class="cls-4"><path class="cls-5" d="M51.79,58.34a.65.65,0,0,1-.66-.61,12.59,12.59,0,0,1,2.79-8.92l.13-.15a2.67,2.67,0,0,0,.79-1.41,1.35,1.35,0,0,0-.91-1.12,4.82,4.82,0,0,0-2-.24A49.28,49.28,0,0,0,30.4,51.48a.67.67,0,1,1-.62-1.18,50.62,50.62,0,0,1,22.11-5.73,5.92,5.92,0,0,1,2.56.33,2.7,2.7,0,0,1,1.72,2.37,3.73,3.73,0,0,1-1.1,2.24l-.13.15a11.26,11.26,0,0,0-2.49,8,.66.66,0,0,1-.61.71Z"/><path class="cls-5" d="M49,46.05a.66.66,0,0,1-.56-.3c-.08-.13-2-3.09-.7-5.42A.66.66,0,1,1,48.9,41c-.88,1.62.63,4,.65,4.07a.66.66,0,0,1-.2.92A.68.68,0,0,1,49,46.05Z"/></g><path class="cls-3" d="M19.8,24.76a3.94,3.94,0,0,0-.17,1.09,4.2,4.2,0,0,0,8.4,0,3.94,3.94,0,0,0-.17-1.09Z"/></g></g></g></svg>