<svg width="0" height="0" class="hidden">
  <symbol xmlns="http://www.w3.org/2000/svg" viewBox="0 0 60 60" id="edit">
    <path d="M52.7684 7.2216C49.8227 4.27452 45.0918 4.27452 42.1461 7.1323L42.0568 7.2216L37.2366 12.1334L47.8589 22.6714L52.6792 17.8489C55.6248 14.9912 55.7141 10.258 52.7684 7.2216Z"></path>
    <path d="M33.7554 15.6163L12.6892 36.6031C12.5107 36.7817 12.3322 37.0496 12.2429 37.2282L5.28041 51.3385C4.65556 52.5888 5.10188 54.1069 6.35156 54.7321C6.70862 54.9107 7.06567 55 7.51198 55C7.86904 55 8.22609 54.9107 8.58314 54.7321L22.5975 47.7663C22.8653 47.677 23.0438 47.4983 23.2223 47.3197L44.1992 26.333L33.7554 15.6163Z"></path>
    <path d="M52.5006 55H30.0063C28.6674 55 27.5069 53.839 27.5069 52.4995C27.5069 51.1599 28.6674 49.9989 30.0063 49.9989H52.5006C53.8396 49.9989 55 51.1599 55 52.4995C55 53.9283 53.8396 55 52.5006 55Z"></path>
  </symbol>
  <symbol xmlns="http://www.w3.org/2000/svg" viewBox="0 0 60 60" id="engineer">
    <path d="M33.9106 34.3635L25.6122 26.0553C25.3445 25.7873 24.9875 25.6086 24.5414 25.6086C24.1845 25.6086 23.7383 25.7873 23.4706 26.0553L21.5968 27.9313C21.3291 28.1993 21.1507 28.5567 21.1507 29.0033V31.1474L19.9014 32.3981H17.7599C17.403 32.3981 16.9568 32.5768 16.6891 32.8448L7.14152 42.4037C5.80307 43.833 5 45.7091 5 47.6745C5 49.6399 5.80307 51.4266 7.14152 52.8559C8.5692 54.196 10.3538 55 12.3169 55C14.2799 55 16.1538 54.196 17.4922 52.8559L27.2183 43.1184C27.486 42.8504 27.6644 42.493 27.6644 42.0463V39.9023L28.9137 38.6516H31.0552C31.4121 38.6516 31.8583 38.4729 32.126 38.2049L33.9998 36.3289C34.5352 35.7928 34.5352 34.8995 33.9106 34.3635ZM21.686 40.349L13.3876 48.6572C13.1199 48.9252 12.763 49.1039 12.3169 49.1039C11.9599 49.1039 11.603 48.9252 11.2461 48.6572C10.7107 48.1212 10.7107 47.1385 11.2461 46.6025L19.5445 38.2942C20.0799 37.7582 21.0614 37.7582 21.5968 38.2942C22.3106 38.8303 22.3106 39.7236 21.686 40.349Z"></path>
    <path d="M54.5228 6.75879L53.1843 5.41876C52.7382 4.97208 52.1135 4.88275 51.5782 5.15075L45.7782 7.83082C45.2428 8.09883 44.8859 8.54551 44.8859 9.17086V11.0469L29.806 25.966L33.9998 30.1647L49.0797 15.067H50.9535C51.4889 15.067 52.0243 14.7097 52.292 14.1736L54.9689 8.36684C55.0581 7.83082 54.9689 7.20547 54.5228 6.75879Z"></path>
  </symbol>
  <symbol xmlns="http://www.w3.org/2000/svg" viewBox="0 0 60 60" id="entrance">
    <path d="M34.8834 5L22.9534 9.29338C21.0554 10.0089 19.7901 11.7084 19.7901 13.7657V47.4866H15V5H34.8834Z"></path>
    <path d="M24.4898 15.1073V53.0322C24.4898 54.1055 25.3936 55 26.4781 55C26.7493 55 26.93 55 27.2012 54.9106L44.6443 48.6494C45.4577 48.381 46 47.576 46 46.771V8.84613C46 7.77279 45.0962 6.87833 44.0117 6.87833C43.7405 6.87833 43.5598 6.87833 43.2886 6.96778L25.8455 13.229C25.0321 13.4973 24.4898 14.3023 24.4898 15.1073ZM31.7201 35.6798C30.3644 35.6798 29.3703 34.6064 29.3703 33.3542C29.3703 32.0125 30.4548 31.0286 31.7201 31.0286C32.9854 31.0286 34.07 32.102 34.07 33.3542C34.07 34.6064 32.9854 35.6798 31.7201 35.6798Z"></path>
  </symbol>
  <symbol xmlns="http://www.w3.org/2000/svg" viewBox="0 0 60 60" id="flame">
    <path d="M21.8395 55C16.192 36.7204 28.1247 30 28.1247 30C27.3049 39.767 32.9525 47.3835 32.9525 47.3835C35.0476 46.7563 38.9645 43.8889 38.9645 43.8889C38.9645 47.3835 36.8694 55 36.8694 55C36.8694 55 44.1566 49.4444 46.5249 40.2151C48.8022 30.9857 42.1526 21.6667 42.1526 21.6667C42.517 28.2079 40.3308 34.6595 35.8674 39.5878C36.0496 39.319 36.2318 39.0502 36.4139 38.7814C37.2337 37.2581 38.509 33.1362 37.6892 23.8172C36.6872 10.5556 24.5722 5 24.5722 5C25.5742 13.0645 22.4772 14.8566 15.0989 30.0896C7.81167 45.3226 21.8395 55 21.8395 55Z"></path>
  </symbol>
  <symbol xmlns="http://www.w3.org/2000/svg" viewBox="0 0 60 60" id="grafik_1">
    <path d="M8.64286 33.2857H18.5C19.4036 33.2857 20.1429 34.025 20.1429 34.9286V51.3571C20.1429 52.2607 19.4036 53 18.5 53H8.64286C7.73929 53 7 52.2607 7 51.3571V34.9286C7 34.025 7.73929 33.2857 8.64286 33.2857Z"></path>
    <path d="M41.5 20.1429H51.3571C52.2607 20.1429 53 20.8821 53 21.7857V51.3571C53 52.2607 52.2607 53 51.3571 53H41.5C40.5964 53 39.8571 52.2607 39.8571 51.3571V21.7857C39.8571 20.8821 40.5964 20.1429 41.5 20.1429Z"></path>
    <path d="M25.0714 7H34.9286C35.8321 7 36.5714 7.73929 36.5714 8.64286V51.3571C36.5714 52.2607 35.8321 53 34.9286 53H25.0714C24.1679 53 23.4286 52.2607 23.4286 51.3571V8.64286C23.4286 7.73929 24.1679 7 25.0714 7Z"></path>
  </symbol>
  <symbol xmlns="http://www.w3.org/2000/svg" viewBox="0 0 60 60" id="grafik_2">
    <path d="M49.2773 8C46.6154 8 44.4687 10.1869 44.4687 12.8986C44.4687 14.2107 44.9839 15.4354 45.8426 16.3101L36.9982 34.1551C36.8265 34.1551 36.5689 34.0676 36.3971 34.0676C35.7961 34.0676 35.195 34.1551 34.5939 34.4175L27.8104 26.6322C28.2397 25.9324 28.4114 25.1451 28.4114 24.2704C28.4114 21.5586 26.2648 19.3718 23.6029 19.3718C20.941 19.3718 18.7943 21.5586 18.7943 24.2704C18.7943 25.4076 19.2236 26.5447 19.9964 27.4195L11.6673 42.2903C11.4097 42.2028 11.0662 42.2028 10.8086 42.2028C8.14669 42.2028 6 44.3897 6 47.1014C6 49.8131 8.14669 52 10.8086 52C13.4705 52 15.6172 49.8131 15.6172 47.1014C15.6172 45.9642 15.1878 44.827 14.415 43.9523L22.7442 29.0815C23.6029 29.2565 24.5474 29.169 25.4061 28.8191L32.1896 36.6044C31.7603 37.3042 31.5886 38.0915 31.5886 38.9662C31.5886 41.6779 33.7352 43.8648 36.3971 43.8648C39.059 43.8648 41.2057 41.6779 41.2057 38.9662C41.2057 37.6541 40.6905 36.4294 39.8318 35.5547L48.5903 17.6223C48.7621 17.6223 49.0197 17.7097 49.1914 17.7097C51.8533 17.7097 54 15.5229 54 12.8111C54 10.0994 51.9392 8 49.2773 8ZM10.8086 48.8509C9.94991 48.8509 9.1771 48.1511 9.1771 47.1889C9.1771 46.2266 9.86404 45.5268 10.8086 45.5268C11.7531 45.5268 12.4401 46.2266 12.4401 47.1889C12.4401 48.1511 11.6673 48.8509 10.8086 48.8509ZM23.6029 25.9324C22.7442 25.9324 21.9714 25.2326 21.9714 24.2704C21.9714 23.3956 22.6583 22.6084 23.6029 22.6084C24.4615 22.6084 25.2343 23.3082 25.2343 24.2704C25.2343 25.2326 24.5474 25.9324 23.6029 25.9324ZM36.483 40.6282C35.6243 40.6282 34.8515 39.9284 34.8515 38.9662C34.8515 38.004 35.5385 37.3042 36.483 37.3042C37.3417 37.3042 38.1145 38.004 38.1145 38.9662C38.0286 39.9284 37.3417 40.6282 36.483 40.6282ZM49.2773 14.5606C48.4186 14.5606 47.6458 13.8608 47.6458 12.8986C47.6458 11.9364 48.3327 11.2366 49.2773 11.2366C50.2218 11.2366 50.9088 11.9364 50.9088 12.8986C50.9088 13.8608 50.136 14.5606 49.2773 14.5606Z"></path>
  </symbol>
  <symbol xmlns="http://www.w3.org/2000/svg" viewBox="0 0 60 60" id="letter">
    <path d="M47.5 17H12.5C11.1429 17 10 18.1221 10 19.4545V20.8571L30 29.2026L50 20.8571V19.4545C50 18.1221 48.8571 17 47.5 17Z"></path>
    <path d="M30.5 31.6571C30.3571 31.7273 30.1429 31.7273 30 31.7273C29.8571 31.7273 29.6429 31.7273 29.5 31.6571L10 23.5221V41.5455C10 42.8779 11.1429 44 12.5 44H47.5C48.8571 44 50 42.8779 50 41.5455V23.5221L30.5 31.6571Z"></path>
  </symbol>
  <symbol xmlns="http://www.w3.org/2000/svg" viewBox="0 0 60 60" id="lightning">
    <path d="M26.2121 51.8941C26.7481 52.1295 27.4372 51.9725 27.7435 51.4232L42.8277 26.8611C43.0574 26.4687 43.0574 25.9979 42.8277 25.527C42.598 25.1347 42.2152 24.8992 41.7558 24.8992H31.7251L35.477 9.59693C35.6302 8.96915 35.3239 8.34136 34.7879 8.10594C34.2519 7.87052 33.5628 8.02747 33.2565 8.57678L18.1723 33.1389C17.9426 33.5313 17.9426 34.0021 18.1723 34.473C18.402 34.8653 18.7848 35.1008 19.2443 35.1008H29.2749L25.523 50.4031C25.3698 50.9524 25.6761 51.6586 26.2121 51.8941Z"></path>
  </symbol>
  <symbol xmlns="http://www.w3.org/2000/svg" viewBox="0 0 60 60" id="lncoming">
    <path d="M35.0617 28.3036H45.3208C45.9803 28.3036 46.4933 27.7911 46.4933 27.1321V24.8625C46.4933 24.2036 45.9803 23.6911 45.3208 23.6911H40.5576L50.6702 13.5875C51.1099 13.1482 51.1099 12.4161 50.6702 11.9768L49.0581 10.3661C48.6184 9.92678 47.8856 9.92678 47.4459 10.3661L37.3333 20.5428V15.7839C37.3333 15.125 36.8204 14.6125 36.1609 14.6125H33.8892C33.2297 14.6125 32.7167 15.125 32.7167 15.7839V26.0339C32.79 27.2786 33.8159 28.3036 35.0617 28.3036Z"></path>
    <path d="M47.6658 36.9429C45.1743 36.9429 42.6828 36.5768 40.3378 35.7714C39.1653 35.4054 37.773 35.7714 37.1135 36.4304L32.4969 39.8714C27.1475 37.0161 23.8499 33.7214 21.0652 28.45L24.4361 23.9839C25.3155 23.1054 25.6086 21.8607 25.2422 20.6161C24.4361 18.2732 24.0697 15.7839 24.0697 13.2946C24.0697 11.4643 22.6041 10 20.7721 10H13.2976C11.4656 10.0732 10 11.5375 10 13.3679C10 34.1607 26.9276 51 47.6658 51C49.4978 51 50.9634 49.5357 50.9634 47.7054V40.2375C50.9634 38.4071 49.4978 36.9429 47.6658 36.9429Z"></path>
  </symbol>
  <symbol xmlns="http://www.w3.org/2000/svg" viewBox="0 0 60 60" id="ok">
    <path d="M30 5C16.1607 5 5 16.1607 5 30C5 43.8393 16.1607 55 30 55C43.8393 55 55 43.8393 55 30C55 16.1607 43.75 5 30 5ZM25.5357 33.5714L37.9464 21.1607C38.9286 20.1786 40.5357 20.1786 41.5179 21.1607C42.5 22.1429 42.5 23.75 41.5179 24.7321L27.3214 38.8393C26.3393 39.8214 24.7321 39.8214 23.75 38.8393L18.4821 33.5714C17.5 32.5893 17.5 30.9821 18.4821 30C19.4643 29.0179 21.0714 29.0179 22.0536 30L25.5357 33.5714Z"></path>
  </symbol>
  <symbol xmlns="http://www.w3.org/2000/svg" viewBox="0 0 60 60" id="okdesk">
    <path d="M27.631 22.2499C27.173 21.9643 26.7232 21.6624 26.2489 21.4014C24.5887 20.4957 22.8385 19.8104 20.982 19.3943C19.8371 19.1413 18.7739 17.9583 18.5694 16.6284C18.275 14.7926 19.5099 13.275 20.9166 12.8589C21.7017 12.6305 22.4705 12.7366 23.2392 12.9324C26.3306 13.7319 29.1849 15.0292 31.7938 16.865C33.6911 18.2031 35.384 19.7451 36.8725 21.5237C38.3119 23.2371 39.4977 25.0974 40.4301 27.1208C41.3052 29.0137 41.9594 30.98 42.2293 33.0605C42.4092 34.4965 42.5646 35.9243 42.4419 37.3603C42.3111 39.0247 41.8613 40.6239 41.1252 42.1333C40.4955 43.4305 39.6777 44.6054 38.6799 45.6498C36.5045 47.9343 33.8792 49.3784 30.7469 49.8108C29.5856 49.974 28.3834 50.0556 27.2221 49.9577C25.3002 49.7945 23.4764 49.2152 21.7671 48.2443C20.4423 47.4937 19.2809 46.5636 18.2668 45.454C17.4899 44.6054 16.7784 43.6998 16.3449 42.6228C15.797 41.2603 16.0832 40.0446 17.081 38.9431C18.2259 37.6785 20.6876 37.5969 21.9552 39.0492C22.3478 39.4979 22.6259 40.0364 22.9939 40.5096C24.2861 42.1333 25.9708 43.0471 28.0563 43.2184C31.8919 43.5284 35.2123 40.6973 35.6866 36.985C36.1446 33.4113 33.7484 30.0091 30.1172 29.1768C26.4451 28.3365 22.6831 30.6373 21.7017 34.317C21.1292 36.4709 18.8638 37.5479 16.852 36.577C15.8542 36.0956 15.2654 35.2471 15.0527 34.1293C14.8483 33.0442 15.2817 32.0896 15.6089 31.1187C16.0914 29.699 16.8929 28.4507 17.8252 27.2921C18.8393 26.0356 20.0661 25.0076 21.4645 24.1836C23.0184 23.2616 24.695 22.715 26.4697 22.4212C26.8377 22.3641 27.2139 22.3396 27.5819 22.307C27.6065 22.2988 27.6228 22.2744 27.631 22.2499Z"></path>
    <path d="M44.1185 33.3216C43.9876 32.677 43.8731 32.1467 43.775 31.6082C43.5133 30.1641 43.0553 28.7771 42.4828 27.4308C41.6241 25.4237 40.5691 23.5227 39.2278 21.8093C38.32 20.6426 37.2896 19.5574 36.2591 18.4886C35.7193 17.9338 35.0405 17.5095 34.4599 16.9874C33.7729 16.3754 33.3558 15.6085 33.2986 14.6702C33.2331 13.5688 33.5684 12.6223 34.3699 11.8554C35.5149 10.7539 37.6658 10.705 38.8435 11.7738C40.1847 12.9976 41.2315 14.4581 42.1393 16.0165C43.1534 17.7625 43.8895 19.6146 44.3556 21.5727C44.8545 23.6451 45.0753 25.7501 44.9772 27.8714C44.8872 29.6745 44.6582 31.4614 44.1185 33.3216Z"></path>
  </symbol>
  <symbol xmlns="http://www.w3.org/2000/svg" viewBox="0 0 60 60" id="outgoing">
    <path d="M48.6571 10.0732H38.4071C37.7482 10.0732 37.2357 10.5857 37.2357 11.2446V13.5143C37.2357 14.1732 37.7482 14.6857 38.4071 14.6857H43.1661L33.0625 24.7161C32.6232 25.1553 32.6232 25.8875 33.0625 26.3268L34.6732 27.9375C35.1125 28.3768 35.8446 28.3768 36.2839 27.9375L46.3875 17.8339V22.5928C46.3875 23.2518 46.9 23.7643 47.5589 23.7643H49.8286C50.4875 23.7643 51 23.2518 51 22.5928V12.3428C50.9268 11.0982 49.9018 10.0732 48.6571 10.0732Z"></path>
    <path d="M47.6321 36.9429C45.1429 36.9429 42.6536 36.5768 40.3107 35.7714C39.1393 35.4054 37.7482 35.7714 37.0893 36.4304L32.4768 39.8714C27.1321 37.0161 23.8375 33.7214 21.0554 28.45L24.4232 23.9839C25.3018 23.1054 25.5946 21.8607 25.2286 20.6161C24.4232 18.2732 24.0571 15.7839 24.0571 13.2946C24.0571 11.4643 22.5929 10 20.7625 10H13.2946C11.4643 10.0732 10 11.5375 10 13.3679C10 34.1607 26.9125 51 47.6321 51C49.4625 51 50.9268 49.5357 50.9268 47.7054V40.2375C50.9268 38.4071 49.4625 36.9429 47.6321 36.9429Z"></path>
  </symbol>
  <symbol xmlns="http://www.w3.org/2000/svg" viewBox="0 0 60 60" id="pause">
    <path fill-rule="evenodd" clip-rule="evenodd" d="M30 10C18.9286 10 10 18.9286 10 30C10 41.0714 18.9286 50 30 50C41.0714 50 50 41.0714 50 30C50 18.9286 41.0714 10 30 10ZM26 24C27.0714 24 28 24.9286 28 26V34C28 35.0714 27.0714 36 26 36C24.9286 36 24 35.0714 24 34V26C24 24.9286 24.8571 24 26 24ZM34 24C35.0714 24 36 24.9286 36 26V34C36 35.0714 35.0714 36 34 36C32.9286 36 32 35.0714 32 34V26C32 24.9286 32.8571 24 34 24Z"></path>
  </symbol>
  <symbol xmlns="http://www.w3.org/2000/svg" viewBox="0 0 60 60" id="phone">
    <path fill-rule="evenodd" clip-rule="evenodd" d="M54.1291 49.008C53.7717 49.3654 53.4144 49.7229 52.9678 50.1696C51.8959 51.3313 50.5559 52.6716 49.752 53.2971C45.3749 56.2459 39.5686 54.8162 35.4595 53.1184C30.0105 50.8845 24.1148 46.6847 18.7551 41.3234C13.3954 35.962 9.19703 30.0645 6.96382 24.6137C5.17726 20.5033 3.74801 14.6952 6.69584 10.3167C7.32114 9.5125 8.66106 8.17215 9.82232 7.09987C10.269 6.65309 10.7156 6.29567 10.9836 5.93824C12.2342 4.68725 14.1994 4.68725 15.45 5.93824L23.4895 13.9803C24.7401 15.2313 24.7401 17.1971 23.4895 18.4481L21.3456 20.5927C19.8271 22.1117 19.4698 24.3456 20.5417 26.2221C23.5788 31.9409 28.2239 36.5875 33.8516 39.5362C35.7275 40.5191 38.05 40.1617 39.4792 38.732L41.6231 36.5875C42.8737 35.3365 44.8389 35.3365 46.0895 36.5875L54.1291 44.6295C55.2903 45.7912 55.2903 47.8464 54.1291 49.008Z"></path>
  </symbol>
  <symbol xmlns="http://www.w3.org/2000/svg" viewBox="0 0 60 60" id="phone_2">
    <path fill-rule="evenodd" clip-rule="evenodd" d="M54.1307 48.934C53.7741 49.2908 53.4175 49.6477 52.9717 50.0937C51.9018 51.2534 50.5644 52.5915 49.762 53.2159C45.3933 56.1597 39.5981 54.7324 35.4077 53.0375C32.5547 51.8778 29.5233 50.0937 26.5811 47.9527C26.7595 47.0607 26.8486 46.1686 26.8486 45.2766C26.8486 38.5861 21.41 33.1445 14.6341 33.1445C13.7425 33.1445 12.8509 33.2337 11.9594 33.4121C9.8196 30.4683 8.12561 27.4353 6.87741 24.5807C5.18342 20.4773 3.75691 14.5897 6.6991 10.3078C7.41235 9.50491 8.83887 8.16682 9.90875 7.09634C10.3545 6.65031 10.8003 6.29349 11.0678 5.93666C12.316 4.68778 14.2775 4.68778 15.5257 5.93666L23.5498 13.9652C24.798 15.2141 24.798 17.1766 23.5498 18.4255L21.41 20.6557C19.8944 22.1722 19.5377 24.4023 20.6076 26.2757C23.639 31.9848 28.2751 36.6236 33.892 39.5674C35.7643 40.5486 38.0824 40.1918 39.5089 38.6753L41.6487 36.5344C42.8969 35.2855 44.8584 35.2855 46.1066 36.5344L54.1307 44.5629C55.2898 45.7226 55.2898 47.7743 54.1307 48.934Z"></path>
    <path d="M14.7232 35.7315C9.3738 35.7315 5.09425 40.1026 5.09425 45.3657C5.09425 50.6289 9.3738 55 14.7232 55C20.0727 55 24.3522 50.7181 24.3522 45.3657C24.3522 40.1026 19.9835 35.7315 14.7232 35.7315ZM19.716 48.5772C20.251 49.1124 20.251 49.9153 19.716 50.4505C19.1811 50.9857 18.3787 50.9857 17.8437 50.4505L14.6341 47.2391L11.4244 50.4505C10.8895 50.9857 10.0871 50.9857 9.55211 50.4505C9.01717 49.9153 9.01717 49.1124 9.55211 48.5772L12.7618 45.3657L9.55211 42.1543C9.01717 41.6191 9.01717 40.8162 9.55211 40.281C10.0871 39.7458 10.8895 39.7458 11.4244 40.281L14.6341 43.4924L17.8437 40.281C18.3787 39.7458 19.1811 39.7458 19.716 40.281C20.251 40.8162 20.251 41.6191 19.716 42.1543L16.5064 45.3657L19.716 48.5772Z"></path>
  </symbol>
  <symbol xmlns="http://www.w3.org/2000/svg" viewBox="0 0 60 60" id="photo">
    <path d="M52.5893 41.8791H50.625V39.9309C50.625 39.5767 50.5357 39.2225 50.3571 38.8683C50 38.0713 49.1071 37.54 48.2143 37.54C47.3214 37.54 46.4286 38.0713 46.0714 38.8683C45.8929 39.2225 45.8036 39.5767 45.8036 39.9309V41.8791H43.9286C42.5893 41.8791 41.5179 42.9417 41.5179 44.27C41.5179 45.5983 42.5893 46.6609 43.9286 46.6609H45.8036V48.6091C45.8036 49.9374 46.875 51 48.2143 51C49.5536 51 50.625 49.9374 50.625 48.6091V46.6609H52.5893C53.9286 46.6609 55 45.5983 55 44.27C55 42.9417 53.9286 41.8791 52.5893 41.8791Z"></path>
    <path d="M39.7321 46.6609C39.2857 45.9525 39.1071 45.1555 39.1071 44.27C39.1071 43.3844 39.375 42.5875 39.7321 41.879C40.4464 40.5508 41.875 39.6652 43.4821 39.4881C43.6607 37.8942 44.5536 36.5659 45.8928 35.7689C46.6071 35.3261 47.4107 35.149 48.3036 35.149C49.1964 35.149 50 35.4147 50.7143 35.7689V21.1577C50.7143 18.2354 48.3036 15.8445 45.3571 15.8445H38.3928C38.2143 15.8445 38.0357 15.7559 37.9464 15.5788L36.6071 12.9222C35.7143 11.1512 33.8393 10 31.875 10H23.8393C21.875 10 20 11.1512 19.1071 12.9222L17.7679 15.4903C17.6786 15.6674 17.5 15.7559 17.3214 15.7559H10.3571C7.41071 15.7559 5 18.1469 5 21.0691V41.3477C5 44.27 7.41071 46.6609 10.3571 46.6609H39.7321ZM27.8571 22.5745C32.3214 22.5745 35.9821 26.2052 35.9821 30.6328C35.9821 35.0605 32.3214 38.6911 27.8571 38.6911C23.3929 38.6911 19.7321 35.0605 19.7321 30.6328C19.7321 26.1166 23.3929 22.5745 27.8571 22.5745Z"></path>
  </symbol>
  <symbol xmlns="http://www.w3.org/2000/svg" viewBox="0 0 60 60" id="plus">
    <path d="M30 5C16.1607 5 5 16.1607 5 30C5 43.8393 16.1607 55 30 55C43.8393 55 55 43.8393 55 30C55 16.1607 43.8393 5 30 5ZM41.3393 32.2321H32.2321V41.3393C32.2321 42.5893 31.25 43.5714 30 43.5714C28.75 43.5714 27.7679 42.5893 27.7679 41.3393V32.2321H18.6607C17.4107 32.2321 16.4286 31.25 16.4286 30C16.4286 28.75 17.4107 27.7679 18.6607 27.7679H27.7679V18.6607C27.7679 17.4107 28.75 16.4286 30 16.4286C31.25 16.4286 32.2321 17.4107 32.2321 18.6607V27.7679H41.3393C42.5893 27.7679 43.5714 28.75 43.5714 30C43.6607 31.25 42.5893 32.2321 41.3393 32.2321Z"></path>
  </symbol>
  <symbol xmlns="http://www.w3.org/2000/svg" viewBox="0 0 60 60" id="run">
    <path d="M30 10C18.7857 10 10 19 10 30C10 41 19 50 30 50C41 50 50 41 50 30C50 19 41 10 30 10ZM36 34.4286L30.2143 37.8571C29.4286 38.2857 28.6429 38.4286 28 38.4286C27.2143 38.4286 26.4286 38.2143 25.7857 37.8571C24.3571 37.0714 23.3571 35.4286 23.3571 33.8571V27.2857C23.3571 25.7143 24.1429 24.0714 25.7857 23.2857C27.2143 22.5 29 22.5 30.3571 23.2857L36.1429 26.7143C37.5714 27.5 38.5714 29.1429 38.5714 30.7143C38.5714 32.2857 37.3571 33.5714 36 34.4286Z"></path>
  </symbol>
  <symbol xmlns="http://www.w3.org/2000/svg" viewBox="0 0 60 60" id="sorting">
    <path d="M29.9472 26.4286H42.419C42.6863 26.4286 42.8645 26.3393 43.0426 26.1607C43.2208 25.9821 43.3099 25.8036 43.3099 25.5357V20.1786C43.3099 19.9107 43.2208 19.7321 43.0426 19.5536C42.8645 19.375 42.6863 19.2857 42.419 19.2857H29.9472C29.68 19.2857 29.5018 19.375 29.3236 19.5536C29.1455 19.7321 29.0564 19.9107 29.0564 20.1786V25.5357C29.0564 25.8036 29.1455 25.9821 29.3236 26.1607C29.5018 26.3393 29.68 26.4286 29.9472 26.4286Z"></path>
    <path d="M29.9472 12.1429H37.074C37.3412 12.1429 37.5194 12.0536 37.6976 11.875C37.8757 11.6964 37.9648 11.5179 37.9648 11.25V5.89286C37.9648 5.625 37.8757 5.44643 37.6976 5.26786C37.5194 5.08929 37.3412 5 37.074 5H29.9472C29.68 5 29.5018 5.08929 29.3236 5.26786C29.1455 5.44643 29.0564 5.625 29.0564 5.89286V11.25C29.0564 11.5179 29.1455 11.6964 29.3236 11.875C29.5018 12.0536 29.68 12.1429 29.9472 12.1429Z"></path>
    <path d="M23.7113 44.2857H18.3663V5.89286C18.3663 5.625 18.2772 5.44643 18.099 5.26786C18.0099 5.08929 17.7427 5 17.4754 5H12.1304C11.8631 5 11.6849 5.08929 11.5068 5.26786C11.3286 5.44643 11.2395 5.625 11.2395 5.89286V44.2857H5.89445C5.44903 44.2857 5.18178 44.4643 5.09269 44.8214C4.91453 45.1786 5.00361 45.5357 5.27086 45.8036L14.1793 54.7321C14.3575 54.9107 14.6247 55 14.8029 55C15.0701 55 15.2483 54.9107 15.4265 54.7321L24.3349 45.8036C24.5131 45.625 24.6022 45.3571 24.6022 45.1786C24.6022 44.9107 24.5131 44.7321 24.3349 44.5536C24.1568 44.375 23.9786 44.2857 23.7113 44.2857Z"></path>
    <path d="M53.7327 48.125C53.5546 47.9464 53.3764 47.8571 53.1092 47.8571H29.9472C29.68 47.8571 29.5018 47.9464 29.3236 48.125C29.1455 48.3036 29.0564 48.4821 29.0564 48.75V54.1071C29.0564 54.375 29.1455 54.5536 29.3236 54.7321C29.5018 54.9107 29.68 55 29.9472 55H53.1092C53.3764 55 53.5546 54.9107 53.7327 54.7321C53.9109 54.5536 54 54.375 54 54.1071V48.75C54 48.4821 53.9109 48.3036 53.7327 48.125Z"></path>
    <path d="M29.9472 40.7143H47.7641C48.0313 40.7143 48.2095 40.625 48.3877 40.4464C48.5659 40.2679 48.6549 40.0893 48.6549 39.8214V34.4643C48.6549 34.1964 48.5659 34.0179 48.3877 33.8393C48.2095 33.6607 48.0313 33.5714 47.7641 33.5714H29.9472C29.68 33.5714 29.5018 33.6607 29.3236 33.8393C29.1455 34.0179 29.0564 34.1964 29.0564 34.4643V39.8214C29.0564 40.0893 29.1455 40.2679 29.3236 40.4464C29.5018 40.625 29.68 40.7143 29.9472 40.7143Z"></path>
  </symbol>
  <symbol xmlns="http://www.w3.org/2000/svg" viewBox="0 0 60 60" id="sorting_2">
    <path d="M30.9472 26.4286H43.419C43.6863 26.4286 43.8645 26.3393 44.0426 26.1607C44.2208 25.9821 44.3099 25.8036 44.3099 25.5357V20.1786C44.3099 19.9107 44.2208 19.7321 44.0426 19.5536C43.8645 19.375 43.6863 19.2857 43.419 19.2857H30.9472C30.68 19.2857 30.5018 19.375 30.3236 19.5536C30.1455 19.7321 30.0564 19.9107 30.0564 20.1786V25.5357C30.0564 25.8036 30.1455 25.9821 30.3236 26.1607C30.5018 26.3393 30.68 26.4286 30.9472 26.4286Z"></path>
    <path d="M30.9472 12.1429H38.074C38.3412 12.1429 38.5194 12.0536 38.6976 11.875C38.8757 11.6964 38.9648 11.5179 38.9648 11.25V5.89286C38.9648 5.625 38.8757 5.44643 38.6976 5.26786C38.5194 5.08929 38.3412 5 38.074 5H30.9472C30.68 5 30.5018 5.08929 30.3236 5.26786C30.1455 5.44643 30.0564 5.625 30.0564 5.89286V11.25C30.0564 11.5179 30.1455 11.6964 30.3236 11.875C30.5018 12.0536 30.68 12.1429 30.9472 12.1429Z"></path>
    <path d="M24.7113 15.7143H19.3663V54.1071C19.3663 54.375 19.2772 54.5536 19.099 54.7321C19.0099 54.9107 18.7427 55 18.4754 55H13.1304C12.8631 55 12.6849 54.9107 12.5068 54.7321C12.3286 54.5536 12.2395 54.375 12.2395 54.1071V15.7143H6.89445C6.44903 15.7143 6.18178 15.5357 6.09269 15.1786C5.91453 14.8214 6.00361 14.4643 6.27086 14.1964L15.1793 5.26786C15.3575 5.08929 15.6247 5 15.8029 5C16.0701 5 16.2483 5.08929 16.4265 5.26786L25.3349 14.1964C25.5131 14.375 25.6022 14.6429 25.6022 14.8214C25.6022 15.0893 25.5131 15.2679 25.3349 15.4464C25.1568 15.625 24.9786 15.7143 24.7113 15.7143Z"></path>
    <path d="M54.7327 48.125C54.5546 47.9464 54.3764 47.8571 54.1092 47.8571H30.9472C30.68 47.8571 30.5018 47.9464 30.3236 48.125C30.1455 48.3036 30.0564 48.4821 30.0564 48.75V54.1071C30.0564 54.375 30.1455 54.5536 30.3236 54.7321C30.5018 54.9107 30.68 55 30.9472 55H54.1092C54.3764 55 54.5546 54.9107 54.7327 54.7321C54.9109 54.5536 55 54.375 55 54.1071V48.75C55 48.4821 54.9109 48.3036 54.7327 48.125Z"></path>
    <path d="M30.9472 40.7143H48.7641C49.0313 40.7143 49.2095 40.625 49.3877 40.4464C49.5659 40.2679 49.6549 40.0893 49.6549 39.8214V34.4643C49.6549 34.1964 49.5659 34.0179 49.3877 33.8393C49.2095 33.6607 49.0313 33.5714 48.7641 33.5714H30.9472C30.68 33.5714 30.5018 33.6607 30.3236 33.8393C30.1455 34.0179 30.0564 34.1964 30.0564 34.4643V39.8214C30.0564 40.0893 30.1455 40.2679 30.3236 40.4464C30.5018 40.625 30.68 40.7143 30.9472 40.7143Z"></path>
  </symbol>
  <symbol xmlns="http://www.w3.org/2000/svg" viewBox="0 0 60 60" id="telegram">
    <path d="M9.73127 29.3175L19.4065 32.865L23.1566 44.7639C23.3816 45.5029 24.3566 45.7986 24.9566 45.2812L30.3567 40.9208C30.9568 40.4773 31.7068 40.4773 32.3068 40.8469L42.057 47.794C42.732 48.2375 43.7071 47.9418 43.8571 47.1289L50.9822 13.3538C51.1322 12.4669 50.3072 11.7279 49.4822 12.0974L9.73127 27.1742C8.75624 27.6177 8.75624 28.948 9.73127 29.3175ZM22.5566 31.0173L41.457 19.5619C41.832 19.3402 42.132 19.7836 41.832 20.0793L26.2316 34.3431C25.7066 34.8605 25.3316 35.5256 25.2566 36.2647L24.7316 40.1817C24.6566 40.699 23.9066 40.7729 23.7566 40.2556L21.7315 33.1606C21.4315 32.3477 21.8066 31.4608 22.5566 31.0173Z"></path>
  </symbol>
  <symbol xmlns="http://www.w3.org/2000/svg" viewBox="0 0 60 60" id="user">
    <path d="M30.0418 7C23.6562 7 18.468 12.3488 18.468 18.932C18.468 25.5152 23.6562 30.864 30.0418 30.864C36.4273 30.864 41.6156 25.5152 41.6156 18.932C41.6156 12.3488 36.4273 7 30.0418 7Z"></path>
    <path d="M49.9169 40.4919C49.5977 39.6691 49.1986 39.0107 48.7197 38.2701C46.4049 34.7317 42.813 32.3453 38.7422 31.7692C38.2633 31.6869 37.7046 31.8515 37.3055 32.0984C35.1503 33.7442 32.6759 34.5671 30.0419 34.5671C27.4078 34.5671 24.8536 33.7442 22.7783 32.0984C22.3792 31.7692 21.8205 31.6047 21.3416 31.7692C17.191 32.4276 13.5193 34.7317 11.2843 38.2701C10.8054 38.9284 10.4063 39.7513 10.087 40.4919C9.92738 40.8211 10.0072 41.1503 10.1668 41.4794C10.5659 42.22 11.0449 42.9606 11.5238 43.5367C12.2421 44.5242 12.9605 45.4293 13.8385 46.2522C14.5569 46.9928 15.3551 47.6512 16.1533 48.3095C20.1443 51.3542 24.9334 53 29.9621 53C34.9907 53 39.7799 51.3542 43.7708 48.3095C44.569 47.6512 45.3672 46.9106 46.0856 46.2522C46.8838 45.4293 47.682 44.5242 48.4004 43.5367C48.8793 42.8784 49.3582 42.1377 49.7573 41.4794C49.9968 41.1503 50.0766 40.8211 49.9169 40.4919Z"></path>
  </symbol>
  <symbol xmlns="http://www.w3.org/2000/svg" viewBox="0 0 60 60" id="accountant">
    <path d="M45.5047 5H14.4057C12.5236 5 11 6.51786 11 8.39286V51.6071C11 53.4821 12.5236 55 14.4057 55H45.5943C47.4764 55 49 53.4821 49 51.6071V8.39286C48.9104 6.51786 47.3868 5 45.5047 5ZM23.1887 48.5714C23.1887 49.2857 22.6509 49.8214 21.934 49.8214H18.1698C17.4528 49.8214 16.9151 49.2857 16.9151 48.5714V45.1786C16.9151 44.4643 17.4528 43.9286 18.1698 43.9286H21.934C22.6509 43.9286 23.1887 44.4643 23.1887 45.1786V48.5714ZM23.1887 39.1964C23.1887 39.9107 22.6509 40.4464 21.934 40.4464H18.1698C17.4528 40.4464 16.9151 39.9107 16.9151 39.1964V35.8036C16.9151 35.0893 17.4528 34.5536 18.1698 34.5536H21.934C22.6509 34.5536 23.1887 35.0893 23.1887 35.8036V39.1964ZM23.1887 29.8214C23.1887 30.5357 22.6509 31.0714 21.934 31.0714H18.1698C17.4528 31.0714 16.9151 30.5357 16.9151 29.8214V26.4286C16.9151 25.7143 17.4528 25.1786 18.1698 25.1786H21.934C22.6509 25.1786 23.1887 25.7143 23.1887 26.4286V29.8214ZM33.0472 48.5714C33.0472 49.2857 32.5094 49.8214 31.7925 49.8214H28.0283C27.3113 49.8214 26.7736 49.2857 26.7736 48.5714V45.1786C26.7736 44.4643 27.3113 43.9286 28.0283 43.9286H31.7925C32.5094 43.9286 33.0472 44.4643 33.0472 45.1786V48.5714ZM33.0472 39.1964C33.0472 39.9107 32.5094 40.4464 31.7925 40.4464H28.0283C27.3113 40.4464 26.7736 39.9107 26.7736 39.1964V35.8036C26.7736 35.0893 27.3113 34.5536 28.0283 34.5536H31.7925C32.5094 34.5536 33.0472 35.0893 33.0472 35.8036V39.1964ZM33.0472 29.8214C33.0472 30.5357 32.5094 31.0714 31.7925 31.0714H28.0283C27.3113 31.0714 26.7736 30.5357 26.7736 29.8214V26.4286C26.7736 25.7143 27.3113 25.1786 28.0283 25.1786H31.7925C32.5094 25.1786 33.0472 25.7143 33.0472 26.4286V29.8214ZM42.9953 48.5714C42.9953 49.2857 42.4575 49.8214 41.7406 49.8214H37.9764C37.2594 49.8214 36.7217 49.2857 36.7217 48.5714V45.1786C36.7217 44.4643 37.2594 43.9286 37.9764 43.9286H41.7406C42.4575 43.9286 42.9953 44.4643 42.9953 45.1786V48.5714ZM42.9953 39.1964C42.9953 39.9107 42.4575 40.4464 41.7406 40.4464H37.9764C37.2594 40.4464 36.7217 39.9107 36.7217 39.1964V35.8036C36.7217 35.0893 37.2594 34.5536 37.9764 34.5536H41.7406C42.4575 34.5536 42.9953 35.0893 42.9953 35.8036V39.1964ZM42.9953 29.8214C42.9953 30.5357 42.4575 31.0714 41.7406 31.0714H37.9764C37.2594 31.0714 36.7217 30.5357 36.7217 29.8214V26.4286C36.7217 25.7143 37.2594 25.1786 37.9764 25.1786H41.7406C42.4575 25.1786 42.9953 25.7143 42.9953 26.4286V29.8214ZM44.25 18.125C44.25 19.1964 43.3538 20 42.3679 20H17.6321C16.5566 20 15.75 19.1071 15.75 18.125V11.6071C15.75 10.5357 16.6462 9.73214 17.6321 9.73214H42.3679C43.4434 9.73214 44.25 10.5357 44.25 11.6071V18.125Z"></path>
  </symbol>
  <symbol xmlns="http://www.w3.org/2000/svg" viewBox="0 0 60 60" id="activity">
    <path d="M48.9306 17.6426C48.075 15.6691 46.863 13.9148 45.0805 12.7453C42.5139 10.9179 39.0203 10.4794 36.0972 11.6489C33.174 12.8184 30.8213 15.4498 29.9657 18.5197C29.1814 15.7421 27.399 13.4762 24.8323 12.1605C19.7703 9.38295 13.9953 11.8682 11.3573 16.8386C8.36287 22.5399 10.7869 29.0453 14.1379 33.9426C17.9879 39.4247 22.9786 44.0296 28.1833 48.3422C29.2527 49.2193 30.6787 49.2193 31.8194 48.3422C37.024 44.1027 41.9435 39.5708 45.8648 33.9426C47.7898 31.165 49.3583 28.0951 49.9287 24.7327C50 24.3673 50 24.0749 50 23.7094C50 21.5897 49.6435 19.543 48.9306 17.6426ZM41.5157 31.3112H36.7389C36.3111 31.3112 35.8833 31.0188 35.6694 30.7265L34.7426 29.2646L31.8907 33.7964C31.6055 34.235 31.1064 34.4543 30.6074 34.3812C30.1083 34.3812 29.6805 34.0157 29.4666 33.5771L26.0444 26.3408L24.1194 30.361C23.8342 30.8726 23.4777 31.165 22.836 31.165H17.774C16.9897 31.165 16.4194 30.5803 16.4194 29.7762C16.4194 28.9722 16.9897 28.3874 17.774 28.3874H21.9805L24.7611 22.5399C25.0462 22.0282 25.4027 21.7359 26.0444 21.7359C26.5435 21.7359 27.0425 22.1013 27.3277 22.5399L30.9638 30.1417L33.6731 25.9022C33.9583 25.4637 34.3148 25.3175 34.7426 25.3175C35.1703 25.3175 35.5981 25.6099 35.812 25.9022L37.5231 28.4605H41.587C42.3713 28.4605 42.9417 29.0453 42.9417 29.8493C42.9417 30.6534 42.3 31.3112 41.5157 31.3112Z"></path>
  </symbol>
  <symbol xmlns="http://www.w3.org/2000/svg" viewBox="0 0 60 60" id="arrow">
    <path d="M26.8205 5.20368C15.6549 6.63081 6.63319 15.6395 5.204 26.789C3.14955 43.1117 16.9055 56.8478 33.2518 54.7963C44.4173 53.3692 53.3498 44.3604 54.7789 33.3002C56.9227 16.8883 43.1668 3.15219 26.8205 5.20368ZM28.1603 30.5352L35.7529 39.3655C36.8248 40.6142 37.0034 42.4873 35.9315 43.8253C34.5917 45.4308 32.1799 45.4308 30.8401 43.8253L20.8357 32.1407C19.7639 30.8919 19.7639 29.0188 20.8357 27.7701L30.8401 16.0855C32.0013 14.7476 34.1451 14.5692 35.5742 15.7287C37.0034 16.8883 37.0928 19.029 35.9315 20.4561L28.2497 29.4648C27.8924 29.7324 27.8924 30.1784 28.1603 30.5352Z"></path>
  </symbol>
  <symbol xmlns="http://www.w3.org/2000/svg" viewBox="0 0 60 60" id="bay">
    <path d="M18.51 20.2775C18.9988 20.7663 19.79 20.7663 20.2775 20.2775C20.765 19.7888 20.765 18.9975 20.2775 18.5101L17.6263 15.8575C17.1375 15.3688 16.3463 15.3688 15.8588 15.8575C15.37 16.3463 15.37 17.1375 15.8588 17.625L18.51 20.2775ZM19.2625 38.9875L16.6362 41.6138C16.1525 42.0975 16.1525 42.8813 16.6362 43.365C17.1199 43.8488 17.9037 43.8488 18.3875 43.365L21.0137 40.7388C21.4975 40.255 21.4975 39.4712 21.0137 38.9875C20.53 38.5038 19.7463 38.5037 19.2625 38.9875ZM30 16.25C30.69 16.25 31.25 15.69 31.25 15V11.25C31.25 10.56 30.69 10 30 10C29.31 10 28.75 10.56 28.75 11.25V15C28.75 15.69 29.31 16.25 30 16.25ZM42.0263 19.725L44.6526 17.0987C45.1363 16.615 45.1363 15.8312 44.6526 15.3475C44.1688 14.8637 43.385 14.8637 42.9012 15.3475L40.275 17.9737C39.7912 18.4575 39.7912 19.2412 40.275 19.725C40.7588 20.2088 41.5426 20.2088 42.0263 19.725ZM15 28.75H11.25C10.56 28.75 10 29.31 10 30C10 30.69 10.56 31.25 11.25 31.25H15C15.69 31.25 16.25 30.69 16.25 30C16.25 29.31 15.69 28.75 15 28.75ZM30 43.75C29.31 43.75 28.75 44.31 28.75 45V48.75C28.75 49.44 29.31 50 30 50C30.69 50 31.25 49.44 31.25 48.75V45C31.25 44.31 30.69 43.75 30 43.75ZM48.75 28.75H45C44.31 28.75 43.75 29.31 43.75 30C43.75 30.69 44.31 31.25 45 31.25H48.75C49.44 31.25 50 30.69 50 30C50 29.31 49.44 28.75 48.75 28.75ZM41.49 39.7225C41.0012 39.2337 40.21 39.2337 39.7225 39.7225C39.2337 40.2113 39.2337 41.0025 39.7225 41.49L42.3737 44.1412C42.8625 44.63 43.6537 44.63 44.1412 44.1412C44.6288 43.6524 44.63 42.8612 44.1412 42.3737L41.49 39.7225ZM30 18.7425C23.7825 18.7425 18.7425 23.7825 18.7425 30C18.7425 36.2175 23.7825 41.2575 30 41.2575C36.2175 41.2575 41.2575 36.2175 41.2575 30C41.2575 23.7825 36.2175 18.7425 30 18.7425Z"></path>
  </symbol>
  <symbol xmlns="http://www.w3.org/2000/svg" viewBox="0 0 60 60" id="bownload">
    <path d="M47.8476 13.229L40.9417 6.87835C39.6861 5.62612 37.9821 5 36.278 5H16.8161C13.0493 5 10 8.04114 10 11.7979V48.2021C10 51.9589 13.0493 55 16.8161 55H43.1839C46.9507 55 50 51.9589 50 48.2021V18.2379C50 16.3596 49.1929 14.4812 47.8476 13.229ZM23.1839 23.873C23.991 23.068 25.3363 23.068 26.1435 23.873L27.9372 25.6619V18.2379C27.9372 17.0751 28.8341 16.1807 30 16.1807C31.1659 16.1807 32.0628 17.1646 32.0628 18.2379V25.5725L33.8565 23.7835C34.6637 22.9785 36.009 22.9785 36.8161 23.7835C37.6233 24.5886 37.6233 25.9302 36.8161 26.7352C36.6368 26.9141 31.0762 32.4597 31.435 32.102C30.6278 32.907 29.2825 32.907 28.4753 32.102L23.0942 26.7352C22.3767 26.0197 22.3767 24.678 23.1839 23.873ZM38.0718 43.9088H21.9282C20.7623 43.9088 19.8655 42.9249 19.8655 41.8515C19.8655 40.6887 20.852 39.7943 21.9282 39.7943H38.0718C39.2377 39.7943 40.1345 40.6887 40.1345 41.8515C40.2242 42.9249 39.2377 43.9088 38.0718 43.9088Z"></path>
  </symbol>
  <symbol xmlns="http://www.w3.org/2000/svg" viewBox="0 0 60 60" id="checkbox">
    <path d="M42.0378 16.2676L24.9693 34.6714L17.7825 26.9718C16.1655 25.2817 13.6501 25.2817 12.2128 26.9718C10.5957 28.662 10.5957 31.2911 12.2128 32.9812L22.0946 43.6854C22.8132 44.4366 23.8913 45 24.9693 45C26.0473 45 26.9456 44.6244 27.844 43.6854L47.7872 22.277C49.4043 20.5869 49.4043 17.9577 47.7872 16.2676C46.1702 14.5775 43.6548 14.5775 42.0378 16.2676Z"></path>
  </symbol>
  <symbol xmlns="http://www.w3.org/2000/svg" viewBox="0 0 60 60" id="close">
    <path d="M50 18.6667L41.3333 10L30 21.3333L18.6667 10L10 18.6667L21.3333 30L10 41.3333L18.6667 50L30 38.6667L41.3333 50L50 41.3333L38.6667 30L50 18.6667Z"></path>
  </symbol>
  <symbol xmlns="http://www.w3.org/2000/svg" viewBox="0 0 60 60" id="cup">
    <path d="M47.1769 10.7219C46.3872 9.6738 45.1668 9.14973 43.8746 9.2246C43.6592 9.2246 43.5157 9.29947 43.3721 9.29947C42.1517 9.59893 41.1466 10.4973 40.7159 11.6952C40.6441 10.7968 40.5005 9.8984 40.2851 9H19.7533C19.6097 9.82353 19.4661 10.7219 19.3225 11.6952C18.82 10.4973 17.815 9.52406 16.6663 9.29947C16.5227 9.2246 16.3074 9.2246 16.1638 9.2246C14.8716 9.07487 13.6512 9.59893 12.8615 10.7219C12 11.8449 11.7846 13.3422 12.2154 14.6898L12.7179 16.1123C13.5794 18.3583 15.2305 21.0535 17.2406 23.5241C18.6047 25.1711 21.2609 28.1658 24.2042 29.8128C24.4196 30.0374 24.5632 30.3369 24.5632 30.7112C24.5632 31.385 24.0607 31.9091 23.4863 31.9091C23.1274 31.9091 22.8402 31.7594 22.6249 31.5348L21.6198 32.4332C22.0505 32.9572 22.7684 33.3316 23.4863 33.3316C24.7786 33.3316 25.8554 32.2086 25.8554 30.7861C25.8554 30.4866 25.7836 30.262 25.7118 29.9626C26.2861 30.4866 26.8605 30.9358 27.4348 31.3102V35.6524H32.46V31.3102C33.0344 30.9358 33.6087 30.4866 34.183 29.9626C34.1112 30.1872 34.0394 30.4866 34.0394 30.7861C34.0394 32.2086 35.1163 33.3316 36.4085 33.3316C37.1264 33.3316 37.7725 33.0321 38.275 32.4332L37.27 31.5348C37.0546 31.7594 36.7674 31.9091 36.4085 31.9091C35.8342 31.9091 35.3316 31.385 35.3316 30.7112C35.3316 30.3369 35.4752 30.0374 35.6906 29.8128C38.634 28.1658 41.2902 25.1711 42.6542 23.5241C44.6643 20.9786 46.3155 18.3583 47.1769 16.1123L47.6795 14.6898C48.2538 13.3422 48.0384 11.8449 47.1769 10.7219ZM18.2457 22.7005C16.1638 20.1551 14.5844 17.5348 13.7947 15.3636L13.4358 14.2406C13.1486 13.3422 13.2922 12.2941 13.8665 11.5455C14.3691 10.8717 15.1587 10.4973 16.0202 10.5722C16.092 10.5722 16.2356 10.5722 16.3792 10.6471C17.3124 10.8717 18.1021 11.6952 18.3175 12.6684C18.5329 13.6417 18.2457 14.615 17.5996 15.2888L18.5329 16.262C18.82 15.9626 19.1072 15.5882 19.2507 15.2139C19.4661 20.2299 21.4762 25.0963 24.276 28.3904C21.6916 26.7433 19.3943 24.1979 18.2457 22.7005ZM32.8908 19.7059L33.7523 24.123L29.9474 21.877L26.1426 24.123L27.004 19.7059L23.7735 16.6364L28.0809 16.1123L30.0192 12.0695L31.8139 16.1872L36.1213 16.7112L32.8908 19.7059ZM46.6026 14.2406L46.2437 15.3636C45.454 17.5348 43.8746 20.2299 41.7927 22.7005C40.5723 24.123 38.3468 26.6685 35.8342 28.3155C38.5622 25.0214 40.6441 20.1551 40.8594 15.139C41.0748 15.5134 41.2902 15.8877 41.5773 16.1872L42.5106 15.2139C41.8645 14.5401 41.5773 13.5668 41.7927 12.5936C42.0081 11.6203 42.7978 10.7968 43.731 10.5722C43.8746 10.4973 43.9464 10.4973 44.09 10.4973C44.8797 10.4225 45.6694 10.7219 46.2437 11.4706C46.7462 12.2941 46.8898 13.3422 46.6026 14.2406Z"></path>
    <path d="M25.9271 36.9251H34.0394V39.4706H25.9271V36.9251Z"></path>
    <path d="M37.8444 40.8182H22.1943L19.6816 51H40.2853L37.8444 40.8182ZM34.9728 48.1551H25.0659V46.8075H34.9728V48.1551ZM34.9728 45.0107H25.0659V43.6631H34.9728V45.0107Z"></path>
  </symbol>
  <symbol xmlns="http://www.w3.org/2000/svg" viewBox="0 0 60 60" id="dark">
    <path d="M32.3787 53C39.2813 53 45.5855 49.7724 49.7621 44.4835C50.3799 43.7012 49.7062 42.5582 48.7514 42.7451C37.894 44.8702 27.9233 36.3144 27.9233 25.05C27.9233 18.5613 31.303 12.5945 36.7959 9.38176C37.6426 8.88654 37.4297 7.56718 36.4676 7.38453C35.1188 7.12892 33.7502 7.00021 32.3787 7C20.0259 7 10 17.2881 10 30C10 42.6957 20.0102 53 32.3787 53Z"></path>
  </symbol>
  <symbol xmlns="http://www.w3.org/2000/svg" viewBox="0 0 60 60" id="download">
    <path fill-rule="evenodd" clip-rule="evenodd" d="M22.1955 8C20.8045 8 19.4909 8.62857 18.5636 9.80714L14.0045 15.5429C13.3864 16.4071 13 17.4286 13 18.5286V47.2857C13 49.8786 15.0864 52 17.6364 52H42.3636C44.9136 52 47 49.8786 47 47.2857V12.7143C47 10.1214 44.9136 8 42.3636 8H22.1955ZM35.7182 27.3286C36.3364 27.9571 36.3364 28.9 35.7182 29.5286L31.0818 34.2429C30.4636 34.8714 29.5364 34.8714 28.9182 34.2429L24.2818 29.5286C23.6636 28.9 23.6636 27.9571 24.2818 27.3286C24.9 26.7 25.8273 26.7 26.4455 27.3286L28.4545 29.3714V22.1429C28.4545 21.2786 29.15 20.5714 30 20.5714C30.85 20.5714 31.5455 21.2786 31.5455 22.1429V29.3714L33.5545 27.3286C34.1727 26.7 35.1 26.7 35.7182 27.3286ZM37.7273 39.4286C38.5773 39.4286 39.2727 38.7214 39.2727 37.8571C39.2727 36.9929 38.5773 36.2857 37.7273 36.2857H22.2727C21.4227 36.2857 20.7273 36.9929 20.7273 37.8571C20.7273 38.7214 21.4227 39.4286 22.2727 39.4286H37.7273Z"></path>
  </symbol>
</svg>